{
.appVersion = "1349";
DisplayStrings = (
Hn
);
copyright = "Copyright 2020 The Monomaniac Project Authors (https://github.com/ManiackersDesign/monomaniac), all rights reserved.";
customParameters = (
{
name = license;
value = "This Font Software is licensed under the SIL Open Font License, Version 1.1. This license is available with a FAQ at: https://scripts.sil.org/OFL";
},
{
name = licenseURL;
value = "https://scripts.sil.org/OFL";
},
{
name = fsType;
value = (
);
},
{
name = vendorID;
value = MKSD;
}
);
date = "2020-10-30 04:35:57 +0000";
designer = "Maniackers Design";
designerURL = "https://mksd.jp/";
disablesAutomaticAlignment = 1;
familyName = "Monomaniac One";
featurePrefixes = (
{
automatic = 1;
code = "languagesystem DFLT dflt;\012";
name = Languagesystems;
}
);
features = (
{
automatic = 1;
code = "feature sups;\012feature frac;\012feature ordn;\012feature vert;\012feature vrt2;\012";
name = aalt;
},
{
automatic = 1;
code = "lookup ccmp_Other_1 {\012	@CombiningTopAccents = [acutecomb brevecomb caroncomb circumflexcomb dieresiscomb dotaccentcomb gravecomb hungarumlautcomb ringcomb tildecomb];\012	@CombiningNonTopAccents = [cedillacomb lowlinecomb ogonekcomb strokelongcomb];\012	sub [i]' @CombiningTopAccents by [idotless];\012	sub [i]' @CombiningNonTopAccents @CombiningTopAccents by [idotless];\012} ccmp_Other_1;\012";
name = ccmp;
},
{
automatic = 1;
code = "sub zero by zerosuperior;\012sub one by onesuperior;\012sub two by twosuperior;\012sub three by threesuperior;\012sub four by foursuperior;\012";
name = sups;
},
{
automatic = 1;
code = "sub one slash four by onequarter;\012sub one slash two by onehalf;\012sub three slash four by threequarters;\012";
name = frac;
},
{
automatic = 1;
code = "sub [zero one two three four five six seven eight nine] [A a]' by ordfeminine;\012sub [zero one two three four five six seven eight nine] [O o]' by ordmasculine;\012";
name = ordn;
},
{
automatic = 1;

glyphs = (
{
glyphname = A;
lastChange = "2020-11-04 22:21:30 +0000";
layers = (
{
layerId = master01;
paths = (
{
closed = 1;
nodes = (
"561 46 OFFCURVE",
"559 31 OFFCURVE",
"550 18 CURVE SMOOTH",
"542 7 OFFCURVE",
"528 0 OFFCURVE",
"513 0 CURVE SMOOTH",
"484 0 LINE SMOOTH",
"465 0 OFFCURVE",
"447 13 OFFCURVE",
"440 31 CURVE",
"402 146 LINE SMOOTH",
"400 153 OFFCURVE",
"393 159 OFFCURVE",
"385 159 CURVE SMOOTH",
"214 159 LINE SMOOTH",
"206 159 OFFCURVE",
"199 153 OFFCURVE",
"197 146 CURVE SMOOTH",
"159 31 LINE",
"152 13 OFFCURVE",
"135 0 OFFCURVE",
"115 0 CURVE SMOOTH",
"86 0 LINE SMOOTH",
"71 0 OFFCURVE",
"57 7 OFFCURVE",
"49 18 CURVE SMOOTH",
"40 31 OFFCURVE",
"38 46 OFFCURVE",
"43 60 CURVE SMOOTH",
"237 645 LINE SMOOTH",
"243 664 OFFCURVE",
"260 676 OFFCURVE",
"279 676 CURVE SMOOTH",
"320 676 LINE SMOOTH",
"339 676 OFFCURVE",
"357 664 OFFCURVE",
"362 645 CURVE SMOOTH",
"557 60 LINE SMOOTH"
);
},
{
closed = 1;
nodes = (
"305 443 LINE",
"302 447 OFFCURVE",
"297 447 OFFCURVE",
"294 443 CURVE",
"244 290 LINE SMOOTH",
"241 283 OFFCURVE",
"246 277 OFFCURVE",
"253 277 CURVE SMOOTH",
"346 277 LINE SMOOTH",
"353 277 OFFCURVE",
"358 283 OFFCURVE",
"355 290 CURVE SMOOTH"
);
}
);
width = 599;
}
);
unicode = 0041;
},
{
glyphname = Aacute;
lastChange = "2020-11-04 22:21:30 +0000";
layers = (
{
layerId = master01;
paths = (
{
closed = 1;
nodes = (
"366 746 LINE SMOOTH",
"359 727 OFFCURVE",
"342 714 OFFCURVE",
"322 714 CURVE SMOOTH",
"293 714 LINE SMOOTH",
"278 714 OFFCURVE",
"265 721 OFFCURVE",
"256 734 CURVE",
"247 745 OFFCURVE",
"245 760 OFFCURVE",
"250 775 CURVE SMOOTH",
"273 845 LINE",
"279 864 OFFCURVE",
"297 876 OFFCURVE",
"316 876 CURVE SMOOTH",
"345 876 LINE SMOOTH",
"360 876 OFFCURVE",
"374 869 OFFCURVE",
"382 857 CURVE",
"391 845 OFFCURVE",
"393 830 OFFCURVE",
"389 816 CURVE SMOOTH"
);
},
{
closed = 1;
nodes = (
"561 46 OFFCURVE",
"559 31 OFFCURVE",
"550 18 CURVE SMOOTH",
"542 7 OFFCURVE",
"528 0 OFFCURVE",
"513 0 CURVE SMOOTH",
"484 0 LINE SMOOTH",
"465 0 OFFCURVE",
"447 13 OFFCURVE",
"440 31 CURVE",
"402 146 LINE SMOOTH",
"400 153 OFFCURVE",
"393 159 OFFCURVE",
"385 159 CURVE SMOOTH",
"214 159 LINE SMOOTH",
"206 159 OFFCURVE",
"199 153 OFFCURVE",
"197 146 CURVE SMOOTH",
"159 31 LINE",
"152 13 OFFCURVE",
"135 0 OFFCURVE",
"115 0 CURVE SMOOTH",
"86 0 LINE SMOOTH",
"71 0 OFFCURVE",
"57 7 OFFCURVE",
"49 18 CURVE SMOOTH",
"40 31 OFFCURVE",
"38 46 OFFCURVE",
"43 60 CURVE SMOOTH",
"237 644 LINE",
"243 664 OFFCURVE",
"260 676 OFFCURVE",
"279 676 CURVE SMOOTH",
"320 676 LINE SMOOTH",
"339 676 OFFCURVE",
"357 664 OFFCURVE",
"362 644 CURVE",
"557 60 LINE SMOOTH"
);
},
{
closed = 1;
nodes = (
"305 443 LINE",
"302 447 OFFCURVE",
"297 447 OFFCURVE",
"294 443 CURVE",
"244 289 LINE SMOOTH",
"241 283 OFFCURVE",
"246 277 OFFCURVE",
"253 277 CURVE SMOOTH",
"346 277 LINE SMOOTH",
"353 277 OFFCURVE",
"358 283 OFFCURVE",
"355 289 CURVE SMOOTH"
);
}
);
width = 599;
}
);
unicode = 00C1;
},
{
glyphname = Acircumflex;
lastChange = "2020-11-04 22:21:30 +0000";
layers = (
{
layerId = master01;
paths = (
{
closed = 1;
nodes = (
"435 723 OFFCURVE",
"420 714 OFFCURVE",
"402 714 CURVE SMOOTH",
"371 714 LINE SMOOTH",
"355 714 OFFCURVE",
"340 723 OFFCURVE",
"332 737 CURVE SMOOTH",
"327 746 LINE SMOOTH",
"322 753 OFFCURVE",
"315 758 OFFCURVE",
"307 758 CURVE SMOOTH",
"291 758 LINE SMOOTH",
"283 758 OFFCURVE",
"276 753 OFFCURVE",
"271 746 CURVE SMOOTH",
"266 737 LINE SMOOTH",
"258 723 OFFCURVE",
"243 714 OFFCURVE",
"227 714 CURVE SMOOTH",
"195 714 LINE SMOOTH",
"178 714 OFFCURVE",
"163 723 OFFCURVE",
"155 737 CURVE SMOOTH",
"147 751 OFFCURVE",
"147 769 OFFCURVE",
"155 783 CURVE SMOOTH",
"197 853 LINE SMOOTH",
"205 867 OFFCURVE",
"220 876 OFFCURVE",
"236 876 CURVE SMOOTH",
"362 876 LINE SMOOTH",
"378 876 OFFCURVE",
"393 867 OFFCURVE",
"402 853 CURVE",
"443 783 LINE SMOOTH",
"451 769 OFFCURVE",
"451 751 OFFCURVE",
"443 737 CURVE SMOOTH"
);
},
{
closed = 1;
nodes = (
"560 46 OFFCURVE",
"558 31 OFFCURVE",
"550 18 CURVE",
"541 7 OFFCURVE",
"527 0 OFFCURVE",
"513 0 CURVE SMOOTH",
"483 0 LINE SMOOTH",
"463 0 OFFCURVE",
"446 13 OFFCURVE",
"440 31 CURVE SMOOTH",
"402 146 LINE SMOOTH",
"400 153 OFFCURVE",
"393 159 OFFCURVE",
"385 159 CURVE SMOOTH",
"213 159 LINE SMOOTH",
"205 159 OFFCURVE",
"198 153 OFFCURVE",
"195 146 CURVE SMOOTH",
"158 31 LINE SMOOTH",
"152 13 OFFCURVE",
"135 0 OFFCURVE",
"115 0 CURVE SMOOTH",
"85 0 LINE SMOOTH",
"71 0 OFFCURVE",
"57 7 OFFCURVE",
"48 18 CURVE",
"40 31 OFFCURVE",
"38 46 OFFCURVE",
"43 60 CURVE SMOOTH",
"236 644 LINE SMOOTH",
"243 664 OFFCURVE",
"260 676 OFFCURVE",
"279 676 CURVE SMOOTH",
"319 676 LINE SMOOTH",
"338 676 OFFCURVE",
"355 664 OFFCURVE",
"362 644 CURVE SMOOTH",
"555 60 LINE SMOOTH"
);
},
{
closed = 1;
nodes = (
"304 443 LINE SMOOTH",
"302 447 OFFCURVE",
"296 447 OFFCURVE",
"294 443 CURVE SMOOTH",
"244 289 LINE SMOOTH",
"241 283 OFFCURVE",
"246 277 OFFCURVE",
"252 277 CURVE SMOOTH",
"346 277 LINE SMOOTH",
"352 277 OFFCURVE",
"357 283 OFFCURVE",
"354 289 CURVE SMOOTH"
);
}
);
width = 598;
}
);
unicode = 00C2;
},
{
glyphname = Adieresis;
lastChange = "2020-11-04 22:21:30 +0000";
layers = (
{
layerId = master01;
paths = (
{
closed = 1;
nodes = (
"461 747 OFFCURVE",
"427 713 OFFCURVE",
"385 713 CURVE SMOOTH",
"344 713 OFFCURVE",
"311 747 OFFCURVE",
"311 789 CURVE SMOOTH",
"311 829 OFFCURVE",
"344 864 OFFCURVE",
"385 864 CURVE SMOOTH",
"427 864 OFFCURVE",
"461 829 OFFCURVE",
"461 789 CURVE SMOOTH"
);
},
{
closed = 1;
nodes = (
"287 747 OFFCURVE",
"254 713 OFFCURVE",
"213 713 CURVE SMOOTH",
"171 713 OFFCURVE",
"137 747 OFFCURVE",
"137 789 CURVE SMOOTH",
"137 829 OFFCURVE",
"171 864 OFFCURVE",
"213 864 CURVE SMOOTH",
"254 864 OFFCURVE",
"287 829 OFFCURVE",
"287 789 CURVE SMOOTH"
);
},
{
closed = 1;
nodes = (
"560 46 OFFCURVE",
"558 31 OFFCURVE",
"550 18 CURVE",
"541 7 OFFCURVE",
"527 0 OFFCURVE",
"513 0 CURVE SMOOTH",
"483 0 LINE SMOOTH",
"463 0 OFFCURVE",
"446 13 OFFCURVE",
"440 31 CURVE SMOOTH",
"402 146 LINE SMOOTH",
"400 153 OFFCURVE",
"393 159 OFFCURVE",
"385 159 CURVE SMOOTH",
"213 159 LINE SMOOTH",
"205 159 OFFCURVE",
"198 153 OFFCURVE",
"195 146 CURVE SMOOTH",
"158 31 LINE SMOOTH",
"152 13 OFFCURVE",
"135 0 OFFCURVE",
"115 0 CURVE SMOOTH",
"85 0 LINE SMOOTH",
"71 0 OFFCURVE",
"57 7 OFFCURVE",
"48 18 CURVE",
"40 31 OFFCURVE",
"38 46 OFFCURVE",
"43 60 CURVE SMOOTH",
"236 645 LINE",
"243 664 OFFCURVE",
"260 676 OFFCURVE",
"279 676 CURVE SMOOTH",
"319 676 LINE SMOOTH",
"338 676 OFFCURVE",
"355 664 OFFCURVE",
"362 645 CURVE",
"555 60 LINE SMOOTH"
);
},
{
closed = 1;
nodes = (
"304 443 LINE SMOOTH",
"302 447 OFFCURVE",
"296 447 OFFCURVE",
"294 443 CURVE SMOOTH",
"244 290 LINE SMOOTH",
"241 283 OFFCURVE",
"246 277 OFFCURVE",
"252 277 CURVE SMOOTH",
"346 277 LINE SMOOTH",
"352 277 OFFCURVE",
"357 283 OFFCURVE",
"354 290 CURVE SMOOTH"
);
}
);
width = 598;
}
);
unicode = 00C4;
},
{
glyphname = Agrave;
lastChange = "2020-11-04 22:21:30 +0000";
layers = (
{
layerId = master01;
paths = (
{
closed = 1;
nodes = (
"354 760 OFFCURVE",
"352 745 OFFCURVE",
"343 734 CURVE",
"335 721 OFFCURVE",
"321 714 OFFCURVE",
"306 714 CURVE SMOOTH",
"277 714 LINE SMOOTH",
"258 714 OFFCURVE",
"239 727 OFFCURVE",
"233 746 CURVE",
"210 816 LINE SMOOTH",
"206 830 OFFCURVE",
"208 845 OFFCURVE",
"216 857 CURVE SMOOTH",
"225 869 OFFCURVE",
"239 876 OFFCURVE",
"254 876 CURVE SMOOTH",
"283 876 LINE SMOOTH",
"302 876 OFFCURVE",
"320 864 OFFCURVE",
"325 845 CURVE SMOOTH",
"350 775 LINE SMOOTH"
);
},
{
closed = 1;
nodes = (
"561 46 OFFCURVE",
"559 31 OFFCURVE",
"550 18 CURVE SMOOTH",
"542 7 OFFCURVE",
"528 0 OFFCURVE",
"513 0 CURVE SMOOTH",
"484 0 LINE SMOOTH",
"465 0 OFFCURVE",
"447 13 OFFCURVE",
"440 31 CURVE",
"402 146 LINE SMOOTH",
"400 153 OFFCURVE",
"393 159 OFFCURVE",
"385 159 CURVE SMOOTH",
"214 159 LINE SMOOTH",
"206 159 OFFCURVE",
"199 153 OFFCURVE",
"197 146 CURVE SMOOTH",
"159 31 LINE",
"152 13 OFFCURVE",
"135 0 OFFCURVE",
"115 0 CURVE SMOOTH",
"86 0 LINE SMOOTH",
"71 0 OFFCURVE",
"57 7 OFFCURVE",
"49 18 CURVE SMOOTH",
"40 31 OFFCURVE",
"38 46 OFFCURVE",
"43 60 CURVE SMOOTH",
"237 644 LINE",
"243 664 OFFCURVE",
"260 676 OFFCURVE",
"279 676 CURVE SMOOTH",
"320 676 LINE SMOOTH",
"339 676 OFFCURVE",
"357 664 OFFCURVE",
"362 644 CURVE",
"557 60 LINE SMOOTH"
);
},
{
closed = 1;
nodes = (
"305 443 LINE",
"302 447 OFFCURVE",
"297 447 OFFCURVE",
"294 443 CURVE",
"244 290 LINE SMOOTH",
"241 283 OFFCURVE",
"246 277 OFFCURVE",
"253 277 CURVE SMOOTH",
"346 277 LINE SMOOTH",
"353 277 OFFCURVE",
"358 283 OFFCURVE",
"355 290 CURVE SMOOTH"
);
}
);
width = 599;
}
);
unicode = 00C0;
},
{
glyphname = Aring;
lastChange = "2020-11-04 22:21:30 +0000";
layers = (
{
layerId = master01;
paths = (
{
closed = 1;
nodes = (
"404 739 OFFCURVE",
"365 700 OFFCURVE",
"317 700 CURVE SMOOTH",
"282 700 LINE SMOOTH",
"235 700 OFFCURVE",
"195 739 OFFCURVE",
"195 788 CURVE",
"195 789 LINE",
"195 837 OFFCURVE",
"235 876 OFFCURVE",
"282 876 CURVE SMOOTH",
"317 876 LINE SMOOTH",
"365 876 OFFCURVE",
"404 837 OFFCURVE",
"404 789 CURVE",
"404 788 LINE"
);
},
{
closed = 1;
nodes = (
"561 46 OFFCURVE",
"559 31 OFFCURVE",
"550 18 CURVE SMOOTH",
"542 7 OFFCURVE",
"528 0 OFFCURVE",
"513 0 CURVE SMOOTH",
"484 0 LINE SMOOTH",
"465 0 OFFCURVE",
"447 13 OFFCURVE",
"440 31 CURVE",
"402 146 LINE SMOOTH",
"400 153 OFFCURVE",
"393 159 OFFCURVE",
"385 159 CURVE SMOOTH",
"214 159 LINE SMOOTH",
"206 159 OFFCURVE",
"199 153 OFFCURVE",
"197 146 CURVE SMOOTH",
"159 31 LINE",
"152 13 OFFCURVE",
"135 0 OFFCURVE",
"115 0 CURVE SMOOTH",
"86 0 LINE SMOOTH",
"71 0 OFFCURVE",
"57 7 OFFCURVE",
"49 18 CURVE SMOOTH",
"40 31 OFFCURVE",
"38 46 OFFCURVE",
"43 60 CURVE SMOOTH",
"237 644 LINE",
"243 664 OFFCURVE",
"260 676 OFFCURVE",
"279 676 CURVE SMOOTH",
"320 676 LINE SMOOTH",
"339 676 OFFCURVE",
"357 664 OFFCURVE",
"362 644 CURVE",
"557 60 LINE SMOOTH"
);
},
{
closed = 1;
nodes = (
"336 789 LINE",
"336 799 OFFCURVE",
"327 807 OFFCURVE",
"317 807 CURVE SMOOTH",
"282 807 LINE SMOOTH",
"273 807 OFFCURVE",
"263 799 OFFCURVE",
"263 789 CURVE",
"263 788 LINE",
"263 777 OFFCURVE",
"273 769 OFFCURVE",
"282 769 CURVE SMOOTH",
"317 769 LINE SMOOTH",
"327 769 OFFCURVE",
"336 777 OFFCURVE",
"336 788 CURVE"
);
},
{
closed = 1;
nodes = (
"305 443 LINE",
"302 447 OFFCURVE",
"297 447 OFFCURVE",
"294 443 CURVE",
"244 289 LINE SMOOTH",
"241 283 OFFCURVE",
"246 277 OFFCURVE",
"253 277 CURVE SMOOTH",
"346 277 LINE SMOOTH",
"353 277 OFFCURVE",
"358 283 OFFCURVE",
"355 289 CURVE SMOOTH"
);
}
);
width = 599;
}
);
unicode = 00C5;
},
{
glyphname = Atilde;
lastChange = "2020-11-04 22:21:30 +0000";
layers = (
{
layerId = master01;
paths = (
{
closed = 1;
nodes = (
"470 840 OFFCURVE",
"470 821 OFFCURVE",
"462 807 CURVE SMOOTH",
"421 737 LINE SMOOTH",
"413 723 OFFCURVE",
"398 714 OFFCURVE",
"381 714 CURVE SMOOTH",
"347 714 LINE SMOOTH",
"342 714 OFFCURVE",
"336 715 OFFCURVE",
"331 718 CURVE SMOOTH",
"267 743 LINE",
"260 746 OFFCURVE",
"252 743 OFFCURVE",
"247 737 CURVE",
"239 723 OFFCURVE",
"224 714 OFFCURVE",
"208 714 CURVE SMOOTH",
"177 714 LINE SMOOTH",
"161 714 OFFCURVE",
"145 723 OFFCURVE",
"137 737 CURVE SMOOTH",
"129 751 OFFCURVE",
"129 769 OFFCURVE",
"137 783 CURVE SMOOTH",
"178 853 LINE SMOOTH",
"186 867 OFFCURVE",
"201 876 OFFCURVE",
"217 876 CURVE SMOOTH",
"251 876 LINE SMOOTH",
"256 876 OFFCURVE",
"262 875 OFFCURVE",
"267 873 CURVE SMOOTH",
"332 846 LINE SMOOTH",
"339 844 OFFCURVE",
"347 846 OFFCURVE",
"351 853 CURVE SMOOTH",
"359 867 OFFCURVE",
"375 876 OFFCURVE",
"391 876 CURVE SMOOTH",
"422 876 LINE SMOOTH",
"438 876 OFFCURVE",
"454 867 OFFCURVE",
"462 853 CURVE SMOOTH"
);
},
{
closed = 1;
nodes = (
"561 46 OFFCURVE",
"559 31 OFFCURVE",
"550 18 CURVE SMOOTH",
"542 7 OFFCURVE",
"528 0 OFFCURVE",
"513 0 CURVE SMOOTH",
"484 0 LINE SMOOTH",
"465 0 OFFCURVE",
"447 13 OFFCURVE",
"440 31 CURVE",
"403 146 LINE SMOOTH",
"400 153 OFFCURVE",
"393 159 OFFCURVE",
"385 159 CURVE SMOOTH",
"214 159 LINE SMOOTH",
"206 159 OFFCURVE",
"199 153 OFFCURVE",
"197 146 CURVE SMOOTH",
"159 31 LINE",
"152 13 OFFCURVE",
"135 0 OFFCURVE",
"115 0 CURVE SMOOTH",
"86 0 LINE SMOOTH",
"71 0 OFFCURVE",
"58 7 OFFCURVE",
"49 18 CURVE SMOOTH",
"40 31 OFFCURVE",
"38 46 OFFCURVE",
"43 60 CURVE SMOOTH",
"237 644 LINE",
"243 664 OFFCURVE",
"260 676 OFFCURVE",
"279 676 CURVE SMOOTH",
"320 676 LINE SMOOTH",
"339 676 OFFCURVE",
"357 664 OFFCURVE",
"362 644 CURVE",
"557 60 LINE SMOOTH"
);
},
{
closed = 1;
nodes = (
"305 443 LINE",
"302 447 OFFCURVE",
"297 447 OFFCURVE",
"294 443 CURVE",
"244 289 LINE SMOOTH",
"242 283 OFFCURVE",
"246 277 OFFCURVE",
"253 277 CURVE SMOOTH",
"346 277 LINE SMOOTH",
"353 277 OFFCURVE",
"358 283 OFFCURVE",
"355 289 CURVE SMOOTH"
);
}
);
width = 599;
}
);
unicode = 00C3;
},
{
glyphname = AE;
lastChange = "2020-11-04 22:21:30 +0000";
layers = (
{
layerId = master01;
paths = (
{
closed = 1;
nodes = (
"850 21 OFFCURVE",
"830 0 OFFCURVE",
"805 0 CURVE SMOOTH",
"462 0 LINE SMOOTH",
"437 0 OFFCURVE",
"416 21 OFFCURVE",
"416 46 CURVE SMOOTH",
"416 145 LINE SMOOTH",
"416 153 OFFCURVE",
"411 159 OFFCURVE",
"404 159 CURVE SMOOTH",
"259 159 LINE SMOOTH",
"251 159 OFFCURVE",
"244 154 OFFCURVE",
"239 147 CURVE SMOOTH",
"158 21 LINE",
"148 8 OFFCURVE",
"135 0 OFFCURVE",
"118 0 CURVE SMOOTH",
"87 0 LINE SMOOTH",
"78 0 OFFCURVE",
"70 2 OFFCURVE",
"62 7 CURVE",
"62 8 LINE",
"40 22 OFFCURVE",
"35 49 OFFCURVE",
"48 71 CURVE SMOOTH",
"427 656 LINE SMOOTH",
"435 668 OFFCURVE",
"450 676 OFFCURVE",
"465 676 CURVE SMOOTH",
"805 676 LINE SMOOTH",
"816 676 OFFCURVE",
"828 670 OFFCURVE",
"837 662 CURVE SMOOTH",
"845 654 OFFCURVE",
"850 642 OFFCURVE",
"850 630 CURVE SMOOTH",
"850 603 LINE SMOOTH",
"850 577 OFFCURVE",
"830 557 OFFCURVE",
"805 557 CURVE SMOOTH",
"549 557 LINE SMOOTH",
"541 557 OFFCURVE",
"535 551 OFFCURVE",
"535 544 CURVE SMOOTH",
"535 411 LINE SMOOTH",
"535 402 OFFCURVE",
"541 397 OFFCURVE",
"549 397 CURVE SMOOTH",
"769 397 LINE SMOOTH",
"795 397 OFFCURVE",
"815 377 OFFCURVE",
"815 352 CURVE SMOOTH",
"815 324 LINE SMOOTH",
"815 299 OFFCURVE",
"795 278 OFFCURVE",
"769 278 CURVE SMOOTH",
"549 278 LINE SMOOTH",
"541 278 OFFCURVE",
"535 273 OFFCURVE",
"535 266 CURVE SMOOTH",
"535 131 LINE SMOOTH",
"535 124 OFFCURVE",
"541 118 OFFCURVE",
"549 118 CURVE SMOOTH",
"805 118 LINE SMOOTH",
"830 118 OFFCURVE",
"850 98 OFFCURVE",
"850 72 CURVE SMOOTH",
"850 46 LINE SMOOTH"
);
},
{
closed = 1;
nodes = (
"416 404 LINE SMOOTH",
"416 408 OFFCURVE",
"409 411 OFFCURVE",
"407 406 CURVE SMOOTH",
"330 287 LINE SMOOTH",
"327 283 OFFCURVE",
"330 277 OFFCURVE",
"336 277 CURVE SMOOTH",
"404 277 LINE SMOOTH",
"411 277 OFFCURVE",
"416 283 OFFCURVE",
"416 290 CURVE SMOOTH"
);
}
);
width = 891;
}
);
unicode = 00C6;
},
{
glyphname = B;
lastChange = "2020-11-04 22:21:30 +0000";
layers = (
{
layerId = master01;
paths = (
{
closed = 1;
nodes = (
"485 60 OFFCURVE",
"425 0 OFFCURVE",
"353 0 CURVE SMOOTH",
"86 0 LINE SMOOTH",
"61 0 OFFCURVE",
"40 21 OFFCURVE",
"40 46 CURVE SMOOTH",
"40 630 LINE SMOOTH",
"40 656 OFFCURVE",
"61 676 OFFCURVE",
"86 676 CURVE SMOOTH",
"339 676 LINE SMOOTH",
"412 676 OFFCURVE",
"471 616 OFFCURVE",
"471 543 CURVE SMOOTH",
"471 424 LINE SMOOTH",
"471 407 OFFCURVE",
"468 390 OFFCURVE",
"461 374 CURVE SMOOTH",
"458 367 OFFCURVE",
"459 359 OFFCURVE",
"463 352 CURVE SMOOTH",
"477 331 OFFCURVE",
"485 306 OFFCURVE",
"485 278 CURVE SMOOTH",
"485 132 LINE SMOOTH"
);
},
{
closed = 1;
nodes = (
"353 543 LINE SMOOTH",
"353 551 OFFCURVE",
"346 557 OFFCURVE",
"339 557 CURVE SMOOTH",
"173 557 LINE SMOOTH",
"166 557 OFFCURVE",
"160 551 OFFCURVE",
"160 544 CURVE SMOOTH",
"160 424 LINE SMOOTH",
"160 416 OFFCURVE",
"166 411 OFFCURVE",
"173 411 CURVE SMOOTH",
"339 411 LINE SMOOTH",
"346 411 OFFCURVE",
"353 417 OFFCURVE",
"353 424 CURVE SMOOTH"
);
},
{
closed = 1;
nodes = (
"366 278 LINE SMOOTH",
"366 286 OFFCURVE",
"360 292 OFFCURVE",
"353 292 CURVE SMOOTH",
"173 292 LINE SMOOTH",
"166 292 OFFCURVE",
"160 286 OFFCURVE",
"160 279 CURVE SMOOTH",
"160 131 LINE SMOOTH",
"160 124 OFFCURVE",
"166 118 OFFCURVE",
"173 118 CURVE SMOOTH",
"353 118 LINE SMOOTH",
"360 118 OFFCURVE",
"366 125 OFFCURVE",
"366 132 CURVE SMOOTH"
);
}
);
width = 526;
}
);
unicode = 0042;
},
{
glyphname = C;
lastChange = "2020-11-04 22:21:30 +0000";
layers = (
{
layerId = master01;
paths = (
{
closed = 1;
nodes = (
"485 60 OFFCURVE",
"425 0 OFFCURVE",
"353 0 CURVE SMOOTH",
"173 0 LINE SMOOTH",
"100 0 OFFCURVE",
"40 60 OFFCURVE",
"40 132 CURVE SMOOTH",
"40 543 LINE SMOOTH",
"40 616 OFFCURVE",
"100 676 OFFCURVE",
"173 676 CURVE SMOOTH",
"353 676 LINE SMOOTH",
"425 676 OFFCURVE",
"485 616 OFFCURVE",
"485 543 CURVE SMOOTH",
"485 516 LINE SMOOTH",
"485 491 OFFCURVE",
"465 471 OFFCURVE",
"439 471 CURVE SMOOTH",
"412 471 LINE SMOOTH",
"386 471 OFFCURVE",
"366 491 OFFCURVE",
"366 516 CURVE SMOOTH",
"366 543 LINE SMOOTH",
"366 551 OFFCURVE",
"360 557 OFFCURVE",
"353 557 CURVE SMOOTH",
"173 557 LINE SMOOTH",
"166 557 OFFCURVE",
"160 551 OFFCURVE",
"160 543 CURVE SMOOTH",
"160 132 LINE SMOOTH",
"160 125 OFFCURVE",
"166 118 OFFCURVE",
"173 118 CURVE SMOOTH",
"353 118 LINE SMOOTH",
"360 118 OFFCURVE",
"366 125 OFFCURVE",
"366 132 CURVE SMOOTH",
"366 162 LINE SMOOTH",
"366 187 OFFCURVE",
"386 208 OFFCURVE",
"412 208 CURVE SMOOTH",
"439 208 LINE SMOOTH",
"465 208 OFFCURVE",
"485 187 OFFCURVE",
"485 162 CURVE SMOOTH",
"485 132 LINE SMOOTH"
);
}
);
width = 526;
}
);
unicode = 0043;
},
{
glyphname = Ccedilla;
lastChange = "2020-11-04 22:21:30 +0000";
layers = (
{
layerId = master01;
paths = (
{
closed = 1;
nodes = (
"485 49 OFFCURVE",
"435 0 OFFCURVE",
"374 0 CURVE SMOOTH",
"328 0 LINE SMOOTH",
"323 0 OFFCURVE",
"319 -3 OFFCURVE",
"319 -9 CURVE SMOOTH",
"319 -14 OFFCURVE",
"323 -18 OFFCURVE",
"328 -18 CURVE SMOOTH",
"345 -18 LINE SMOOTH",
"398 -18 OFFCURVE",
"440 -61 OFFCURVE",
"440 -114 CURVE SMOOTH",
"440 -178 LINE SMOOTH",
"440 -231 OFFCURVE",
"398 -274 OFFCURVE",
"345 -274 CURVE SMOOTH",
"245 -274 LINE SMOOTH",
"220 -274 OFFCURVE",
"199 -253 OFFCURVE",
"199 -228 CURVE SMOOTH",
"199 -201 LINE SMOOTH",
"199 -176 OFFCURVE",
"220 -155 OFFCURVE",
"245 -155 CURVE SMOOTH",
"312 -155 LINE SMOOTH",
"317 -155 OFFCURVE",
"321 -151 OFFCURVE",
"321 -146 CURVE SMOOTH",
"321 -140 OFFCURVE",
"317 -137 OFFCURVE",
"312 -137 CURVE SMOOTH",
"246 -137 LINE SMOOTH",
"221 -137 OFFCURVE",
"200 -116 OFFCURVE",
"200 -91 CURVE SMOOTH",
"200 -13 LINE SMOOTH",
"200 -6 OFFCURVE",
"194 0 OFFCURVE",
"187 0 CURVE SMOOTH",
"152 0 LINE SMOOTH",
"91 0 OFFCURVE",
"40 49 OFFCURVE",
"40 112 CURVE SMOOTH",
"40 565 LINE SMOOTH",
"40 626 OFFCURVE",
"91 676 OFFCURVE",
"152 676 CURVE SMOOTH",
"374 676 LINE SMOOTH",
"435 676 OFFCURVE",
"485 626 OFFCURVE",
"485 565 CURVE SMOOTH",
"485 472 LINE SMOOTH",
"485 446 OFFCURVE",
"465 427 OFFCURVE",
"439 427 CURVE SMOOTH",
"412 427 LINE SMOOTH",
"386 427 OFFCURVE",
"366 446 OFFCURVE",
"366 472 CURVE SMOOTH",
"366 544 LINE SMOOTH",
"366 552 OFFCURVE",
"360 558 OFFCURVE",
"353 558 CURVE SMOOTH",
"173 558 LINE SMOOTH",
"166 558 OFFCURVE",
"160 552 OFFCURVE",
"160 544 CURVE SMOOTH",
"160 132 LINE SMOOTH",
"160 124 OFFCURVE",
"166 118 OFFCURVE",
"173 118 CURVE SMOOTH",
"353 118 LINE SMOOTH",
"360 118 OFFCURVE",
"366 124 OFFCURVE",
"366 132 CURVE SMOOTH",
"366 204 LINE SMOOTH",
"366 229 OFFCURVE",
"386 250 OFFCURVE",
"412 250 CURVE SMOOTH",
"439 250 LINE SMOOTH",
"465 250 OFFCURVE",
"485 229 OFFCURVE",
"485 204 CURVE SMOOTH",
"485 112 LINE SMOOTH"
);
}
);
width = 526;
}
);
unicode = 00C7;
},
{
glyphname = D;
lastChange = "2020-11-04 22:21:30 +0000";
layers = (
{
layerId = master01;
paths = (
{
closed = 1;
nodes = (
"485 60 OFFCURVE",
"425 0 OFFCURVE",
"353 0 CURVE SMOOTH",
"86 0 LINE SMOOTH",
"61 0 OFFCURVE",
"40 21 OFFCURVE",
"40 46 CURVE SMOOTH",
"40 630 LINE SMOOTH",
"40 656 OFFCURVE",
"61 676 OFFCURVE",
"86 676 CURVE SMOOTH",
"353 676 LINE SMOOTH",
"425 676 OFFCURVE",
"485 616 OFFCURVE",
"485 543 CURVE SMOOTH",
"485 132 LINE SMOOTH"
);
},
{
closed = 1;
nodes = (
"366 543 LINE SMOOTH",
"366 551 OFFCURVE",
"360 557 OFFCURVE",
"353 557 CURVE SMOOTH",
"173 557 LINE SMOOTH",
"166 557 OFFCURVE",
"160 551 OFFCURVE",
"160 544 CURVE SMOOTH",
"160 131 LINE SMOOTH",
"160 124 OFFCURVE",
"166 118 OFFCURVE",
"173 118 CURVE SMOOTH",
"353 118 LINE SMOOTH",
"360 118 OFFCURVE",
"366 125 OFFCURVE",
"366 132 CURVE SMOOTH"
);
}
);
width = 526;
}
);
unicode = 0044;
},
{
glyphname = Eth;
lastChange = "2020-11-04 22:21:30 +0000";
layers = (
{
layerId = master01;
paths = (
{
closed = 1;
nodes = (
"542 60 OFFCURVE",
"482 0 OFFCURVE",
"409 0 CURVE SMOOTH",
"143 0 LINE SMOOTH",
"117 0 OFFCURVE",
"97 21 OFFCURVE",
"97 46 CURVE SMOOTH",
"97 266 LINE SMOOTH",
"97 273 OFFCURVE",
"91 278 OFFCURVE",
"84 278 CURVE",
"60 279 OFFCURVE",
"39 299 OFFCURVE",
"39 324 CURVE SMOOTH",
"39 352 LINE SMOOTH",
"39 376 OFFCURVE",
"60 397 OFFCURVE",
"84 397 CURVE SMOOTH",
"91 397 OFFCURVE",
"97 402 OFFCURVE",
"97 411 CURVE SMOOTH",
"97 630 LINE SMOOTH",
"97 656 OFFCURVE",
"117 676 OFFCURVE",
"143 676 CURVE SMOOTH",
"409 676 LINE SMOOTH",
"482 676 OFFCURVE",
"542 616 OFFCURVE",
"542 543 CURVE SMOOTH",
"542 132 LINE SMOOTH"
);
},
{
closed = 1;
nodes = (
"422 543 LINE SMOOTH",
"422 551 OFFCURVE",
"416 557 OFFCURVE",
"409 557 CURVE SMOOTH",
"229 557 LINE SMOOTH",
"222 557 OFFCURVE",
"216 551 OFFCURVE",
"216 544 CURVE SMOOTH",
"216 411 LINE SMOOTH",
"216 402 OFFCURVE",
"222 397 OFFCURVE",
"229 397 CURVE SMOOTH",
"253 397 OFFCURVE",
"274 376 OFFCURVE",
"274 352 CURVE SMOOTH",
"274 324 LINE SMOOTH",
"274 299 OFFCURVE",
"253 279 OFFCURVE",
"229 278 CURVE",
"222 278 OFFCURVE",
"216 273 OFFCURVE",
"216 266 CURVE SMOOTH",
"216 131 LINE SMOOTH",
"216 124 OFFCURVE",
"222 118 OFFCURVE",
"229 118 CURVE SMOOTH",
"409 118 LINE SMOOTH",
"416 118 OFFCURVE",
"422 125 OFFCURVE",
"422 132 CURVE SMOOTH"
);
}
);
width = 581;
}
);
unicode = 00D0;
},
{
glyphname = E;
lastChange = "2020-11-04 22:21:30 +0000";
layers = (
{
layerId = master01;
paths = (
{
closed = 1;
nodes = (
"474 21 OFFCURVE",
"453 0 OFFCURVE",
"429 0 CURVE SMOOTH",
"85 0 LINE SMOOTH",
"61 0 OFFCURVE",
"40 21 OFFCURVE",
"40 46 CURVE SMOOTH",
"40 630 LINE SMOOTH",
"40 656 OFFCURVE",
"61 676 OFFCURVE",
"85 676 CURVE SMOOTH",
"429 676 LINE SMOOTH",
"453 676 OFFCURVE",
"474 656 OFFCURVE",
"474 630 CURVE SMOOTH",
"474 603 LINE SMOOTH",
"474 577 OFFCURVE",
"453 557 OFFCURVE",
"429 557 CURVE SMOOTH",
"171 557 LINE SMOOTH",
"164 557 OFFCURVE",
"159 551 OFFCURVE",
"159 544 CURVE SMOOTH",
"159 411 LINE SMOOTH",
"159 402 OFFCURVE",
"164 397 OFFCURVE",
"171 397 CURVE SMOOTH",
"393 397 LINE SMOOTH",
"419 397 OFFCURVE",
"439 377 OFFCURVE",
"439 352 CURVE SMOOTH",
"439 324 LINE SMOOTH",
"439 299 OFFCURVE",
"419 278 OFFCURVE",
"393 278 CURVE SMOOTH",
"171 278 LINE SMOOTH",
"164 278 OFFCURVE",
"159 273 OFFCURVE",
"159 266 CURVE SMOOTH",
"159 131 LINE SMOOTH",
"159 124 OFFCURVE",
"164 118 OFFCURVE",
"171 118 CURVE SMOOTH",
"429 118 LINE SMOOTH",
"453 118 OFFCURVE",
"474 98 OFFCURVE",
"474 72 CURVE SMOOTH",
"474 46 LINE SMOOTH"
);
}
);
width = 514;
}
);
unicode = 0045;
},
{
glyphname = Eacute;
lastChange = "2020-11-04 22:21:30 +0000";
layers = (
{
layerId = master01;
paths = (
{
closed = 1;
nodes = (
"304 746 LINE SMOOTH",
"297 727 OFFCURVE",
"279 714 OFFCURVE",
"260 714 CURVE SMOOTH",
"231 714 LINE SMOOTH",
"216 714 OFFCURVE",
"202 721 OFFCURVE",
"194 734 CURVE",
"185 745 OFFCURVE",
"183 760 OFFCURVE",
"187 774 CURVE SMOOTH",
"210 845 LINE",
"217 864 OFFCURVE",
"235 876 OFFCURVE",
"254 876 CURVE SMOOTH",
"283 876 LINE SMOOTH",
"298 876 OFFCURVE",
"312 869 OFFCURVE",
"320 857 CURVE",
"329 845 OFFCURVE",
"331 830 OFFCURVE",
"327 816 CURVE SMOOTH"
);
},
{
closed = 1;
nodes = (
"474 21 OFFCURVE",
"453 0 OFFCURVE",
"429 0 CURVE SMOOTH",
"86 0 LINE SMOOTH",
"61 0 OFFCURVE",
"40 21 OFFCURVE",
"40 46 CURVE SMOOTH",
"40 630 LINE SMOOTH",
"40 656 OFFCURVE",
"61 675 OFFCURVE",
"86 675 CURVE SMOOTH",
"429 675 LINE SMOOTH",
"453 675 OFFCURVE",
"474 656 OFFCURVE",
"474 630 CURVE SMOOTH",
"474 603 LINE SMOOTH",
"474 577 OFFCURVE",
"453 557 OFFCURVE",
"429 557 CURVE SMOOTH",
"171 557 LINE SMOOTH",
"164 557 OFFCURVE",
"159 551 OFFCURVE",
"159 544 CURVE SMOOTH",
"159 411 LINE SMOOTH",
"159 402 OFFCURVE",
"164 397 OFFCURVE",
"171 397 CURVE SMOOTH",
"393 397 LINE SMOOTH",
"419 397 OFFCURVE",
"439 377 OFFCURVE",
"439 352 CURVE SMOOTH",
"439 324 LINE SMOOTH",
"439 299 OFFCURVE",
"419 278 OFFCURVE",
"393 278 CURVE SMOOTH",
"171 278 LINE SMOOTH",
"164 278 OFFCURVE",
"159 273 OFFCURVE",
"159 266 CURVE SMOOTH",
"159 131 LINE SMOOTH",
"159 124 OFFCURVE",
"164 118 OFFCURVE",
"171 118 CURVE SMOOTH",
"429 118 LINE SMOOTH",
"453 118 OFFCURVE",
"474 98 OFFCURVE",
"474 72 CURVE SMOOTH",
"474 46 LINE SMOOTH"
);
}
);
width = 514;
}
);
unicode = 00C9;
},
{
glyphname = Ecircumflex;
lastChange = "2020-11-04 22:21:30 +0000";
layers = (
{
layerId = master01;
paths = (
{
closed = 1;
nodes = (
"392 723 OFFCURVE",
"377 714 OFFCURVE",
"361 714 CURVE SMOOTH",
"329 714 LINE SMOOTH",
"313 714 OFFCURVE",
"298 723 OFFCURVE",
"290 737 CURVE SMOOTH",
"284 746 LINE",
"281 753 OFFCURVE",
"274 758 OFFCURVE",
"266 758 CURVE SMOOTH",
"248 758 LINE SMOOTH",
"240 758 OFFCURVE",
"233 753 OFFCURVE",
"230 746 CURVE",
"224 737 LINE SMOOTH",
"216 723 OFFCURVE",
"201 714 OFFCURVE",
"185 714 CURVE SMOOTH",
"153 714 LINE SMOOTH",
"137 714 OFFCURVE",
"122 723 OFFCURVE",
"114 737 CURVE SMOOTH",
"106 751 OFFCURVE",
"106 769 OFFCURVE",
"114 783 CURVE SMOOTH",
"154 853 LINE SMOOTH",
"162 867 OFFCURVE",
"177 876 OFFCURVE",
"193 876 CURVE SMOOTH",
"321 876 LINE SMOOTH",
"337 876 OFFCURVE",
"352 867 OFFCURVE",
"360 853 CURVE SMOOTH",
"400 783 LINE SMOOTH",
"408 769 OFFCURVE",
"408 751 OFFCURVE",
"400 737 CURVE SMOOTH"
);
},
{
closed = 1;
nodes = (
"474 21 OFFCURVE",
"453 0 OFFCURVE",
"428 0 CURVE SMOOTH",
"86 0 LINE SMOOTH",
"61 0 OFFCURVE",
"40 21 OFFCURVE",
"40 46 CURVE SMOOTH",
"40 630 LINE SMOOTH",
"40 656 OFFCURVE",
"61 675 OFFCURVE",
"86 675 CURVE SMOOTH",
"428 675 LINE SMOOTH",
"453 675 OFFCURVE",
"474 656 OFFCURVE",
"474 630 CURVE SMOOTH",
"474 603 LINE SMOOTH",
"474 577 OFFCURVE",
"453 557 OFFCURVE",
"428 557 CURVE SMOOTH",
"171 557 LINE SMOOTH",
"164 557 OFFCURVE",
"159 551 OFFCURVE",
"159 544 CURVE SMOOTH",
"159 411 LINE SMOOTH",
"159 402 OFFCURVE",
"164 397 OFFCURVE",
"171 397 CURVE SMOOTH",
"393 397 LINE SMOOTH",
"419 397 OFFCURVE",
"439 377 OFFCURVE",
"439 352 CURVE SMOOTH",
"439 324 LINE SMOOTH",
"439 299 OFFCURVE",
"419 278 OFFCURVE",
"393 278 CURVE SMOOTH",
"171 278 LINE SMOOTH",
"164 278 OFFCURVE",
"159 273 OFFCURVE",
"159 266 CURVE SMOOTH",
"159 131 LINE SMOOTH",
"159 124 OFFCURVE",
"164 118 OFFCURVE",
"171 118 CURVE SMOOTH",
"428 118 LINE SMOOTH",
"453 118 OFFCURVE",
"474 98 OFFCURVE",
"474 72 CURVE SMOOTH",
"474 46 LINE SMOOTH"
);
}
);
width = 514;
}
);
unicode = 00CA;
},
{
glyphname = Edieresis;
lastChange = "2020-11-04 22:21:30 +0000";
layers = (
{
layerId = master01;
paths = (
{
closed = 1;
nodes = (
"419 747 OFFCURVE",
"385 713 OFFCURVE",
"344 713 CURVE SMOOTH",
"302 713 OFFCURVE",
"269 747 OFFCURVE",
"269 789 CURVE SMOOTH",
"269 830 OFFCURVE",
"302 864 OFFCURVE",
"344 864 CURVE SMOOTH",
"385 864 OFFCURVE",
"419 830 OFFCURVE",
"419 789 CURVE SMOOTH"
);
},
{
closed = 1;
nodes = (
"245 747 OFFCURVE",
"212 713 OFFCURVE",
"170 713 CURVE SMOOTH",
"129 713 OFFCURVE",
"95 747 OFFCURVE",
"95 789 CURVE SMOOTH",
"95 830 OFFCURVE",
"129 864 OFFCURVE",
"170 864 CURVE SMOOTH",
"212 864 OFFCURVE",
"245 830 OFFCURVE",
"245 789 CURVE SMOOTH"
);
},
{
closed = 1;
nodes = (
"474 21 OFFCURVE",
"453 0 OFFCURVE",
"429 0 CURVE SMOOTH",
"85 0 LINE SMOOTH",
"61 0 OFFCURVE",
"40 21 OFFCURVE",
"40 46 CURVE SMOOTH",
"40 630 LINE SMOOTH",
"40 656 OFFCURVE",
"61 676 OFFCURVE",
"85 676 CURVE SMOOTH",
"429 676 LINE SMOOTH",
"453 676 OFFCURVE",
"474 656 OFFCURVE",
"474 630 CURVE SMOOTH",
"474 603 LINE SMOOTH",
"474 577 OFFCURVE",
"453 557 OFFCURVE",
"429 557 CURVE SMOOTH",
"171 557 LINE SMOOTH",
"164 557 OFFCURVE",
"159 551 OFFCURVE",
"159 544 CURVE SMOOTH",
"159 411 LINE SMOOTH",
"159 402 OFFCURVE",
"164 397 OFFCURVE",
"171 397 CURVE SMOOTH",
"393 397 LINE SMOOTH",
"419 397 OFFCURVE",
"439 377 OFFCURVE",
"439 352 CURVE SMOOTH",
"439 324 LINE SMOOTH",
"439 299 OFFCURVE",
"419 278 OFFCURVE",
"393 278 CURVE SMOOTH",
"171 278 LINE SMOOTH",
"164 278 OFFCURVE",
"159 273 OFFCURVE",
"159 266 CURVE SMOOTH",
"159 131 LINE SMOOTH",
"159 124 OFFCURVE",
"164 118 OFFCURVE",
"171 118 CURVE SMOOTH",
"429 118 LINE SMOOTH",
"453 118 OFFCURVE",
"474 98 OFFCURVE",
"474 72 CURVE SMOOTH",
"474 46 LINE SMOOTH"
);
}
);
width = 514;
}
);
unicode = 00CB;
},
{
glyphname = Egrave;
lastChange = "2020-11-04 22:21:30 +0000";
layers = (
{
layerId = master01;
paths = (
{
closed = 1;
nodes = (
"322 760 OFFCURVE",
"320 745 OFFCURVE",
"312 734 CURVE SMOOTH",
"302 721 OFFCURVE",
"289 714 OFFCURVE",
"275 714 CURVE SMOOTH",
"246 714 LINE SMOOTH",
"225 714 OFFCURVE",
"208 727 OFFCURVE",
"202 746 CURVE",
"179 816 LINE SMOOTH",
"175 830 OFFCURVE",
"177 845 OFFCURVE",
"185 857 CURVE SMOOTH",
"194 869 OFFCURVE",
"208 876 OFFCURVE",
"222 876 CURVE SMOOTH",
"251 876 LINE SMOOTH",
"271 876 OFFCURVE",
"289 864 OFFCURVE",
"294 845 CURVE SMOOTH",
"317 775 LINE SMOOTH"
);
},
{
closed = 1;
nodes = (
"474 21 OFFCURVE",
"453 0 OFFCURVE",
"429 0 CURVE SMOOTH",
"86 0 LINE SMOOTH",
"61 0 OFFCURVE",
"40 21 OFFCURVE",
"40 46 CURVE SMOOTH",
"40 630 LINE SMOOTH",
"40 656 OFFCURVE",
"61 676 OFFCURVE",
"86 676 CURVE SMOOTH",
"429 676 LINE SMOOTH",
"453 676 OFFCURVE",
"474 656 OFFCURVE",
"474 630 CURVE SMOOTH",
"474 603 LINE SMOOTH",
"474 577 OFFCURVE",
"453 557 OFFCURVE",
"429 557 CURVE SMOOTH",
"171 557 LINE SMOOTH",
"164 557 OFFCURVE",
"159 551 OFFCURVE",
"159 544 CURVE SMOOTH",
"159 411 LINE SMOOTH",
"159 402 OFFCURVE",
"164 397 OFFCURVE",
"171 397 CURVE SMOOTH",
"393 397 LINE SMOOTH",
"419 397 OFFCURVE",
"439 377 OFFCURVE",
"439 352 CURVE SMOOTH",
"439 324 LINE SMOOTH",
"439 299 OFFCURVE",
"419 278 OFFCURVE",
"393 278 CURVE SMOOTH",
"171 278 LINE SMOOTH",
"164 278 OFFCURVE",
"159 273 OFFCURVE",
"159 266 CURVE SMOOTH",
"159 131 LINE SMOOTH",
"159 124 OFFCURVE",
"164 118 OFFCURVE",
"171 118 CURVE SMOOTH",
"429 118 LINE SMOOTH",
"453 118 OFFCURVE",
"474 98 OFFCURVE",
"474 72 CURVE SMOOTH",
"474 46 LINE SMOOTH"
);
}
);
width = 514;
}
);
unicode = 00C8;
},
{
glyphname = F;
lastChange = "2020-11-04 22:21:30 +0000";
layers = (
{
layerId = master01;
paths = (
{
closed = 1;
nodes = (
"474 577 OFFCURVE",
"453 557 OFFCURVE",
"429 557 CURVE SMOOTH",
"171 557 LINE SMOOTH",
"164 557 OFFCURVE",
"159 551 OFFCURVE",
"159 544 CURVE SMOOTH",
"159 411 LINE SMOOTH",
"159 402 OFFCURVE",
"164 397 OFFCURVE",
"171 397 CURVE SMOOTH",
"393 397 LINE SMOOTH",
"419 397 OFFCURVE",
"439 377 OFFCURVE",
"439 352 CURVE SMOOTH",
"439 324 LINE SMOOTH",
"439 299 OFFCURVE",
"419 278 OFFCURVE",
"393 278 CURVE SMOOTH",
"171 278 LINE SMOOTH",
"164 278 OFFCURVE",
"159 273 OFFCURVE",
"159 266 CURVE SMOOTH",
"159 46 LINE SMOOTH",
"159 21 OFFCURVE",
"138 0 OFFCURVE",
"113 0 CURVE SMOOTH",
"85 0 LINE SMOOTH",
"61 0 OFFCURVE",
"40 21 OFFCURVE",
"40 46 CURVE SMOOTH",
"40 630 LINE SMOOTH",
"40 656 OFFCURVE",
"61 676 OFFCURVE",
"85 676 CURVE SMOOTH",
"429 676 LINE SMOOTH",
"453 676 OFFCURVE",
"474 656 OFFCURVE",
"474 630 CURVE SMOOTH",
"474 603 LINE SMOOTH"
);
}
);
width = 514;
}
);
unicode = 0046;
},
{
glyphname = G;
lastChange = "2020-11-04 22:21:30 +0000";
layers = (
{
layerId = master01;
paths = (
{
closed = 1;
nodes = (
"498 60 OFFCURVE",
"438 0 OFFCURVE",
"366 0 CURVE SMOOTH",
"174 0 LINE SMOOTH",
"101 0 OFFCURVE",
"41 60 OFFCURVE",
"41 132 CURVE SMOOTH",
"41 543 LINE SMOOTH",
"41 616 OFFCURVE",
"101 676 OFFCURVE",
"174 676 CURVE SMOOTH",
"366 676 LINE SMOOTH",
"438 676 OFFCURVE",
"498 616 OFFCURVE",
"498 543 CURVE SMOOTH",
"498 516 LINE SMOOTH",
"498 491 OFFCURVE",
"477 471 OFFCURVE",
"452 471 CURVE SMOOTH",
"425 471 LINE SMOOTH",
"400 471 OFFCURVE",
"379 491 OFFCURVE",
"379 516 CURVE SMOOTH",
"379 543 LINE SMOOTH",
"379 551 OFFCURVE",
"373 557 OFFCURVE",
"366 557 CURVE SMOOTH",
"174 557 LINE SMOOTH",
"167 557 OFFCURVE",
"160 551 OFFCURVE",
"160 543 CURVE SMOOTH",
"160 132 LINE SMOOTH",
"160 125 OFFCURVE",
"167 118 OFFCURVE",
"174 118 CURVE SMOOTH",
"366 118 LINE SMOOTH",
"373 118 OFFCURVE",
"379 125 OFFCURVE",
"379 132 CURVE SMOOTH",
"379 266 LINE SMOOTH",
"379 273 OFFCURVE",
"374 278 OFFCURVE",
"367 278 CURVE SMOOTH",
"296 278 LINE SMOOTH",
"270 278 OFFCURVE",
"250 299 OFFCURVE",
"250 324 CURVE SMOOTH",
"250 352 LINE SMOOTH",
"250 377 OFFCURVE",
"270 397 OFFCURVE",
"296 397 CURVE SMOOTH",
"452 397 LINE SMOOTH",
"477 397 OFFCURVE",
"498 377 OFFCURVE",
"498 352 CURVE SMOOTH",
"498 132 LINE SMOOTH"
);
}
);
width = 539;
}
);
unicode = 0047;
},
{
glyphname = H;
lastChange = "2020-11-04 22:21:30 +0000";
layers = (
{
layerId = master01;
paths = (
{
closed = 1;
nodes = (
"485 21 OFFCURVE",
"465 0 OFFCURVE",
"439 0 CURVE SMOOTH",
"412 0 LINE SMOOTH",
"386 0 OFFCURVE",
"366 21 OFFCURVE",
"366 46 CURVE SMOOTH",
"366 266 LINE SMOOTH",
"366 273 OFFCURVE",
"360 278 OFFCURVE",
"353 278 CURVE SMOOTH",
"173 278 LINE SMOOTH",
"166 278 OFFCURVE",
"160 273 OFFCURVE",
"160 266 CURVE SMOOTH",
"160 46 LINE SMOOTH",
"160 21 OFFCURVE",
"139 0 OFFCURVE",
"114 0 CURVE SMOOTH",
"86 0 LINE SMOOTH",
"61 0 OFFCURVE",
"40 21 OFFCURVE",
"40 46 CURVE SMOOTH",
"40 630 LINE SMOOTH",
"40 656 OFFCURVE",
"61 676 OFFCURVE",
"86 676 CURVE SMOOTH",
"114 676 LINE SMOOTH",
"139 676 OFFCURVE",
"160 656 OFFCURVE",
"160 630 CURVE SMOOTH",
"160 411 LINE SMOOTH",
"160 402 OFFCURVE",
"166 397 OFFCURVE",
"173 397 CURVE SMOOTH",
"353 397 LINE SMOOTH",
"360 397 OFFCURVE",
"366 402 OFFCURVE",
"366 411 CURVE SMOOTH",
"366 630 LINE SMOOTH",
"366 656 OFFCURVE",
"386 676 OFFCURVE",
"412 676 CURVE SMOOTH",
"439 676 LINE SMOOTH",
"465 676 OFFCURVE",
"485 656 OFFCURVE",
"485 630 CURVE SMOOTH",
"485 46 LINE SMOOTH"
);
}
);
width = 526;
}
);
unicode = 0048;
},
{
glyphname = I;
lastChange = "2020-11-04 22:21:30 +0000";
layers = (
{
layerId = master01;
paths = (
{
closed = 1;
nodes = (
"160 21 OFFCURVE",
"139 0 OFFCURVE",
"114 0 CURVE SMOOTH",
"87 0 LINE SMOOTH",
"62 0 OFFCURVE",
"41 21 OFFCURVE",
"41 46 CURVE SMOOTH",
"41 630 LINE SMOOTH",
"41 656 OFFCURVE",
"62 676 OFFCURVE",
"87 676 CURVE SMOOTH",
"114 676 LINE SMOOTH",
"139 676 OFFCURVE",
"160 656 OFFCURVE",
"160 630 CURVE SMOOTH",
"160 46 LINE SMOOTH"
);
}
);
width = 201;
}
);
unicode = 0049;
},
{
glyphname = Iacute;
lastChange = "2020-11-04 22:21:30 +0000";
layers = (
{
layerId = master01;
paths = (
{
closed = 1;
nodes = (
"159 746 LINE",
"153 727 OFFCURVE",
"136 714 OFFCURVE",
"115 714 CURVE SMOOTH",
"86 714 LINE SMOOTH",
"72 714 OFFCURVE",
"59 721 OFFCURVE",
"49 734 CURVE SMOOTH",
"41 745 OFFCURVE",
"39 760 OFFCURVE",
"44 774 CURVE SMOOTH",
"67 845 LINE SMOOTH",
"72 864 OFFCURVE",
"90 876 OFFCURVE",
"110 876 CURVE SMOOTH",
"139 876 LINE SMOOTH",
"153 876 OFFCURVE",
"167 869 OFFCURVE",
"176 857 CURVE SMOOTH",
"184 845 OFFCURVE",
"186 830 OFFCURVE",
"182 816 CURVE SMOOTH"
);
},
{
closed = 1;
nodes = (
"160 21 OFFCURVE",
"139 0 OFFCURVE",
"114 0 CURVE SMOOTH",
"86 0 LINE SMOOTH",
"61 0 OFFCURVE",
"41 21 OFFCURVE",
"41 46 CURVE SMOOTH",
"41 630 LINE SMOOTH",
"41 656 OFFCURVE",
"61 675 OFFCURVE",
"86 675 CURVE SMOOTH",
"114 675 LINE SMOOTH",
"139 675 OFFCURVE",
"160 656 OFFCURVE",
"160 630 CURVE SMOOTH",
"160 46 LINE SMOOTH"
);
}
);
width = 232;
}
);
unicode = 00CD;
},
{
glyphname = Icircumflex;
lastChange = "2020-11-04 22:21:30 +0000";
layers = (
{
layerId = master01;
paths = (
{
closed = 1;
nodes = (
"325 723 OFFCURVE",
"311 714 OFFCURVE",
"294 714 CURVE SMOOTH",
"262 714 LINE SMOOTH",
"246 714 OFFCURVE",
"231 723 OFFCURVE",
"223 737 CURVE SMOOTH",
"217 746 LINE",
"214 753 OFFCURVE",
"206 758 OFFCURVE",
"199 758 CURVE SMOOTH",
"182 758 LINE SMOOTH",
"174 758 OFFCURVE",
"167 753 OFFCURVE",
"163 746 CURVE",
"158 737 LINE SMOOTH",
"150 723 OFFCURVE",
"135 714 OFFCURVE",
"118 714 CURVE SMOOTH",
"86 714 LINE SMOOTH",
"70 714 OFFCURVE",
"55 723 OFFCURVE",
"47 737 CURVE SMOOTH",
"39 751 OFFCURVE",
"39 768 OFFCURVE",
"47 783 CURVE SMOOTH",
"87 853 LINE SMOOTH",
"95 867 OFFCURVE",
"110 876 OFFCURVE",
"127 876 CURVE SMOOTH",
"254 876 LINE SMOOTH",
"270 876 OFFCURVE",
"285 867 OFFCURVE",
"293 853 CURVE SMOOTH",
"334 783 LINE SMOOTH",
"342 769 OFFCURVE",
"342 751 OFFCURVE",
"334 737 CURVE SMOOTH"
);
},
{
closed = 1;
nodes = (
"250 21 OFFCURVE",
"229 0 OFFCURVE",
"204 0 CURVE SMOOTH",
"177 0 LINE SMOOTH",
"152 0 OFFCURVE",
"131 21 OFFCURVE",
"131 46 CURVE SMOOTH",
"131 630 LINE SMOOTH",
"131 656 OFFCURVE",
"152 675 OFFCURVE",
"177 675 CURVE SMOOTH",
"204 675 LINE SMOOTH",
"229 675 OFFCURVE",
"250 656 OFFCURVE",
"250 630 CURVE SMOOTH",
"250 46 LINE SMOOTH"
);
}
);
width = 381;
}
);
unicode = 00CE;
},
{
glyphname = Idieresis;
lastChange = "2020-11-04 22:21:30 +0000";
layers = (
{
layerId = master01;
paths = (
{
closed = 1;
nodes = (
"363 747 OFFCURVE",
"330 713 OFFCURVE",
"289 713 CURVE SMOOTH",
"247 713 OFFCURVE",
"214 747 OFFCURVE",
"214 789 CURVE SMOOTH",
"214 829 OFFCURVE",
"247 864 OFFCURVE",
"289 864 CURVE SMOOTH",
"330 864 OFFCURVE",
"363 829 OFFCURVE",
"363 789 CURVE SMOOTH"
);
},
{
closed = 1;
nodes = (
"190 747 OFFCURVE",
"156 713 OFFCURVE",
"115 713 CURVE SMOOTH",
"74 713 OFFCURVE",
"40 747 OFFCURVE",
"40 789 CURVE SMOOTH",
"40 829 OFFCURVE",
"74 864 OFFCURVE",
"115 864 CURVE SMOOTH",
"156 864 OFFCURVE",
"190 829 OFFCURVE",
"190 789 CURVE SMOOTH"
);
},
{
closed = 1;
nodes = (
"261 21 OFFCURVE",
"240 0 OFFCURVE",
"215 0 CURVE SMOOTH",
"189 0 LINE SMOOTH",
"163 0 OFFCURVE",
"143 21 OFFCURVE",
"143 46 CURVE SMOOTH",
"143 630 LINE SMOOTH",
"143 656 OFFCURVE",
"163 676 OFFCURVE",
"189 676 CURVE SMOOTH",
"215 676 LINE SMOOTH",
"240 676 OFFCURVE",
"261 656 OFFCURVE",
"261 630 CURVE SMOOTH",
"261 46 LINE SMOOTH"
);
}
);
width = 404;
}
);
unicode = 00CF;
},
{
glyphname = Igrave;
lastChange = "2020-11-04 22:21:30 +0000";
layers = (
{
layerId = master01;
paths = (
{
closed = 1;
nodes = (
"187 760 OFFCURVE",
"185 745 OFFCURVE",
"176 734 CURVE",
"168 721 OFFCURVE",
"154 714 OFFCURVE",
"139 714 CURVE SMOOTH",
"110 714 LINE SMOOTH",
"91 714 OFFCURVE",
"74 727 OFFCURVE",
"67 746 CURVE SMOOTH",
"44 816 LINE SMOOTH",
"39 830 OFFCURVE",
"41 845 OFFCURVE",
"51 857 CURVE",
"59 869 OFFCURVE",
"72 876 OFFCURVE",
"87 876 CURVE SMOOTH",
"116 876 LINE SMOOTH",
"136 876 OFFCURVE",
"153 864 OFFCURVE",
"160 845 CURVE",
"183 775 LINE SMOOTH"
);
},
{
closed = 1;
nodes = (
"185 21 OFFCURVE",
"164 0 OFFCURVE",
"139 0 CURVE SMOOTH",
"112 0 LINE SMOOTH",
"86 0 OFFCURVE",
"67 21 OFFCURVE",
"67 46 CURVE SMOOTH",
"67 630 LINE SMOOTH",
"67 656 OFFCURVE",
"86 676 OFFCURVE",
"112 676 CURVE SMOOTH",
"139 676 LINE SMOOTH",
"164 676 OFFCURVE",
"185 656 OFFCURVE",
"185 630 CURVE SMOOTH",
"185 46 LINE SMOOTH"
);
}
);
width = 232;
}
);
unicode = 00CC;
},
{
glyphname = J;
lastChange = "2020-11-04 22:21:30 +0000";
layers = (
{
layerId = master01;
paths = (
{
closed = 1;
nodes = (
"485 60 OFFCURVE",
"425 0 OFFCURVE",
"353 0 CURVE SMOOTH",
"173 0 LINE SMOOTH",
"100 0 OFFCURVE",
"40 60 OFFCURVE",
"40 132 CURVE SMOOTH",
"40 204 LINE SMOOTH",
"40 229 OFFCURVE",
"61 250 OFFCURVE",
"86 250 CURVE SMOOTH",
"114 250 LINE SMOOTH",
"139 250 OFFCURVE",
"160 229 OFFCURVE",
"160 204 CURVE SMOOTH",
"160 132 LINE SMOOTH",
"160 125 OFFCURVE",
"166 118 OFFCURVE",
"173 118 CURVE SMOOTH",
"353 118 LINE SMOOTH",
"360 118 OFFCURVE",
"366 125 OFFCURVE",
"366 132 CURVE SMOOTH",
"366 630 LINE SMOOTH",
"366 656 OFFCURVE",
"386 676 OFFCURVE",
"412 676 CURVE SMOOTH",
"439 676 LINE SMOOTH",
"465 676 OFFCURVE",
"485 656 OFFCURVE",
"485 630 CURVE SMOOTH",
"485 132 LINE SMOOTH"
);
}
);
width = 526;
}
);
unicode = 004A;
},
{
glyphname = K;
lastChange = "2020-11-04 22:21:30 +0000";
layers = (
{
layerId = master01;
paths = (
{
closed = 1;
nodes = (
"477 633 OFFCURVE",
"475 613 OFFCURVE",
"462 599 CURVE SMOOTH",
"233 347 LINE SMOOTH",
"228 342 OFFCURVE",
"228 334 OFFCURVE",
"233 328 CURVE SMOOTH",
"462 77 LINE SMOOTH",
"475 63 OFFCURVE",
"477 44 OFFCURVE",
"470 28 CURVE SMOOTH",
"463 10 OFFCURVE",
"446 0 OFFCURVE",
"429 0 CURVE SMOOTH",
"391 0 LINE SMOOTH",
"378 0 OFFCURVE",
"367 6 OFFCURVE",
"358 15 CURVE SMOOTH",
"169 223 LINE SMOOTH",
"166 227 OFFCURVE",
"160 224 OFFCURVE",
"160 220 CURVE SMOOTH",
"160 46 LINE SMOOTH",
"160 21 OFFCURVE",
"139 0 OFFCURVE",
"114 0 CURVE SMOOTH",
"86 0 LINE SMOOTH",
"61 0 OFFCURVE",
"41 21 OFFCURVE",
"41 46 CURVE SMOOTH",
"41 630 LINE SMOOTH",
"41 656 OFFCURVE",
"61 676 OFFCURVE",
"86 676 CURVE SMOOTH",
"114 676 LINE SMOOTH",
"139 676 OFFCURVE",
"160 656 OFFCURVE",
"160 630 CURVE SMOOTH",
"160 457 LINE SMOOTH",
"160 452 OFFCURVE",
"166 450 OFFCURVE",
"169 453 CURVE SMOOTH",
"358 661 LINE SMOOTH",
"367 670 OFFCURVE",
"378 676 OFFCURVE",
"392 676 CURVE SMOOTH",
"429 676 LINE SMOOTH",
"447 676 OFFCURVE",
"463 665 OFFCURVE",
"470 649 CURVE SMOOTH"
);
}
);
width = 515;
}
);
unicode = 004B;
},
{
glyphname = L;
lastChange = "2020-11-04 22:21:30 +0000";
layers = (
{
layerId = master01;
paths = (
{
closed = 1;
nodes = (
"474 21 OFFCURVE",
"453 0 OFFCURVE",
"429 0 CURVE SMOOTH",
"85 0 LINE SMOOTH",
"61 0 OFFCURVE",
"40 21 OFFCURVE",
"40 46 CURVE SMOOTH",
"40 630 LINE SMOOTH",
"40 656 OFFCURVE",
"61 676 OFFCURVE",
"85 676 CURVE SMOOTH",
"113 676 LINE SMOOTH",
"138 676 OFFCURVE",
"159 656 OFFCURVE",
"159 630 CURVE SMOOTH",
"159 131 LINE SMOOTH",
"159 124 OFFCURVE",
"164 118 OFFCURVE",
"171 118 CURVE SMOOTH",
"429 118 LINE SMOOTH",
"453 118 OFFCURVE",
"474 98 OFFCURVE",
"474 72 CURVE SMOOTH",
"474 46 LINE SMOOTH"
);
}
);
width = 514;
}
);
unicode = 004C;
},
{
glyphname = Lslash;
lastChange = "2020-11-04 22:21:30 +0000";
layers = (
{
layerId = master01;
paths = (
{
closed = 1;
nodes = (
"529 21 OFFCURVE",
"509 0 OFFCURVE",
"484 0 CURVE SMOOTH",
"141 0 LINE SMOOTH",
"116 0 OFFCURVE",
"95 21 OFFCURVE",
"95 46 CURVE SMOOTH",
"95 241 LINE SMOOTH",
"95 248 OFFCURVE",
"90 253 OFFCURVE",
"83 254 CURVE SMOOTH",
"75 254 OFFCURVE",
"67 257 OFFCURVE",
"61 262 CURVE SMOOTH",
"48 270 OFFCURVE",
"41 284 OFFCURVE",
"41 299 CURVE SMOOTH",
"41 329 LINE SMOOTH",
"41 348 OFFCURVE",
"53 365 OFFCURVE",
"71 371 CURVE SMOOTH",
"83 376 LINE SMOOTH",
"90 378 OFFCURVE",
"95 385 OFFCURVE",
"95 393 CURVE SMOOTH",
"95 630 LINE SMOOTH",
"95 656 OFFCURVE",
"116 676 OFFCURVE",
"141 676 CURVE SMOOTH",
"168 676 LINE SMOOTH",
"193 676 OFFCURVE",
"214 656 OFFCURVE",
"214 630 CURVE SMOOTH",
"214 436 LINE SMOOTH",
"214 429 OFFCURVE",
"219 424 OFFCURVE",
"226 423 CURVE SMOOTH",
"234 422 OFFCURVE",
"241 420 OFFCURVE",
"248 415 CURVE SMOOTH",
"260 407 OFFCURVE",
"268 393 OFFCURVE",
"268 378 CURVE SMOOTH",
"268 348 LINE SMOOTH",
"268 329 OFFCURVE",
"255 312 OFFCURVE",
"237 306 CURVE SMOOTH",
"226 301 LINE SMOOTH",
"219 299 OFFCURVE",
"214 292 OFFCURVE",
"214 284 CURVE SMOOTH",
"214 132 LINE SMOOTH",
"214 125 OFFCURVE",
"220 119 OFFCURVE",
"227 119 CURVE SMOOTH",
"484 119 LINE SMOOTH",
"509 119 OFFCURVE",
"529 98 OFFCURVE",
"529 73 CURVE SMOOTH",
"529 46 LINE SMOOTH"
);
}
);
width = 570;
}
);
unicode = 0141;
},
{
glyphname = M;
lastChange = "2020-11-04 22:21:30 +0000";
layers = (
{
layerId = master01;
paths = (
{
closed = 1;
nodes = (
"570 21 OFFCURVE",
"550 0 OFFCURVE",
"524 0 CURVE SMOOTH",
"497 0 LINE SMOOTH",
"471 0 OFFCURVE",
"451 21 OFFCURVE",
"451 46 CURVE SMOOTH",
"451 347 LINE SMOOTH",
"451 352 OFFCURVE",
"444 354 OFFCURVE",
"442 350 CURVE SMOOTH",
"346 152 LINE",
"339 136 OFFCURVE",
"306 125 OFFCURVE",
"306 125 CURVE",
"287 125 OFFCURVE",
"271 136 OFFCURVE",
"265 152 CURVE",
"169 350 LINE SMOOTH",
"167 354 OFFCURVE",
"160 352 OFFCURVE",
"160 347 CURVE SMOOTH",
"160 46 LINE SMOOTH",
"160 21 OFFCURVE",
"139 0 OFFCURVE",
"114 0 CURVE SMOOTH",
"86 0 LINE SMOOTH",
"61 0 OFFCURVE",
"40 21 OFFCURVE",
"40 46 CURVE SMOOTH",
"40 630 LINE SMOOTH",
"40 656 OFFCURVE",
"61 676 OFFCURVE",
"86 676 CURVE SMOOTH",
"115 676 LINE SMOOTH",
"132 676 OFFCURVE",
"148 666 OFFCURVE",
"156 650 CURVE SMOOTH",
"170 621 OFFCURVE",
"245 467 OFFCURVE",
"300 352 CURVE SMOOTH",
"302 347 OFFCURVE",
"308 347 OFFCURVE",
"311 352 CURVE SMOOTH",
"454 650 LINE SMOOTH",
"462 666 OFFCURVE",
"478 676 OFFCURVE",
"496 676 CURVE SMOOTH",
"524 676 LINE SMOOTH",
"550 676 OFFCURVE",
"570 656 OFFCURVE",
"570 630 CURVE SMOOTH",
"570 46 LINE SMOOTH"
);
}
);
width = 611;
}
);
unicode = 004D;
},
{
glyphname = N;
lastChange = "2020-11-04 22:21:30 +0000";
layers = (
{
layerId = master01;
paths = (
{
closed = 1;
nodes = (
"498 21 OFFCURVE",
"477 0 OFFCURVE",
"452 0 CURVE SMOOTH",
"423 0 LINE SMOOTH",
"406 0 OFFCURVE",
"391 9 OFFCURVE",
"383 23 CURVE SMOOTH",
"170 392 LINE",
"167 397 OFFCURVE",
"160 394 OFFCURVE",
"160 390 CURVE SMOOTH",
"160 46 LINE SMOOTH",
"160 21 OFFCURVE",
"139 0 OFFCURVE",
"115 0 CURVE SMOOTH",
"87 0 LINE SMOOTH",
"62 0 OFFCURVE",
"41 21 OFFCURVE",
"41 46 CURVE SMOOTH",
"41 630 LINE SMOOTH",
"41 656 OFFCURVE",
"62 676 OFFCURVE",
"87 676 CURVE SMOOTH",
"116 676 LINE SMOOTH",
"133 676 OFFCURVE",
"148 667 OFFCURVE",
"156 653 CURVE SMOOTH",
"369 284 LINE",
"373 279 OFFCURVE",
"379 281 OFFCURVE",
"379 286 CURVE SMOOTH",
"379 630 LINE SMOOTH",
"379 656 OFFCURVE",
"400 676 OFFCURVE",
"425 676 CURVE SMOOTH",
"452 676 LINE SMOOTH",
"477 676 OFFCURVE",
"498 656 OFFCURVE",
"498 630 CURVE SMOOTH",
"498 46 LINE SMOOTH"
);
}
);
width = 539;
}
);
unicode = 004E;
},
{
glyphname = Ntilde;
lastChange = "2020-11-04 22:21:30 +0000";
layers = (
{
layerId = master01;
paths = (
{
closed = 1;
nodes = (
"440 839 OFFCURVE",
"440 821 OFFCURVE",
"432 807 CURVE SMOOTH",
"391 737 LINE SMOOTH",
"383 723 OFFCURVE",
"368 714 OFFCURVE",
"351 714 CURVE SMOOTH",
"317 714 LINE SMOOTH",
"312 714 OFFCURVE",
"306 715 OFFCURVE",
"301 718 CURVE SMOOTH",
"237 743 LINE",
"230 746 OFFCURVE",
"222 743 OFFCURVE",
"217 737 CURVE",
"209 723 OFFCURVE",
"194 714 OFFCURVE",
"178 714 CURVE SMOOTH",
"147 714 LINE SMOOTH",
"131 714 OFFCURVE",
"115 723 OFFCURVE",
"107 737 CURVE SMOOTH",
"99 751 OFFCURVE",
"99 769 OFFCURVE",
"107 783 CURVE SMOOTH",
"148 853 LINE SMOOTH",
"156 867 OFFCURVE",
"171 876 OFFCURVE",
"187 876 CURVE SMOOTH",
"221 876 LINE SMOOTH",
"227 876 OFFCURVE",
"232 875 OFFCURVE",
"237 873 CURVE SMOOTH",
"302 846 LINE SMOOTH",
"309 844 OFFCURVE",
"317 846 OFFCURVE",
"321 853 CURVE SMOOTH",
"329 867 OFFCURVE",
"345 876 OFFCURVE",
"361 876 CURVE SMOOTH",
"392 876 LINE SMOOTH",
"408 876 OFFCURVE",
"424 867 OFFCURVE",
"432 853 CURVE SMOOTH"
);
},
{
closed = 1;
nodes = (
"498 21 OFFCURVE",
"477 0 OFFCURVE",
"452 0 CURVE SMOOTH",
"423 0 LINE SMOOTH",
"406 0 OFFCURVE",
"391 8 OFFCURVE",
"383 23 CURVE SMOOTH",
"170 392 LINE",
"167 397 OFFCURVE",
"160 394 OFFCURVE",
"160 390 CURVE SMOOTH",
"160 46 LINE SMOOTH",
"160 21 OFFCURVE",
"139 0 OFFCURVE",
"115 0 CURVE SMOOTH",
"87 0 LINE SMOOTH",
"62 0 OFFCURVE",
"41 21 OFFCURVE",
"41 46 CURVE SMOOTH",
"41 630 LINE SMOOTH",
"41 656 OFFCURVE",
"62 675 OFFCURVE",
"87 675 CURVE SMOOTH",
"116 675 LINE SMOOTH",
"133 675 OFFCURVE",
"148 667 OFFCURVE",
"156 653 CURVE SMOOTH",
"369 284 LINE",
"373 279 OFFCURVE",
"379 281 OFFCURVE",
"379 286 CURVE SMOOTH",
"379 630 LINE SMOOTH",
"379 656 OFFCURVE",
"400 675 OFFCURVE",
"424 675 CURVE SMOOTH",
"452 675 LINE SMOOTH",
"477 675 OFFCURVE",
"498 656 OFFCURVE",
"498 630 CURVE SMOOTH",
"498 46 LINE SMOOTH"
);
}
);
width = 539;
}
);
unicode = 00D1;
},
{
glyphname = O;
lastChange = "2020-11-04 22:21:30 +0000";
layers = (
{
layerId = master01;
paths = (
{
closed = 1;
nodes = (
"498 60 OFFCURVE",
"438 0 OFFCURVE",
"366 0 CURVE SMOOTH",
"174 0 LINE SMOOTH",
"101 0 OFFCURVE",
"41 60 OFFCURVE",
"41 132 CURVE SMOOTH",
"41 543 LINE SMOOTH",
"41 616 OFFCURVE",
"101 676 OFFCURVE",
"174 676 CURVE SMOOTH",
"366 676 LINE SMOOTH",
"438 676 OFFCURVE",
"498 616 OFFCURVE",
"498 543 CURVE SMOOTH",
"498 132 LINE SMOOTH"
);
},
{
closed = 1;
nodes = (
"379 543 LINE SMOOTH",
"379 551 OFFCURVE",
"373 557 OFFCURVE",
"366 557 CURVE SMOOTH",
"174 557 LINE SMOOTH",
"167 557 OFFCURVE",
"160 551 OFFCURVE",
"160 543 CURVE SMOOTH",
"160 132 LINE SMOOTH",
"160 125 OFFCURVE",
"167 118 OFFCURVE",
"174 118 CURVE SMOOTH",
"366 118 LINE SMOOTH",
"373 118 OFFCURVE",
"379 125 OFFCURVE",
"379 132 CURVE SMOOTH"
);
}
);
width = 539;
}
);
unicode = 004F;
},
{
glyphname = Oacute;
lastChange = "2020-11-04 22:21:30 +0000";
layers = (
{
layerId = master01;
paths = (
{
closed = 1;
nodes = (
"316 746 LINE SMOOTH",
"309 727 OFFCURVE",
"292 714 OFFCURVE",
"273 714 CURVE SMOOTH",
"244 714 LINE SMOOTH",
"229 714 OFFCURVE",
"215 721 OFFCURVE",
"207 734 CURVE",
"198 745 OFFCURVE",
"195 760 OFFCURVE",
"200 774 CURVE SMOOTH",
"223 845 LINE",
"230 864 OFFCURVE",
"247 876 OFFCURVE",
"267 876 CURVE SMOOTH",
"296 876 LINE SMOOTH",
"311 876 OFFCURVE",
"324 869 OFFCURVE",
"332 857 CURVE",
"342 845 OFFCURVE",
"344 830 OFFCURVE",
"339 816 CURVE SMOOTH"
);
},
{
closed = 1;
nodes = (
"498 60 OFFCURVE",
"438 0 OFFCURVE",
"366 0 CURVE SMOOTH",
"174 0 LINE SMOOTH",
"101 0 OFFCURVE",
"41 60 OFFCURVE",
"41 132 CURVE SMOOTH",
"41 543 LINE SMOOTH",
"41 616 OFFCURVE",
"101 676 OFFCURVE",
"174 676 CURVE SMOOTH",
"366 676 LINE SMOOTH",
"438 676 OFFCURVE",
"498 616 OFFCURVE",
"498 543 CURVE SMOOTH",
"498 132 LINE SMOOTH"
);
},
{
closed = 1;
nodes = (
"379 543 LINE SMOOTH",
"379 551 OFFCURVE",
"373 557 OFFCURVE",
"366 557 CURVE SMOOTH",
"174 557 LINE SMOOTH",
"167 557 OFFCURVE",
"160 551 OFFCURVE",
"160 543 CURVE SMOOTH",
"160 132 LINE SMOOTH",
"160 124 OFFCURVE",
"167 118 OFFCURVE",
"174 118 CURVE SMOOTH",
"366 118 LINE SMOOTH",
"373 118 OFFCURVE",
"379 124 OFFCURVE",
"379 132 CURVE SMOOTH"
);
}
);
width = 539;
}
);
unicode = 00D3;
},
{
glyphname = Ocircumflex;
lastChange = "2020-11-04 22:21:30 +0000";
layers = (
{
layerId = master01;
paths = (
{
closed = 1;
nodes = (
"405 723 OFFCURVE",
"390 714 OFFCURVE",
"374 714 CURVE SMOOTH",
"342 714 LINE SMOOTH",
"325 714 OFFCURVE",
"311 723 OFFCURVE",
"302 737 CURVE SMOOTH",
"297 746 LINE",
"293 753 OFFCURVE",
"286 758 OFFCURVE",
"278 758 CURVE SMOOTH",
"261 758 LINE SMOOTH",
"254 758 OFFCURVE",
"246 753 OFFCURVE",
"243 746 CURVE",
"237 737 LINE SMOOTH",
"229 723 OFFCURVE",
"214 714 OFFCURVE",
"198 714 CURVE SMOOTH",
"166 714 LINE SMOOTH",
"150 714 OFFCURVE",
"135 723 OFFCURVE",
"127 737 CURVE SMOOTH",
"118 751 OFFCURVE",
"118 768 OFFCURVE",
"127 783 CURVE SMOOTH",
"167 853 LINE SMOOTH",
"175 867 OFFCURVE",
"190 876 OFFCURVE",
"206 876 CURVE SMOOTH",
"334 876 LINE SMOOTH",
"350 876 OFFCURVE",
"365 867 OFFCURVE",
"373 853 CURVE SMOOTH",
"413 783 LINE SMOOTH",
"421 768 OFFCURVE",
"421 751 OFFCURVE",
"413 737 CURVE SMOOTH"
);
},
{
closed = 1;
nodes = (
"498 60 OFFCURVE",
"438 0 OFFCURVE",
"366 0 CURVE SMOOTH",
"174 0 LINE SMOOTH",
"101 0 OFFCURVE",
"41 60 OFFCURVE",
"41 132 CURVE SMOOTH",
"41 543 LINE SMOOTH",
"41 616 OFFCURVE",
"101 675 OFFCURVE",
"174 675 CURVE SMOOTH",
"366 675 LINE SMOOTH",
"438 675 OFFCURVE",
"498 616 OFFCURVE",
"498 543 CURVE SMOOTH",
"498 132 LINE SMOOTH"
);
},
{
closed = 1;
nodes = (
"379 543 LINE SMOOTH",
"379 551 OFFCURVE",
"373 557 OFFCURVE",
"366 557 CURVE SMOOTH",
"174 557 LINE SMOOTH",
"167 557 OFFCURVE",
"160 551 OFFCURVE",
"160 543 CURVE SMOOTH",
"160 132 LINE SMOOTH",
"160 124 OFFCURVE",
"167 118 OFFCURVE",
"174 118 CURVE SMOOTH",
"366 118 LINE SMOOTH",
"373 118 OFFCURVE",
"379 124 OFFCURVE",
"379 132 CURVE SMOOTH"
);
}
);
width = 539;
}
);
unicode = 00D4;
},
{
glyphname = Odieresis;
lastChange = "2020-11-04 22:21:30 +0000";
layers = (
{
layerId = master01;
paths = (
{
closed = 1;
nodes = (
"431 747 OFFCURVE",
"398 713 OFFCURVE",
"357 713 CURVE SMOOTH",
"315 713 OFFCURVE",
"282 747 OFFCURVE",
"282 789 CURVE SMOOTH",
"282 830 OFFCURVE",
"315 864 OFFCURVE",
"357 864 CURVE SMOOTH",
"398 864 OFFCURVE",
"431 830 OFFCURVE",
"431 789 CURVE SMOOTH"
);
},
{
closed = 1;
nodes = (
"258 747 OFFCURVE",
"224 713 OFFCURVE",
"183 713 CURVE SMOOTH",
"141 713 OFFCURVE",
"108 747 OFFCURVE",
"108 789 CURVE SMOOTH",
"108 830 OFFCURVE",
"141 864 OFFCURVE",
"183 864 CURVE SMOOTH",
"224 864 OFFCURVE",
"258 830 OFFCURVE",
"258 789 CURVE SMOOTH"
);
},
{
closed = 1;
nodes = (
"498 60 OFFCURVE",
"438 0 OFFCURVE",
"366 0 CURVE SMOOTH",
"174 0 LINE SMOOTH",
"101 0 OFFCURVE",
"41 60 OFFCURVE",
"41 132 CURVE SMOOTH",
"41 543 LINE SMOOTH",
"41 616 OFFCURVE",
"101 676 OFFCURVE",
"174 676 CURVE SMOOTH",
"366 676 LINE SMOOTH",
"438 676 OFFCURVE",
"498 616 OFFCURVE",
"498 543 CURVE SMOOTH",
"498 132 LINE SMOOTH"
);
},
{
closed = 1;
nodes = (
"379 543 LINE SMOOTH",
"379 551 OFFCURVE",
"373 557 OFFCURVE",
"366 557 CURVE SMOOTH",
"174 557 LINE SMOOTH",
"167 557 OFFCURVE",
"160 551 OFFCURVE",
"160 543 CURVE SMOOTH",
"160 132 LINE SMOOTH",
"160 125 OFFCURVE",
"167 118 OFFCURVE",
"174 118 CURVE SMOOTH",
"366 118 LINE SMOOTH",
"373 118 OFFCURVE",
"379 125 OFFCURVE",
"379 132 CURVE SMOOTH"
);
}
);
width = 539;
}
);
unicode = 00D6;
},
{
glyphname = Ograve;
lastChange = "2020-11-04 22:21:30 +0000";
layers = (
{
layerId = master01;
paths = (
{
closed = 1;
nodes = (
"344 760 OFFCURVE",
"342 745 OFFCURVE",
"332 734 CURVE",
"324 721 OFFCURVE",
"311 714 OFFCURVE",
"296 714 CURVE SMOOTH",
"267 714 LINE SMOOTH",
"247 714 OFFCURVE",
"230 727 OFFCURVE",
"223 746 CURVE SMOOTH",
"200 816 LINE SMOOTH",
"195 830 OFFCURVE",
"198 845 OFFCURVE",
"207 857 CURVE",
"215 869 OFFCURVE",
"229 876 OFFCURVE",
"244 876 CURVE SMOOTH",
"273 876 LINE SMOOTH",
"292 876 OFFCURVE",
"309 864 OFFCURVE",
"316 845 CURVE",
"339 775 LINE SMOOTH"
);
},
{
closed = 1;
nodes = (
"498 60 OFFCURVE",
"438 0 OFFCURVE",
"366 0 CURVE SMOOTH",
"174 0 LINE SMOOTH",
"101 0 OFFCURVE",
"41 60 OFFCURVE",
"41 132 CURVE SMOOTH",
"41 543 LINE SMOOTH",
"41 616 OFFCURVE",
"101 676 OFFCURVE",
"174 676 CURVE SMOOTH",
"366 676 LINE SMOOTH",
"438 676 OFFCURVE",
"498 616 OFFCURVE",
"498 543 CURVE SMOOTH",
"498 132 LINE SMOOTH"
);
},
{
closed = 1;
nodes = (
"379 543 LINE SMOOTH",
"379 551 OFFCURVE",
"373 557 OFFCURVE",
"366 557 CURVE SMOOTH",
"174 557 LINE SMOOTH",
"167 557 OFFCURVE",
"160 551 OFFCURVE",
"160 543 CURVE SMOOTH",
"160 132 LINE SMOOTH",
"160 125 OFFCURVE",
"167 118 OFFCURVE",
"174 118 CURVE SMOOTH",
"366 118 LINE SMOOTH",
"373 118 OFFCURVE",
"379 125 OFFCURVE",
"379 132 CURVE SMOOTH"
);
}
);
width = 539;
}
);
unicode = 00D2;
},
{
glyphname = Oslash;
lastChange = "2020-11-04 22:21:30 +0000";
layers = (
{
layerId = master01;
paths = (
{
closed = 1;
nodes = (
"508 621 LINE",
"504 614 OFFCURVE",
"504 606 OFFCURVE",
"507 598 CURVE SMOOTH",
"515 582 OFFCURVE",
"520 562 OFFCURVE",
"520 543 CURVE SMOOTH",
"520 132 LINE SMOOTH",
"520 60 OFFCURVE",
"460 0 OFFCURVE",
"386 0 CURVE SMOOTH",
"195 0 LINE",
"193 0 OFFCURVE",
"191 0 OFFCURVE",
"190 0 CURVE",
"182 0 OFFCURVE",
"175 -3 OFFCURVE",
"170 -10 CURVE",
"156 -37 LINE",
"150 -52 OFFCURVE",
"133 -61 OFFCURVE",
"116 -61 CURVE SMOOTH",
"85 -61 LINE SMOOTH",
"69 -61 OFFCURVE",
"55 -52 OFFCURVE",
"46 -38 CURVE SMOOTH",
"38 -24 OFFCURVE",
"38 -7 OFFCURVE",
"45 7 CURVE SMOOTH",
"72 57 LINE SMOOTH",
"76 64 OFFCURVE",
"77 72 OFFCURVE",
"74 81 CURVE SMOOTH",
"67 97 OFFCURVE",
"63 114 OFFCURVE",
"63 132 CURVE SMOOTH",
"63 543 LINE SMOOTH",
"63 616 OFFCURVE",
"122 676 OFFCURVE",
"195 676 CURVE SMOOTH",
"386 676 LINE",
"388 676 OFFCURVE",
"389 676 OFFCURVE",
"390 676 CURVE",
"397 675 OFFCURVE",
"405 680 OFFCURVE",
"408 687 CURVE SMOOTH",
"421 710 LINE",
"428 725 OFFCURVE",
"444 734 OFFCURVE",
"461 734 CURVE SMOOTH",
"492 734 LINE SMOOTH",
"508 734 OFFCURVE",
"523 726 OFFCURVE",
"531 712 CURVE SMOOTH",
"539 698 OFFCURVE",
"539 681 OFFCURVE",
"532 667 CURVE SMOOTH"
);
},
{
closed = 1;
nodes = (
"336 551 OFFCURVE",
"332 557 OFFCURVE",
"327 557 CURVE SMOOTH",
"195 557 LINE SMOOTH",
"187 557 OFFCURVE",
"182 551 OFFCURVE",
"182 543 CURVE SMOOTH",
"182 283 LINE SMOOTH",
"182 277 OFFCURVE",
"189 275 OFFCURVE",
"191 281 CURVE",
"332 545 LINE SMOOTH"
);
},
{
closed = 1;
nodes = (
"400 399 LINE SMOOTH",
"400 405 OFFCURVE",
"393 407 OFFCURVE",
"391 402 CURVE SMOOTH",
"246 130 LINE",
"243 125 OFFCURVE",
"247 118 OFFCURVE",
"253 118 CURVE SMOOTH",
"386 118 LINE SMOOTH",
"394 118 OFFCURVE",
"400 125 OFFCURVE",
"400 132 CURVE SMOOTH"
);
}
);
width = 577;
}
);
unicode = 00D8;
},
{
glyphname = Otilde;
lastChange = "2020-11-04 22:21:30 +0000";
layers = (
{
layerId = master01;
paths = (
{
closed = 1;
nodes = (
"440 839 OFFCURVE",
"440 821 OFFCURVE",
"432 807 CURVE SMOOTH",
"391 737 LINE SMOOTH",
"383 723 OFFCURVE",
"368 714 OFFCURVE",
"352 714 CURVE SMOOTH",
"317 714 LINE SMOOTH",
"312 714 OFFCURVE",
"306 715 OFFCURVE",
"301 718 CURVE SMOOTH",
"237 743 LINE",
"230 746 OFFCURVE",
"222 743 OFFCURVE",
"217 737 CURVE",
"209 723 OFFCURVE",
"194 714 OFFCURVE",
"178 714 CURVE SMOOTH",
"147 714 LINE SMOOTH",
"131 714 OFFCURVE",
"115 723 OFFCURVE",
"107 737 CURVE SMOOTH",
"99 751 OFFCURVE",
"99 768 OFFCURVE",
"107 783 CURVE",
"148 853 LINE SMOOTH",
"156 867 OFFCURVE",
"171 876 OFFCURVE",
"187 876 CURVE SMOOTH",
"221 876 LINE SMOOTH",
"227 876 OFFCURVE",
"232 875 OFFCURVE",
"237 873 CURVE SMOOTH",
"302 846 LINE SMOOTH",
"309 844 OFFCURVE",
"317 846 OFFCURVE",
"321 853 CURVE SMOOTH",
"329 867 OFFCURVE",
"345 876 OFFCURVE",
"361 876 CURVE SMOOTH",
"392 876 LINE SMOOTH",
"408 876 OFFCURVE",
"424 867 OFFCURVE",
"432 853 CURVE SMOOTH"
);
},
{
closed = 1;
nodes = (
"498 60 OFFCURVE",
"438 0 OFFCURVE",
"366 0 CURVE SMOOTH",
"174 0 LINE SMOOTH",
"101 0 OFFCURVE",
"41 60 OFFCURVE",
"41 132 CURVE SMOOTH",
"41 543 LINE SMOOTH",
"41 616 OFFCURVE",
"101 676 OFFCURVE",
"174 676 CURVE SMOOTH",
"366 676 LINE SMOOTH",
"438 676 OFFCURVE",
"498 616 OFFCURVE",
"498 543 CURVE SMOOTH",
"498 132 LINE SMOOTH"
);
},
{
closed = 1;
nodes = (
"379 543 LINE SMOOTH",
"379 551 OFFCURVE",
"373 557 OFFCURVE",
"366 557 CURVE SMOOTH",
"174 557 LINE SMOOTH",
"167 557 OFFCURVE",
"160 551 OFFCURVE",
"160 543 CURVE SMOOTH",
"160 132 LINE SMOOTH",
"160 125 OFFCURVE",
"167 118 OFFCURVE",
"174 118 CURVE SMOOTH",
"366 118 LINE SMOOTH",
"373 118 OFFCURVE",
"379 125 OFFCURVE",
"379 132 CURVE SMOOTH"
);
}
);
width = 539;
}
);
unicode = 00D5;
},
{
glyphname = OE;
lastChange = "2020-11-04 22:21:30 +0000";
layers = (
{
layerId = master01;
paths = (
{
closed = 1;
nodes = (
"813 21 OFFCURVE",
"792 0 OFFCURVE",
"767 0 CURVE SMOOTH",
"174 0 LINE SMOOTH",
"101 0 OFFCURVE",
"41 60 OFFCURVE",
"41 132 CURVE SMOOTH",
"41 543 LINE SMOOTH",
"41 616 OFFCURVE",
"101 676 OFFCURVE",
"174 676 CURVE SMOOTH",
"767 676 LINE SMOOTH",
"792 676 OFFCURVE",
"813 656 OFFCURVE",
"813 630 CURVE SMOOTH",
"813 603 LINE SMOOTH",
"813 577 OFFCURVE",
"792 557 OFFCURVE",
"767 557 CURVE SMOOTH",
"511 557 LINE SMOOTH",
"504 557 OFFCURVE",
"498 551 OFFCURVE",
"498 544 CURVE SMOOTH",
"498 411 LINE SMOOTH",
"498 402 OFFCURVE",
"504 397 OFFCURVE",
"511 397 CURVE SMOOTH",
"733 397 LINE SMOOTH",
"758 397 OFFCURVE",
"777 377 OFFCURVE",
"777 352 CURVE SMOOTH",
"777 324 LINE SMOOTH",
"777 299 OFFCURVE",
"758 278 OFFCURVE",
"733 278 CURVE SMOOTH",
"511 278 LINE SMOOTH",
"504 278 OFFCURVE",
"498 273 OFFCURVE",
"498 266 CURVE SMOOTH",
"498 131 LINE SMOOTH",
"498 124 OFFCURVE",
"504 118 OFFCURVE",
"511 118 CURVE SMOOTH",
"767 118 LINE SMOOTH",
"792 118 OFFCURVE",
"813 98 OFFCURVE",
"813 72 CURVE SMOOTH",
"813 46 LINE SMOOTH"
);
},
{
closed = 1;
nodes = (
"379 544 LINE SMOOTH",
"379 551 OFFCURVE",
"373 557 OFFCURVE",
"366 557 CURVE SMOOTH",
"174 557 LINE SMOOTH",
"166 557 OFFCURVE",
"160 551 OFFCURVE",
"160 543 CURVE SMOOTH",
"160 132 LINE SMOOTH",
"160 125 OFFCURVE",
"166 118 OFFCURVE",
"174 118 CURVE SMOOTH",
"366 118 LINE SMOOTH",
"373 118 OFFCURVE",
"379 124 OFFCURVE",
"379 132 CURVE SMOOTH"
);
}
);
width = 854;
}
);
unicode = 0152;
},
{
glyphname = P;
lastChange = "2020-11-04 22:21:30 +0000";
layers = (
{
layerId = master01;
paths = (
{
closed = 1;
nodes = (
"486 324 OFFCURVE",
"428 265 OFFCURVE",
"354 265 CURVE SMOOTH",
"170 265 LINE SMOOTH",
"163 265 OFFCURVE",
"158 259 OFFCURVE",
"158 252 CURVE SMOOTH",
"158 46 LINE SMOOTH",
"158 21 OFFCURVE",
"137 0 OFFCURVE",
"112 0 CURVE SMOOTH",
"85 0 LINE SMOOTH",
"60 0 OFFCURVE",
"39 21 OFFCURVE",
"39 46 CURVE SMOOTH",
"39 630 LINE SMOOTH",
"39 656 OFFCURVE",
"60 676 OFFCURVE",
"85 676 CURVE SMOOTH",
"354 676 LINE SMOOTH",
"428 676 OFFCURVE",
"486 616 OFFCURVE",
"486 543 CURVE SMOOTH",
"486 397 LINE SMOOTH"
);
},
{
closed = 1;
nodes = (
"368 543 LINE SMOOTH",
"368 551 OFFCURVE",
"362 557 OFFCURVE",
"354 557 CURVE SMOOTH",
"170 557 LINE SMOOTH",
"163 557 OFFCURVE",
"158 551 OFFCURVE",
"158 544 CURVE SMOOTH",
"158 397 LINE SMOOTH",
"158 390 OFFCURVE",
"163 384 OFFCURVE",
"170 384 CURVE SMOOTH",
"354 384 LINE SMOOTH",
"362 384 OFFCURVE",
"368 390 OFFCURVE",
"368 397 CURVE SMOOTH"
);
}
);
width = 526;
}
);
unicode = 0050;
},
{
glyphname = Thorn;
lastChange = "2020-11-04 22:21:30 +0000";
layers = (
{
layerId = master01;
paths = (
{
closed = 1;
nodes = (
"170 544 LINE SMOOTH",
"163 544 OFFCURVE",
"158 550 OFFCURVE",
"158 557 CURVE SMOOTH",
"158 630 LINE SMOOTH",
"158 656 OFFCURVE",
"137 676 OFFCURVE",
"112 676 CURVE SMOOTH",
"85 676 LINE SMOOTH",
"60 676 OFFCURVE",
"39 656 OFFCURVE",
"39 630 CURVE SMOOTH",
"39 46 LINE SMOOTH",
"39 21 OFFCURVE",
"60 0 OFFCURVE",
"85 0 CURVE SMOOTH",
"112 0 LINE SMOOTH",
"137 0 OFFCURVE",
"158 21 OFFCURVE",
"158 46 CURVE SMOOTH",
"158 120 LINE SMOOTH",
"158 127 OFFCURVE",
"163 132 OFFCURVE",
"170 132 CURVE SMOOTH",
"359 132 LINE SMOOTH",
"430 132 OFFCURVE",
"486 193 OFFCURVE",
"486 265 CURVE SMOOTH",
"486 412 LINE SMOOTH",
"486 483 OFFCURVE",
"430 544 OFFCURVE",
"359 544 CURVE SMOOTH"
);
},
{
closed = 1;
nodes = (
"368 258 OFFCURVE",
"362 252 OFFCURVE",
"354 252 CURVE SMOOTH",
"170 252 LINE SMOOTH",
"163 252 OFFCURVE",
"158 258 OFFCURVE",
"158 265 CURVE SMOOTH",
"158 412 LINE SMOOTH",
"158 419 OFFCURVE",
"163 424 OFFCURVE",
"170 424 CURVE SMOOTH",
"354 424 LINE SMOOTH",
"362 424 OFFCURVE",
"368 419 OFFCURVE",
"368 411 CURVE SMOOTH",
"368 266 LINE SMOOTH"
);
}
);
width = 526;
}
);
unicode = 00DE;
},
{
glyphname = Q;
lastChange = "2020-11-04 22:21:30 +0000";
layers = (
{
layerId = master01;
paths = (
{
closed = 1;
nodes = (
"498 21 OFFCURVE",
"477 0 OFFCURVE",
"452 0 CURVE SMOOTH",
"174 0 LINE SMOOTH",
"101 0 OFFCURVE",
"41 60 OFFCURVE",
"41 132 CURVE SMOOTH",
"41 543 LINE SMOOTH",
"41 616 OFFCURVE",
"101 676 OFFCURVE",
"174 676 CURVE SMOOTH",
"366 676 LINE SMOOTH",
"438 676 OFFCURVE",
"498 616 OFFCURVE",
"498 543 CURVE SMOOTH",
"498 46 LINE SMOOTH"
);
},
{
closed = 1;
nodes = (
"379 543 LINE SMOOTH",
"379 551 OFFCURVE",
"373 557 OFFCURVE",
"366 557 CURVE SMOOTH",
"174 557 LINE SMOOTH",
"167 557 OFFCURVE",
"160 551 OFFCURVE",
"160 543 CURVE SMOOTH",
"160 132 LINE SMOOTH",
"160 125 OFFCURVE",
"167 118 OFFCURVE",
"174 118 CURVE SMOOTH",
"283 118 LINE SMOOTH",
"287 118 OFFCURVE",
"290 124 OFFCURVE",
"286 128 CURVE SMOOTH",
"237 177 LINE SMOOTH",
"229 185 OFFCURVE",
"224 197 OFFCURVE",
"224 209 CURVE SMOOTH",
"224 247 LINE SMOOTH",
"224 267 OFFCURVE",
"236 283 OFFCURVE",
"253 290 CURVE SMOOTH",
"270 297 OFFCURVE",
"290 293 OFFCURVE",
"302 279 CURVE SMOOTH",
"370 209 LINE SMOOTH",
"374 206 OFFCURVE",
"379 208 OFFCURVE",
"379 213 CURVE SMOOTH"
);
}
);
width = 539;
}
);
unicode = 0051;
},
{
glyphname = R;
lastChange = "2020-11-04 22:21:30 +0000";
layers = (
{
layerId = master01;
paths = (
{
closed = 1;
nodes = (
"499 49 OFFCURVE",
"498 33 OFFCURVE",
"490 21 CURVE SMOOTH",
"481 8 OFFCURVE",
"467 0 OFFCURVE",
"452 0 CURVE SMOOTH",
"422 0 LINE SMOOTH",
"404 0 OFFCURVE",
"386 12 OFFCURVE",
"379 28 CURVE SMOOTH",
"285 253 LINE SMOOTH",
"282 260 OFFCURVE",
"275 265 OFFCURVE",
"267 265 CURVE SMOOTH",
"174 265 LINE SMOOTH",
"167 265 OFFCURVE",
"161 259 OFFCURVE",
"161 252 CURVE SMOOTH",
"161 46 LINE SMOOTH",
"161 21 OFFCURVE",
"140 0 OFFCURVE",
"115 0 CURVE SMOOTH",
"87 0 LINE SMOOTH",
"62 0 OFFCURVE",
"43 21 OFFCURVE",
"43 46 CURVE SMOOTH",
"43 630 LINE SMOOTH",
"43 656 OFFCURVE",
"62 676 OFFCURVE",
"87 676 CURVE SMOOTH",
"358 676 LINE SMOOTH",
"430 676 OFFCURVE",
"490 616 OFFCURVE",
"490 543 CURVE SMOOTH",
"490 397 LINE SMOOTH",
"490 345 OFFCURVE",
"460 300 OFFCURVE",
"416 278 CURVE SMOOTH",
"411 276 OFFCURVE",
"407 268 OFFCURVE",
"411 261 CURVE SMOOTH",
"493 63 LINE SMOOTH"
);
},
{
closed = 1;
nodes = (
"371 543 LINE SMOOTH",
"371 551 OFFCURVE",
"365 557 OFFCURVE",
"358 557 CURVE SMOOTH",
"174 557 LINE SMOOTH",
"167 557 OFFCURVE",
"161 551 OFFCURVE",
"161 544 CURVE SMOOTH",
"161 397 LINE SMOOTH",
"161 390 OFFCURVE",
"167 384 OFFCURVE",
"174 384 CURVE SMOOTH",
"358 384 LINE SMOOTH",
"365 384 OFFCURVE",
"371 390 OFFCURVE",
"371 397 CURVE SMOOTH"
);
}
);
width = 539;
}
);
unicode = 0052;
},
{
glyphname = S;
lastChange = "2020-11-04 22:21:30 +0000";
layers = (
{
layerId = master01;
paths = (
{
closed = 1;
nodes = (
"498 60 OFFCURVE",
"438 0 OFFCURVE",
"366 0 CURVE SMOOTH",
"174 0 LINE SMOOTH",
"101 0 OFFCURVE",
"41 60 OFFCURVE",
"41 132 CURVE SMOOTH",
"41 162 LINE SMOOTH",
"41 187 OFFCURVE",
"62 208 OFFCURVE",
"87 208 CURVE SMOOTH",
"115 208 LINE SMOOTH",
"139 208 OFFCURVE",
"160 187 OFFCURVE",
"160 162 CURVE SMOOTH",
"160 132 LINE SMOOTH",
"160 125 OFFCURVE",
"167 118 OFFCURVE",
"174 118 CURVE SMOOTH",
"366 118 LINE SMOOTH",
"373 118 OFFCURVE",
"379 125 OFFCURVE",
"379 132 CURVE SMOOTH",
"379 223 LINE SMOOTH",
"379 229 OFFCURVE",
"375 235 OFFCURVE",
"369 237 CURVE SMOOTH",
"129 327 LINE SMOOTH",
"76 346 OFFCURVE",
"41 397 OFFCURVE",
"41 453 CURVE SMOOTH",
"41 543 LINE SMOOTH",
"41 616 OFFCURVE",
"101 676 OFFCURVE",
"174 676 CURVE SMOOTH",
"366 676 LINE SMOOTH",
"438 676 OFFCURVE",
"498 616 OFFCURVE",
"498 543 CURVE SMOOTH",
"498 516 LINE SMOOTH",
"498 491 OFFCURVE",
"477 471 OFFCURVE",
"452 471 CURVE SMOOTH",
"425 471 LINE SMOOTH",
"400 471 OFFCURVE",
"379 491 OFFCURVE",
"379 516 CURVE SMOOTH",
"379 543 LINE SMOOTH",
"379 551 OFFCURVE",
"373 557 OFFCURVE",
"366 557 CURVE SMOOTH",
"174 557 LINE SMOOTH",
"167 557 OFFCURVE",
"160 551 OFFCURVE",
"160 543 CURVE SMOOTH",
"160 453 LINE SMOOTH",
"160 446 OFFCURVE",
"164 440 OFFCURVE",
"170 438 CURVE SMOOTH",
"411 348 LINE SMOOTH",
"463 329 OFFCURVE",
"498 278 OFFCURVE",
"498 223 CURVE SMOOTH",
"498 132 LINE SMOOTH"
);
}
);
width = 539;
}
);
unicode = 0053;
},
{
glyphname = Scaron;
lastChange = "2020-11-04 22:21:30 +0000";
layers = (
{
layerId = master01;
paths = (
{
closed = 1;
nodes = (
"373 737 LINE SMOOTH",
"365 723 OFFCURVE",
"350 714 OFFCURVE",
"334 714 CURVE SMOOTH",
"206 714 LINE SMOOTH",
"190 714 OFFCURVE",
"175 723 OFFCURVE",
"167 737 CURVE SMOOTH",
"127 807 LINE SMOOTH",
"118 822 OFFCURVE",
"118 839 OFFCURVE",
"127 853 CURVE SMOOTH",
"135 867 OFFCURVE",
"150 876 OFFCURVE",
"166 876 CURVE SMOOTH",
"198 876 LINE SMOOTH",
"214 876 OFFCURVE",
"229 867 OFFCURVE",
"237 853 CURVE SMOOTH",
"243 844 LINE",
"246 837 OFFCURVE",
"254 833 OFFCURVE",
"261 833 CURVE SMOOTH",
"278 833 LINE SMOOTH",
"286 833 OFFCURVE",
"293 837 OFFCURVE",
"297 844 CURVE",
"302 853 LINE SMOOTH",
"311 867 OFFCURVE",
"325 876 OFFCURVE",
"342 876 CURVE SMOOTH",
"374 876 LINE SMOOTH",
"390 876 OFFCURVE",
"405 867 OFFCURVE",
"413 853 CURVE SMOOTH",
"421 839 OFFCURVE",
"421 822 OFFCURVE",
"413 807 CURVE SMOOTH"
);
},
{
closed = 1;
nodes = (
"498 60 OFFCURVE",
"438 0 OFFCURVE",
"366 0 CURVE SMOOTH",
"174 0 LINE SMOOTH",
"101 0 OFFCURVE",
"41 60 OFFCURVE",
"41 132 CURVE SMOOTH",
"41 204 LINE SMOOTH",
"41 229 OFFCURVE",
"62 250 OFFCURVE",
"87 250 CURVE SMOOTH",
"115 250 LINE SMOOTH",
"139 250 OFFCURVE",
"160 229 OFFCURVE",
"160 204 CURVE SMOOTH",
"160 132 LINE SMOOTH",
"160 125 OFFCURVE",
"167 118 OFFCURVE",
"174 118 CURVE SMOOTH",
"366 118 LINE SMOOTH",
"373 118 OFFCURVE",
"379 125 OFFCURVE",
"379 132 CURVE SMOOTH",
"379 223 LINE SMOOTH",
"379 229 OFFCURVE",
"375 235 OFFCURVE",
"369 237 CURVE SMOOTH",
"129 327 LINE SMOOTH",
"76 346 OFFCURVE",
"41 397 OFFCURVE",
"41 453 CURVE SMOOTH",
"41 543 LINE SMOOTH",
"41 616 OFFCURVE",
"101 676 OFFCURVE",
"174 676 CURVE SMOOTH",
"366 676 LINE SMOOTH",
"438 676 OFFCURVE",
"498 616 OFFCURVE",
"498 543 CURVE SMOOTH",
"498 471 LINE SMOOTH",
"498 446 OFFCURVE",
"477 427 OFFCURVE",
"452 427 CURVE SMOOTH",
"425 427 LINE SMOOTH",
"400 427 OFFCURVE",
"379 446 OFFCURVE",
"379 471 CURVE SMOOTH",
"379 543 LINE SMOOTH",
"379 551 OFFCURVE",
"373 557 OFFCURVE",
"366 557 CURVE SMOOTH",
"174 557 LINE SMOOTH",
"167 557 OFFCURVE",
"160 551 OFFCURVE",
"160 543 CURVE SMOOTH",
"160 453 LINE SMOOTH",
"160 446 OFFCURVE",
"164 440 OFFCURVE",
"170 438 CURVE SMOOTH",
"411 348 LINE SMOOTH",
"463 329 OFFCURVE",
"498 278 OFFCURVE",
"498 223 CURVE SMOOTH",
"498 132 LINE SMOOTH"
);
}
);
width = 539;
}
);
unicode = 0160;
},
{
glyphname = T;
lastChange = "2020-11-04 22:21:30 +0000";
layers = (
{
layerId = master01;
paths = (
{
closed = 1;
nodes = (
"486 577 OFFCURVE",
"466 557 OFFCURVE",
"440 557 CURVE SMOOTH",
"335 557 LINE SMOOTH",
"328 557 OFFCURVE",
"322 551 OFFCURVE",
"322 544 CURVE SMOOTH",
"322 46 LINE SMOOTH",
"322 21 OFFCURVE",
"301 0 OFFCURVE",
"276 0 CURVE SMOOTH",
"250 0 LINE SMOOTH",
"224 0 OFFCURVE",
"204 21 OFFCURVE",
"204 46 CURVE SMOOTH",
"204 544 LINE SMOOTH",
"204 551 OFFCURVE",
"198 557 OFFCURVE",
"191 557 CURVE SMOOTH",
"85 557 LINE SMOOTH",
"60 557 OFFCURVE",
"39 577 OFFCURVE",
"39 603 CURVE SMOOTH",
"39 630 LINE SMOOTH",
"39 656 OFFCURVE",
"60 676 OFFCURVE",
"85 676 CURVE SMOOTH",
"440 676 LINE SMOOTH",
"466 676 OFFCURVE",
"486 656 OFFCURVE",
"486 630 CURVE SMOOTH",
"486 603 LINE SMOOTH"
);
}
);
width = 526;
}
);
unicode = 0054;
},
{
glyphname = U;
lastChange = "2020-11-04 22:21:30 +0000";
layers = (
{
layerId = master01;
paths = (
{
closed = 1;
nodes = (
"485 60 OFFCURVE",
"425 0 OFFCURVE",
"353 0 CURVE SMOOTH",
"173 0 LINE SMOOTH",
"100 0 OFFCURVE",
"40 60 OFFCURVE",
"40 132 CURVE SMOOTH",
"40 630 LINE SMOOTH",
"40 656 OFFCURVE",
"61 676 OFFCURVE",
"86 676 CURVE SMOOTH",
"114 676 LINE SMOOTH",
"139 676 OFFCURVE",
"160 656 OFFCURVE",
"160 630 CURVE SMOOTH",
"160 132 LINE SMOOTH",
"160 125 OFFCURVE",
"166 118 OFFCURVE",
"173 118 CURVE SMOOTH",
"353 118 LINE SMOOTH",
"360 118 OFFCURVE",
"366 125 OFFCURVE",
"366 132 CURVE SMOOTH",
"366 630 LINE SMOOTH",
"366 656 OFFCURVE",
"386 676 OFFCURVE",
"412 676 CURVE SMOOTH",
"439 676 LINE SMOOTH",
"465 676 OFFCURVE",
"485 656 OFFCURVE",
"485 630 CURVE SMOOTH",
"485 132 LINE SMOOTH"
);
}
);
width = 526;
}
);
unicode = 0055;
},
{
glyphname = Uacute;
lastChange = "2020-11-04 22:21:30 +0000";
layers = (
{
layerId = master01;
paths = (
{
closed = 1;
nodes = (
"309 746 LINE SMOOTH",
"302 727 OFFCURVE",
"285 714 OFFCURVE",
"266 714 CURVE SMOOTH",
"237 714 LINE SMOOTH",
"222 714 OFFCURVE",
"208 721 OFFCURVE",
"200 734 CURVE",
"191 745 OFFCURVE",
"189 760 OFFCURVE",
"193 774 CURVE SMOOTH",
"216 845 LINE",
"223 864 OFFCURVE",
"240 876 OFFCURVE",
"260 876 CURVE SMOOTH",
"289 876 LINE SMOOTH",
"304 876 OFFCURVE",
"317 869 OFFCURVE",
"325 857 CURVE",
"335 845 OFFCURVE",
"337 830 OFFCURVE",
"332 816 CURVE SMOOTH"
);
},
{
closed = 1;
nodes = (
"485 60 OFFCURVE",
"425 0 OFFCURVE",
"353 0 CURVE SMOOTH",
"173 0 LINE SMOOTH",
"100 0 OFFCURVE",
"40 60 OFFCURVE",
"40 132 CURVE SMOOTH",
"40 630 LINE SMOOTH",
"40 656 OFFCURVE",
"61 675 OFFCURVE",
"86 675 CURVE SMOOTH",
"114 675 LINE SMOOTH",
"139 675 OFFCURVE",
"160 656 OFFCURVE",
"160 630 CURVE SMOOTH",
"160 132 LINE SMOOTH",
"160 124 OFFCURVE",
"166 118 OFFCURVE",
"173 118 CURVE SMOOTH",
"353 118 LINE SMOOTH",
"360 118 OFFCURVE",
"366 124 OFFCURVE",
"366 132 CURVE SMOOTH",
"366 630 LINE SMOOTH",
"366 656 OFFCURVE",
"386 675 OFFCURVE",
"412 675 CURVE SMOOTH",
"439 675 LINE SMOOTH",
"465 675 OFFCURVE",
"485 656 OFFCURVE",
"485 630 CURVE SMOOTH",
"485 132 LINE SMOOTH"
);
}
);
width = 526;
}
);
unicode = 00DA;
},
{
glyphname = Ucircumflex;
lastChange = "2020-11-04 22:21:30 +0000";
layers = (
{
layerId = master01;
paths = (
{
closed = 1;
nodes = (
"398 723 OFFCURVE",
"383 714 OFFCURVE",
"367 714 CURVE SMOOTH",
"335 714 LINE SMOOTH",
"319 714 OFFCURVE",
"304 723 OFFCURVE",
"296 737 CURVE SMOOTH",
"290 746 LINE",
"286 753 OFFCURVE",
"279 758 OFFCURVE",
"271 758 CURVE SMOOTH",
"254 758 LINE SMOOTH",
"247 758 OFFCURVE",
"239 753 OFFCURVE",
"236 746 CURVE",
"230 737 LINE SMOOTH",
"222 723 OFFCURVE",
"207 714 OFFCURVE",
"191 714 CURVE SMOOTH",
"159 714 LINE SMOOTH",
"143 714 OFFCURVE",
"128 723 OFFCURVE",
"120 737 CURVE SMOOTH",
"112 751 OFFCURVE",
"112 768 OFFCURVE",
"120 783 CURVE SMOOTH",
"160 853 LINE SMOOTH",
"168 867 OFFCURVE",
"183 876 OFFCURVE",
"199 876 CURVE SMOOTH",
"327 876 LINE SMOOTH",
"343 876 OFFCURVE",
"358 867 OFFCURVE",
"366 853 CURVE SMOOTH",
"406 783 LINE SMOOTH",
"414 768 OFFCURVE",
"414 751 OFFCURVE",
"406 737 CURVE SMOOTH"
);
},
{
closed = 1;
nodes = (
"485 60 OFFCURVE",
"425 0 OFFCURVE",
"353 0 CURVE SMOOTH",
"173 0 LINE SMOOTH",
"100 0 OFFCURVE",
"40 60 OFFCURVE",
"40 132 CURVE SMOOTH",
"40 630 LINE SMOOTH",
"40 656 OFFCURVE",
"61 675 OFFCURVE",
"86 675 CURVE SMOOTH",
"114 675 LINE SMOOTH",
"139 675 OFFCURVE",
"160 656 OFFCURVE",
"160 630 CURVE SMOOTH",
"160 132 LINE SMOOTH",
"160 124 OFFCURVE",
"166 118 OFFCURVE",
"173 118 CURVE SMOOTH",
"353 118 LINE SMOOTH",
"360 118 OFFCURVE",
"366 124 OFFCURVE",
"366 132 CURVE SMOOTH",
"366 630 LINE SMOOTH",
"366 656 OFFCURVE",
"386 675 OFFCURVE",
"412 675 CURVE SMOOTH",
"439 675 LINE SMOOTH",
"465 675 OFFCURVE",
"485 656 OFFCURVE",
"485 630 CURVE SMOOTH",
"485 132 LINE SMOOTH"
);
}
);
width = 526;
}
);
unicode = 00DB;
},
{
glyphname = Udieresis;
lastChange = "2020-11-04 22:21:30 +0000";
layers = (
{
layerId = master01;
paths = (
{
closed = 1;
nodes = (
"424 747 OFFCURVE",
"391 713 OFFCURVE",
"350 713 CURVE SMOOTH",
"308 713 OFFCURVE",
"275 747 OFFCURVE",
"275 789 CURVE SMOOTH",
"275 830 OFFCURVE",
"308 864 OFFCURVE",
"350 864 CURVE SMOOTH",
"391 864 OFFCURVE",
"424 830 OFFCURVE",
"424 789 CURVE SMOOTH"
);
},
{
closed = 1;
nodes = (
"251 747 OFFCURVE",
"217 713 OFFCURVE",
"176 713 CURVE SMOOTH",
"135 713 OFFCURVE",
"101 747 OFFCURVE",
"101 789 CURVE SMOOTH",
"101 830 OFFCURVE",
"135 864 OFFCURVE",
"176 864 CURVE SMOOTH",
"217 864 OFFCURVE",
"251 830 OFFCURVE",
"251 789 CURVE SMOOTH"
);
},
{
closed = 1;
nodes = (
"485 60 OFFCURVE",
"425 0 OFFCURVE",
"353 0 CURVE SMOOTH",
"173 0 LINE SMOOTH",
"100 0 OFFCURVE",
"40 60 OFFCURVE",
"40 132 CURVE SMOOTH",
"40 630 LINE SMOOTH",
"40 656 OFFCURVE",
"61 676 OFFCURVE",
"86 676 CURVE SMOOTH",
"114 676 LINE SMOOTH",
"139 676 OFFCURVE",
"160 656 OFFCURVE",
"160 630 CURVE SMOOTH",
"160 132 LINE SMOOTH",
"160 125 OFFCURVE",
"166 118 OFFCURVE",
"173 118 CURVE SMOOTH",
"353 118 LINE SMOOTH",
"360 118 OFFCURVE",
"366 125 OFFCURVE",
"366 132 CURVE SMOOTH",
"366 630 LINE SMOOTH",
"366 656 OFFCURVE",
"386 676 OFFCURVE",
"412 676 CURVE SMOOTH",
"439 676 LINE SMOOTH",
"465 676 OFFCURVE",
"485 656 OFFCURVE",
"485 630 CURVE SMOOTH",
"485 132 LINE SMOOTH"
);
}
);
width = 526;
}
);
unicode = 00DC;
},
{
glyphname = Ugrave;
lastChange = "2020-11-04 22:21:30 +0000";
layers = (
{
layerId = master01;
paths = (
{
closed = 1;
nodes = (
"337 760 OFFCURVE",
"335 745 OFFCURVE",
"325 734 CURVE",
"317 721 OFFCURVE",
"304 714 OFFCURVE",
"289 714 CURVE SMOOTH",
"260 714 LINE SMOOTH",
"240 714 OFFCURVE",
"223 727 OFFCURVE",
"216 746 CURVE SMOOTH",
"193 816 LINE SMOOTH",
"189 830 OFFCURVE",
"191 845 OFFCURVE",
"200 857 CURVE",
"208 869 OFFCURVE",
"222 876 OFFCURVE",
"237 876 CURVE SMOOTH",
"266 876 LINE SMOOTH",
"285 876 OFFCURVE",
"302 864 OFFCURVE",
"309 845 CURVE",
"332 774 LINE SMOOTH"
);
},
{
closed = 1;
nodes = (
"485 60 OFFCURVE",
"425 0 OFFCURVE",
"353 0 CURVE SMOOTH",
"173 0 LINE SMOOTH",
"100 0 OFFCURVE",
"40 60 OFFCURVE",
"40 132 CURVE SMOOTH",
"40 630 LINE SMOOTH",
"40 656 OFFCURVE",
"61 676 OFFCURVE",
"86 676 CURVE SMOOTH",
"114 676 LINE SMOOTH",
"139 676 OFFCURVE",
"160 656 OFFCURVE",
"160 630 CURVE SMOOTH",
"160 132 LINE SMOOTH",
"160 125 OFFCURVE",
"166 118 OFFCURVE",
"173 118 CURVE SMOOTH",
"353 118 LINE SMOOTH",
"360 118 OFFCURVE",
"366 125 OFFCURVE",
"366 132 CURVE SMOOTH",
"366 630 LINE SMOOTH",
"366 656 OFFCURVE",
"386 676 OFFCURVE",
"412 676 CURVE SMOOTH",
"439 676 LINE SMOOTH",
"465 676 OFFCURVE",
"485 656 OFFCURVE",
"485 630 CURVE SMOOTH",
"485 132 LINE SMOOTH"
);
}
);
width = 526;
}
);
unicode = 00D9;
},
{
glyphname = V;
lastChange = "2020-11-04 22:21:30 +0000";
layers = (
{
layerId = master01;
paths = (
{
closed = 1;
nodes = (
"363 31 LINE",
"357 13 OFFCURVE",
"339 0 OFFCURVE",
"320 0 CURVE SMOOTH",
"279 0 LINE SMOOTH",
"260 0 OFFCURVE",
"243 13 OFFCURVE",
"237 31 CURVE SMOOTH",
"43 616 LINE SMOOTH",
"38 630 OFFCURVE",
"40 645 OFFCURVE",
"49 657 CURVE",
"57 669 OFFCURVE",
"71 676 OFFCURVE",
"86 676 CURVE SMOOTH",
"115 676 LINE SMOOTH",
"135 676 OFFCURVE",
"152 664 OFFCURVE",
"159 645 CURVE",
"294 233 LINE",
"297 229 OFFCURVE",
"302 229 OFFCURVE",
"305 233 CURVE",
"347 363 OFFCURVE",
"398 516 OFFCURVE",
"424 596 CURVE SMOOTH",
"440 645 LINE",
"447 664 OFFCURVE",
"465 676 OFFCURVE",
"484 676 CURVE SMOOTH",
"513 676 LINE SMOOTH",
"528 676 OFFCURVE",
"542 669 OFFCURVE",
"550 657 CURVE",
"559 645 OFFCURVE",
"561 630 OFFCURVE",
"557 616 CURVE SMOOTH"
);
}
);
width = 599;
}
);
unicode = 0056;
},
{
glyphname = W;
lastChange = "2020-11-04 22:21:30 +0000";
layers = (
{
layerId = master01;
paths = (
{
closed = 1;
nodes = (
"569 36 LINE",
"564 15 OFFCURVE",
"545 0 OFFCURVE",
"524 0 CURVE SMOOTH",
"488 0 LINE SMOOTH",
"468 0 OFFCURVE",
"450 13 OFFCURVE",
"444 32 CURVE SMOOTH",
"440 45 LINE",
"423 99 OFFCURVE",
"400 174 OFFCURVE",
"376 253 CURVE SMOOTH",
"375 258 OFFCURVE",
"368 258 OFFCURVE",
"367 253 CURVE SMOOTH",
"339 164 OFFCURVE",
"312 72 OFFCURVE",
"299 32 CURVE SMOOTH",
"293 14 OFFCURVE",
"275 0 OFFCURVE",
"255 0 CURVE SMOOTH",
"218 0 LINE",
"218 0 LINE",
"197 0 OFFCURVE",
"178 15 OFFCURVE",
"174 36 CURVE SMOOTH",
"41 620 LINE SMOOTH",
"38 634 OFFCURVE",
"41 647 OFFCURVE",
"49 659 CURVE",
"59 669 OFFCURVE",
"71 676 OFFCURVE",
"86 676 CURVE SMOOTH",
"114 676 LINE SMOOTH",
"135 676 OFFCURVE",
"154 661 OFFCURVE",
"159 641 CURVE SMOOTH",
"240 279 LINE SMOOTH",
"241 275 OFFCURVE",
"248 275 OFFCURVE",
"251 279 CURVE",
"251 279 OFFCURVE",
"290 409 OFFCURVE",
"328 532 CURVE SMOOTH",
"334 551 OFFCURVE",
"350 565 OFFCURVE",
"371 565 CURVE SMOOTH",
"393 565 OFFCURVE",
"409 551 OFFCURVE",
"415 531 CURVE SMOOTH",
"492 279 LINE",
"494 275 OFFCURVE",
"501 275 OFFCURVE",
"503 279 CURVE SMOOTH",
"538 436 OFFCURVE",
"576 601 OFFCURVE",
"584 641 CURVE SMOOTH",
"589 661 OFFCURVE",
"607 676 OFFCURVE",
"629 676 CURVE SMOOTH",
"657 676 LINE SMOOTH",
"672 676 OFFCURVE",
"684 669 OFFCURVE",
"693 659 CURVE",
"702 647 OFFCURVE",
"705 634 OFFCURVE",
"702 620 CURVE SMOOTH"
);
}
);
width = 743;
}
);
unicode = 0057;
},
{
glyphname = X;
lastChange = "2020-11-04 22:21:30 +0000";
layers = (
{
layerId = master01;
paths = (
{
closed = 1;
nodes = (
"330 350 LINE",
"327 342 OFFCURVE",
"327 334 OFFCURVE",
"330 327 CURVE SMOOTH",
"469 67 LINE SMOOTH",
"476 53 OFFCURVE",
"476 36 OFFCURVE",
"468 22 CURVE SMOOTH",
"459 8 OFFCURVE",
"444 0 OFFCURVE",
"428 0 CURVE SMOOTH",
"398 0 LINE SMOOTH",
"381 0 OFFCURVE",
"365 9 OFFCURVE",
"358 24 CURVE",
"263 200 LINE SMOOTH",
"261 205 OFFCURVE",
"253 205 OFFCURVE",
"251 200 CURVE SMOOTH",
"156 24 LINE",
"150 9 OFFCURVE",
"133 0 OFFCURVE",
"116 0 CURVE SMOOTH",
"85 0 LINE SMOOTH",
"69 0 OFFCURVE",
"55 8 OFFCURVE",
"46 22 CURVE SMOOTH",
"38 36 OFFCURVE",
"38 53 OFFCURVE",
"45 67 CURVE SMOOTH",
"184 327 LINE SMOOTH",
"187 334 OFFCURVE",
"187 342 OFFCURVE",
"184 350 CURVE",
"45 608 LINE",
"38 623 OFFCURVE",
"38 641 OFFCURVE",
"46 654 CURVE SMOOTH",
"54 667 OFFCURVE",
"69 676 OFFCURVE",
"85 676 CURVE SMOOTH",
"116 676 LINE SMOOTH",
"133 676 OFFCURVE",
"148 667 OFFCURVE",
"156 652 CURVE SMOOTH",
"251 475 LINE SMOOTH",
"253 470 OFFCURVE",
"260 470 OFFCURVE",
"263 475 CURVE",
"358 652 LINE SMOOTH",
"366 667 OFFCURVE",
"381 676 OFFCURVE",
"398 676 CURVE SMOOTH",
"429 676 LINE SMOOTH",
"445 676 OFFCURVE",
"460 667 OFFCURVE",
"468 654 CURVE SMOOTH",
"476 641 OFFCURVE",
"476 623 OFFCURVE",
"469 608 CURVE"
);
}
);
width = 514;
}
);
unicode = 0058;
},
{
glyphname = Y;
lastChange = "2020-11-04 22:21:30 +0000";
layers = (
{
layerId = master01;
paths = (
{
closed = 1;
nodes = (
"558 638 OFFCURVE",
"557 621 OFFCURVE",
"549 606 CURVE",
"362 302 LINE SMOOTH",
"359 298 OFFCURVE",
"358 292 OFFCURVE",
"358 285 CURVE SMOOTH",
"358 46 LINE SMOOTH",
"358 21 OFFCURVE",
"337 0 OFFCURVE",
"312 0 CURVE SMOOTH",
"284 0 LINE SMOOTH",
"259 0 OFFCURVE",
"238 21 OFFCURVE",
"238 46 CURVE SMOOTH",
"238 286 LINE SMOOTH",
"238 292 OFFCURVE",
"237 298 OFFCURVE",
"233 302 CURVE SMOOTH",
"47 606 LINE",
"39 621 OFFCURVE",
"38 638 OFFCURVE",
"46 652 CURVE SMOOTH",
"54 667 OFFCURVE",
"70 676 OFFCURVE",
"86 676 CURVE SMOOTH",
"118 676 LINE SMOOTH",
"135 676 OFFCURVE",
"150 668 OFFCURVE",
"158 654 CURVE SMOOTH",
"179 619 OFFCURVE",
"243 515 OFFCURVE",
"291 437 CURVE SMOOTH",
"294 431 OFFCURVE",
"301 431 OFFCURVE",
"305 437 CURVE SMOOTH",
"359 524 OFFCURVE",
"415 616 OFFCURVE",
"438 654 CURVE SMOOTH",
"446 668 OFFCURVE",
"461 676 OFFCURVE",
"477 676 CURVE SMOOTH",
"509 676 LINE SMOOTH",
"526 676 OFFCURVE",
"542 667 OFFCURVE",
"550 653 CURVE SMOOTH"
);
}
);
width = 596;
}
);
unicode = 0059;
},
{
glyphname = Yacute;
lastChange = "2020-11-04 22:21:30 +0000";
layers = (
{
layerId = master01;
paths = (
{
closed = 1;
nodes = (
"344 746 LINE",
"338 727 OFFCURVE",
"321 714 OFFCURVE",
"300 714 CURVE SMOOTH",
"271 714 LINE SMOOTH",
"258 714 OFFCURVE",
"244 721 OFFCURVE",
"235 734 CURVE SMOOTH",
"227 745 OFFCURVE",
"224 760 OFFCURVE",
"229 774 CURVE SMOOTH",
"252 845 LINE SMOOTH",
"258 864 OFFCURVE",
"275 876 OFFCURVE",
"296 876 CURVE SMOOTH",
"324 876 LINE SMOOTH",
"338 876 OFFCURVE",
"352 869 OFFCURVE",
"361 857 CURVE SMOOTH",
"369 845 OFFCURVE",
"371 830 OFFCURVE",
"367 816 CURVE SMOOTH"
);
},
{
closed = 1;
nodes = (
"558 638 OFFCURVE",
"557 621 OFFCURVE",
"549 606 CURVE",
"362 302 LINE SMOOTH",
"359 297 OFFCURVE",
"358 291 OFFCURVE",
"358 285 CURVE SMOOTH",
"358 46 LINE SMOOTH",
"358 21 OFFCURVE",
"337 0 OFFCURVE",
"312 0 CURVE SMOOTH",
"284 0 LINE SMOOTH",
"259 0 OFFCURVE",
"238 21 OFFCURVE",
"238 46 CURVE SMOOTH",
"238 286 LINE SMOOTH",
"238 292 OFFCURVE",
"237 298 OFFCURVE",
"233 302 CURVE SMOOTH",
"47 606 LINE",
"39 621 OFFCURVE",
"38 638 OFFCURVE",
"46 652 CURVE SMOOTH",
"54 667 OFFCURVE",
"70 676 OFFCURVE",
"86 676 CURVE SMOOTH",
"118 676 LINE SMOOTH",
"135 676 OFFCURVE",
"150 668 OFFCURVE",
"158 654 CURVE SMOOTH",
"291 436 LINE SMOOTH",
"294 431 OFFCURVE",
"301 431 OFFCURVE",
"305 436 CURVE SMOOTH",
"438 654 LINE SMOOTH",
"446 668 OFFCURVE",
"461 676 OFFCURVE",
"477 676 CURVE SMOOTH",
"509 676 LINE SMOOTH",
"526 676 OFFCURVE",
"542 667 OFFCURVE",
"550 652 CURVE SMOOTH"
);
}
);
width = 596;
}
);
unicode = 00DD;
},
{
glyphname = Ydieresis;
lastChange = "2020-11-04 22:21:30 +0000";
layers = (
{
layerId = master01;
paths = (
{
closed = 1;
nodes = (
"460 747 OFFCURVE",
"427 713 OFFCURVE",
"385 713 CURVE SMOOTH",
"344 713 OFFCURVE",
"311 747 OFFCURVE",
"311 789 CURVE SMOOTH",
"311 829 OFFCURVE",
"344 864 OFFCURVE",
"385 864 CURVE SMOOTH",
"427 864 OFFCURVE",
"460 829 OFFCURVE",
"460 789 CURVE SMOOTH"
);
},
{
closed = 1;
nodes = (
"286 747 OFFCURVE",
"253 713 OFFCURVE",
"212 713 CURVE SMOOTH",
"170 713 OFFCURVE",
"137 747 OFFCURVE",
"137 789 CURVE SMOOTH",
"137 829 OFFCURVE",
"170 864 OFFCURVE",
"212 864 CURVE SMOOTH",
"253 864 OFFCURVE",
"286 829 OFFCURVE",
"286 789 CURVE SMOOTH"
);
},
{
closed = 1;
nodes = (
"558 638 OFFCURVE",
"558 621 OFFCURVE",
"549 606 CURVE SMOOTH",
"362 302 LINE SMOOTH",
"360 298 OFFCURVE",
"358 292 OFFCURVE",
"358 286 CURVE SMOOTH",
"358 46 LINE SMOOTH",
"358 21 OFFCURVE",
"337 0 OFFCURVE",
"312 0 CURVE SMOOTH",
"285 0 LINE SMOOTH",
"260 0 OFFCURVE",
"239 21 OFFCURVE",
"239 46 CURVE SMOOTH",
"239 286 LINE SMOOTH",
"239 292 OFFCURVE",
"237 298 OFFCURVE",
"235 302 CURVE SMOOTH",
"48 606 LINE SMOOTH",
"39 621 OFFCURVE",
"39 638 OFFCURVE",
"47 652 CURVE SMOOTH",
"55 667 OFFCURVE",
"70 676 OFFCURVE",
"87 676 CURVE SMOOTH",
"120 676 LINE SMOOTH",
"135 676 OFFCURVE",
"150 668 OFFCURVE",
"158 654 CURVE SMOOTH",
"292 436 LINE SMOOTH",
"294 431 OFFCURVE",
"302 431 OFFCURVE",
"305 437 CURVE",
"360 526 OFFCURVE",
"416 618 OFFCURVE",
"439 654 CURVE SMOOTH",
"447 668 OFFCURVE",
"462 676 OFFCURVE",
"478 676 CURVE SMOOTH",
"509 676 LINE SMOOTH",
"527 676 OFFCURVE",
"542 667 OFFCURVE",
"550 652 CURVE SMOOTH"
);
}
);
width = 597;
}
);
unicode = 0178;
},
{
glyphname = Z;
lastChange = "2020-11-04 22:21:30 +0000";
layers = (
{
layerId = master01;
paths = (
{
closed = 1;
nodes = (
"215 130 LINE SMOOTH",
"213 125 OFFCURVE",
"216 118 OFFCURVE",
"222 118 CURVE SMOOTH",
"431 118 LINE SMOOTH",
"457 118 OFFCURVE",
"476 98 OFFCURVE",
"476 72 CURVE SMOOTH",
"476 46 LINE SMOOTH",
"476 21 OFFCURVE",
"457 0 OFFCURVE",
"431 0 CURVE SMOOTH",
"85 0 LINE SMOOTH",
"69 0 OFFCURVE",
"54 8 OFFCURVE",
"46 23 CURVE SMOOTH",
"38 37 OFFCURVE",
"38 54 OFFCURVE",
"45 68 CURVE",
"311 546 LINE SMOOTH",
"313 551 OFFCURVE",
"309 557 OFFCURVE",
"304 557 CURVE SMOOTH",
"93 557 LINE SMOOTH",
"68 557 OFFCURVE",
"47 577 OFFCURVE",
"47 603 CURVE SMOOTH",
"47 630 LINE SMOOTH",
"47 656 OFFCURVE",
"68 676 OFFCURVE",
"93 676 CURVE SMOOTH",
"440 676 LINE SMOOTH",
"457 676 OFFCURVE",
"471 667 OFFCURVE",
"480 653 CURVE SMOOTH",
"488 639 OFFCURVE",
"488 622 OFFCURVE",
"481 608 CURVE"
);
}
);
width = 526;
}
);
unicode = 005A;
},
{
glyphname = Zcaron;
lastChange = "2020-11-04 22:21:30 +0000";
layers = (
{
layerId = master01;
paths = (
{
closed = 1;
nodes = (
"366 737 LINE SMOOTH",
"358 723 OFFCURVE",
"342 714 OFFCURVE",
"326 714 CURVE SMOOTH",
"199 714 LINE SMOOTH",
"183 714 OFFCURVE",
"168 723 OFFCURVE",
"160 737 CURVE SMOOTH",
"119 808 LINE SMOOTH",
"111 822 OFFCURVE",
"111 839 OFFCURVE",
"119 853 CURVE SMOOTH",
"127 867 OFFCURVE",
"142 876 OFFCURVE",
"159 876 CURVE SMOOTH",
"190 876 LINE SMOOTH",
"207 876 OFFCURVE",
"222 867 OFFCURVE",
"230 853 CURVE SMOOTH",
"235 844 LINE SMOOTH",
"239 837 OFFCURVE",
"247 833 OFFCURVE",
"255 833 CURVE SMOOTH",
"271 833 LINE SMOOTH",
"279 833 OFFCURVE",
"286 837 OFFCURVE",
"290 844 CURVE SMOOTH",
"296 853 LINE SMOOTH",
"304 867 OFFCURVE",
"319 876 OFFCURVE",
"335 876 CURVE SMOOTH",
"367 876 LINE SMOOTH",
"383 876 OFFCURVE",
"398 867 OFFCURVE",
"406 853 CURVE SMOOTH",
"414 839 OFFCURVE",
"414 822 OFFCURVE",
"406 808 CURVE SMOOTH",
"406 808 LINE SMOOTH"
);
},
{
closed = 1;
nodes = (
"215 130 LINE SMOOTH",
"213 125 OFFCURVE",
"216 119 OFFCURVE",
"222 119 CURVE SMOOTH",
"431 119 LINE SMOOTH",
"456 119 OFFCURVE",
"477 98 OFFCURVE",
"477 73 CURVE SMOOTH",
"477 46 LINE SMOOTH",
"477 20 OFFCURVE",
"456 0 OFFCURVE",
"431 0 CURVE SMOOTH",
"85 0 LINE SMOOTH",
"69 0 OFFCURVE",
"54 8 OFFCURVE",
"46 22 CURVE SMOOTH",
"38 36 OFFCURVE",
"37 54 OFFCURVE",
"45 68 CURVE SMOOTH",
"310 546 LINE SMOOTH",
"313 551 OFFCURVE",
"309 557 OFFCURVE",
"303 557 CURVE SMOOTH",
"93 557 LINE SMOOTH",
"68 557 OFFCURVE",
"47 577 OFFCURVE",
"47 603 CURVE SMOOTH",
"47 630 LINE SMOOTH",
"47 655 OFFCURVE",
"68 676 OFFCURVE",
"93 676 CURVE SMOOTH",
"440 676 LINE SMOOTH",
"457 676 OFFCURVE",
"472 667 OFFCURVE",
"480 653 CURVE SMOOTH",
"488 639 OFFCURVE",
"488 622 OFFCURVE",
"480 608 CURVE SMOOTH",
"480 608 LINE SMOOTH"
);
}
);
width = 526;
}
);
unicode = 017D;
},
{
glyphname = a;
lastChange = "2020-11-04 22:21:30 +0000";
layers = (
{
layerId = master01;
paths = (
{
closed = 1;
nodes = (
"402 49 OFFCURVE",
"352 0 OFFCURVE",
"291 0 CURVE SMOOTH",
"152 0 LINE SMOOTH",
"91 0 OFFCURVE",
"40 49 OFFCURVE",
"40 112 CURVE SMOOTH",
"40 221 LINE SMOOTH",
"40 282 OFFCURVE",
"91 331 OFFCURVE",
"152 331 CURVE SMOOTH",
"270 331 LINE SMOOTH",
"277 331 OFFCURVE",
"284 337 OFFCURVE",
"284 345 CURVE SMOOTH",
"284 385 LINE SMOOTH",
"284 393 OFFCURVE",
"277 399 OFFCURVE",
"270 399 CURVE SMOOTH",
"152 399 LINE SMOOTH",
"127 399 OFFCURVE",
"106 419 OFFCURVE",
"106 444 CURVE SMOOTH",
"106 471 LINE SMOOTH",
"106 497 OFFCURVE",
"127 518 OFFCURVE",
"152 518 CURVE SMOOTH",
"291 518 LINE SMOOTH",
"352 518 OFFCURVE",
"402 468 OFFCURVE",
"402 406 CURVE SMOOTH",
"402 112 LINE SMOOTH"
);
},
{
closed = 1;
nodes = (
"284 200 LINE SMOOTH",
"284 207 OFFCURVE",
"277 213 OFFCURVE",
"270 213 CURVE SMOOTH",
"173 213 LINE SMOOTH",
"166 213 OFFCURVE",
"159 207 OFFCURVE",
"159 200 CURVE SMOOTH",
"159 131 LINE SMOOTH",
"159 124 OFFCURVE",
"166 118 OFFCURVE",
"173 118 CURVE SMOOTH",
"270 118 LINE SMOOTH",
"277 118 OFFCURVE",
"284 124 OFFCURVE",
"284 131 CURVE SMOOTH"
);
}
);
width = 443;
}
);
unicode = 0061;
},
{
glyphname = aacute;
lastChange = "2020-11-04 22:21:30 +0000";
layers = (
{
layerId = master01;
paths = (
{
closed = 1;
nodes = (
"291 588 LINE",
"284 569 OFFCURVE",
"267 557 OFFCURVE",
"247 557 CURVE SMOOTH",
"218 557 LINE SMOOTH",
"204 557 OFFCURVE",
"190 564 OFFCURVE",
"182 575 CURVE SMOOTH",
"173 588 OFFCURVE",
"170 603 OFFCURVE",
"175 616 CURVE SMOOTH",
"198 687 LINE",
"205 705 OFFCURVE",
"222 718 OFFCURVE",
"241 718 CURVE SMOOTH",
"270 718 LINE SMOOTH",
"285 718 OFFCURVE",
"299 711 OFFCURVE",
"307 699 CURVE SMOOTH",
"316 688 OFFCURVE",
"319 672 OFFCURVE",
"314 658 CURVE SMOOTH"
);
},
{
closed = 1;
nodes = (
"402 49 OFFCURVE",
"352 0 OFFCURVE",
"291 0 CURVE SMOOTH",
"152 0 LINE SMOOTH",
"91 0 OFFCURVE",
"40 49 OFFCURVE",
"40 112 CURVE SMOOTH",
"40 221 LINE SMOOTH",
"40 282 OFFCURVE",
"91 331 OFFCURVE",
"152 331 CURVE SMOOTH",
"270 331 LINE SMOOTH",
"277 331 OFFCURVE",
"284 337 OFFCURVE",
"284 345 CURVE SMOOTH",
"284 385 LINE SMOOTH",
"284 393 OFFCURVE",
"277 399 OFFCURVE",
"270 399 CURVE SMOOTH",
"152 399 LINE SMOOTH",
"127 399 OFFCURVE",
"106 419 OFFCURVE",
"106 444 CURVE SMOOTH",
"106 471 LINE SMOOTH",
"106 497 OFFCURVE",
"127 518 OFFCURVE",
"152 518 CURVE SMOOTH",
"291 518 LINE SMOOTH",
"352 518 OFFCURVE",
"402 468 OFFCURVE",
"402 406 CURVE SMOOTH",
"402 112 LINE SMOOTH"
);
},
{
closed = 1;
nodes = (
"284 200 LINE SMOOTH",
"284 207 OFFCURVE",
"277 213 OFFCURVE",
"270 213 CURVE SMOOTH",
"173 213 LINE SMOOTH",
"164 213 OFFCURVE",
"159 207 OFFCURVE",
"159 200 CURVE SMOOTH",
"159 131 LINE SMOOTH",
"159 124 OFFCURVE",
"164 118 OFFCURVE",
"173 118 CURVE SMOOTH",
"270 118 LINE SMOOTH",
"277 118 OFFCURVE",
"284 124 OFFCURVE",
"284 131 CURVE SMOOTH"
);
}
);
width = 443;
}
);
unicode = 00E1;
},
{
glyphname = acircumflex;
lastChange = "2020-11-04 22:21:30 +0000";
layers = (
{
layerId = master01;
paths = (
{
closed = 1;
nodes = (
"368 565 OFFCURVE",
"353 557 OFFCURVE",
"337 557 CURVE SMOOTH",
"305 557 LINE SMOOTH",
"289 557 OFFCURVE",
"274 565 OFFCURVE",
"266 580 CURVE",
"260 589 LINE",
"256 596 OFFCURVE",
"250 599 OFFCURVE",
"241 599 CURVE SMOOTH",
"224 599 LINE SMOOTH",
"217 599 OFFCURVE",
"209 596 OFFCURVE",
"206 589 CURVE",
"200 580 LINE",
"192 565 OFFCURVE",
"177 557 OFFCURVE",
"161 557 CURVE SMOOTH",
"129 557 LINE SMOOTH",
"113 557 OFFCURVE",
"98 565 OFFCURVE",
"90 580 CURVE SMOOTH",
"82 593 OFFCURVE",
"82 611 OFFCURVE",
"90 624 CURVE SMOOTH",
"130 696 LINE SMOOTH",
"138 710 OFFCURVE",
"153 718 OFFCURVE",
"169 718 CURVE SMOOTH",
"297 718 LINE SMOOTH",
"313 718 OFFCURVE",
"328 710 OFFCURVE",
"336 696 CURVE SMOOTH",
"376 624 LINE SMOOTH",
"384 611 OFFCURVE",
"384 593 OFFCURVE",
"376 580 CURVE SMOOTH"
);
},
{
closed = 1;
nodes = (
"402 49 OFFCURVE",
"352 0 OFFCURVE",
"291 0 CURVE SMOOTH",
"152 0 LINE SMOOTH",
"91 0 OFFCURVE",
"40 49 OFFCURVE",
"40 112 CURVE SMOOTH",
"40 221 LINE SMOOTH",
"40 282 OFFCURVE",
"91 331 OFFCURVE",
"152 331 CURVE SMOOTH",
"270 331 LINE SMOOTH",
"277 331 OFFCURVE",
"284 337 OFFCURVE",
"284 345 CURVE SMOOTH",
"284 385 LINE SMOOTH",
"284 393 OFFCURVE",
"277 399 OFFCURVE",
"270 399 CURVE SMOOTH",
"152 399 LINE SMOOTH",
"127 399 OFFCURVE",
"106 419 OFFCURVE",
"106 444 CURVE SMOOTH",
"106 471 LINE SMOOTH",
"106 497 OFFCURVE",
"127 518 OFFCURVE",
"152 518 CURVE SMOOTH",
"291 518 LINE SMOOTH",
"352 518 OFFCURVE",
"402 468 OFFCURVE",
"402 406 CURVE SMOOTH",
"402 112 LINE SMOOTH"
);
},
{
closed = 1;
nodes = (
"284 200 LINE SMOOTH",
"284 207 OFFCURVE",
"277 213 OFFCURVE",
"270 213 CURVE SMOOTH",
"173 213 LINE SMOOTH",
"166 213 OFFCURVE",
"159 207 OFFCURVE",
"159 200 CURVE SMOOTH",
"159 131 LINE SMOOTH",
"159 124 OFFCURVE",
"166 118 OFFCURVE",
"173 118 CURVE SMOOTH",
"270 118 LINE SMOOTH",
"277 118 OFFCURVE",
"284 124 OFFCURVE",
"284 131 CURVE SMOOTH"
);
}
);
width = 443;
}
);
unicode = 00E2;
},
{
glyphname = adieresis;
lastChange = "2020-11-04 22:21:30 +0000";
layers = (
{
layerId = master01;
paths = (
{
closed = 1;
nodes = (
"394 589 OFFCURVE",
"361 555 OFFCURVE",
"320 555 CURVE SMOOTH",
"278 555 OFFCURVE",
"245 589 OFFCURVE",
"245 630 CURVE SMOOTH",
"245 672 OFFCURVE",
"278 705 OFFCURVE",
"320 705 CURVE SMOOTH",
"361 705 OFFCURVE",
"394 672 OFFCURVE",
"394 630 CURVE SMOOTH"
);
},
{
closed = 1;
nodes = (
"221 589 OFFCURVE",
"187 555 OFFCURVE",
"146 555 CURVE SMOOTH",
"105 555 OFFCURVE",
"71 589 OFFCURVE",
"71 630 CURVE SMOOTH",
"71 672 OFFCURVE",
"105 705 OFFCURVE",
"146 705 CURVE SMOOTH",
"187 705 OFFCURVE",
"221 672 OFFCURVE",
"221 630 CURVE SMOOTH"
);
},
{
closed = 1;
nodes = (
"402 49 OFFCURVE",
"352 0 OFFCURVE",
"291 0 CURVE SMOOTH",
"152 0 LINE SMOOTH",
"91 0 OFFCURVE",
"40 49 OFFCURVE",
"40 112 CURVE SMOOTH",
"40 221 LINE SMOOTH",
"40 282 OFFCURVE",
"91 331 OFFCURVE",
"152 331 CURVE SMOOTH",
"270 331 LINE SMOOTH",
"277 331 OFFCURVE",
"284 337 OFFCURVE",
"284 345 CURVE SMOOTH",
"284 385 LINE SMOOTH",
"284 393 OFFCURVE",
"277 399 OFFCURVE",
"270 399 CURVE SMOOTH",
"152 399 LINE SMOOTH",
"127 399 OFFCURVE",
"106 419 OFFCURVE",
"106 444 CURVE SMOOTH",
"106 471 LINE SMOOTH",
"106 497 OFFCURVE",
"127 518 OFFCURVE",
"152 518 CURVE SMOOTH",
"291 518 LINE SMOOTH",
"352 518 OFFCURVE",
"402 468 OFFCURVE",
"402 406 CURVE SMOOTH",
"402 112 LINE SMOOTH"
);
},
{
closed = 1;
nodes = (
"284 200 LINE SMOOTH",
"284 207 OFFCURVE",
"277 213 OFFCURVE",
"270 213 CURVE SMOOTH",
"173 213 LINE SMOOTH",
"164 213 OFFCURVE",
"159 207 OFFCURVE",
"159 200 CURVE SMOOTH",
"159 131 LINE SMOOTH",
"159 124 OFFCURVE",
"164 118 OFFCURVE",
"173 118 CURVE SMOOTH",
"270 118 LINE SMOOTH",
"277 118 OFFCURVE",
"284 124 OFFCURVE",
"284 131 CURVE SMOOTH"
);
}
);
width = 443;
}
);
unicode = 00E4;
},
{
glyphname = agrave;
lastChange = "2020-11-04 22:21:30 +0000";
layers = (
{
layerId = master01;
paths = (
{
closed = 1;
nodes = (
"296 603 OFFCURVE",
"293 588 OFFCURVE",
"284 575 CURVE SMOOTH",
"276 564 OFFCURVE",
"262 557 OFFCURVE",
"247 557 CURVE SMOOTH",
"218 557 LINE SMOOTH",
"199 557 OFFCURVE",
"182 569 OFFCURVE",
"175 588 CURVE",
"152 658 LINE SMOOTH",
"147 672 OFFCURVE",
"150 688 OFFCURVE",
"159 699 CURVE SMOOTH",
"167 711 OFFCURVE",
"181 718 OFFCURVE",
"195 718 CURVE SMOOTH",
"224 718 LINE SMOOTH",
"244 718 OFFCURVE",
"261 705 OFFCURVE",
"268 687 CURVE",
"291 616 LINE SMOOTH"
);
},
{
closed = 1;
nodes = (
"402 49 OFFCURVE",
"352 0 OFFCURVE",
"291 0 CURVE SMOOTH",
"152 0 LINE SMOOTH",
"91 0 OFFCURVE",
"40 49 OFFCURVE",
"40 112 CURVE SMOOTH",
"40 221 LINE SMOOTH",
"40 282 OFFCURVE",
"91 331 OFFCURVE",
"152 331 CURVE SMOOTH",
"270 331 LINE SMOOTH",
"278 331 OFFCURVE",
"284 337 OFFCURVE",
"284 345 CURVE SMOOTH",
"284 385 LINE SMOOTH",
"284 393 OFFCURVE",
"278 399 OFFCURVE",
"270 399 CURVE SMOOTH",
"152 399 LINE SMOOTH",
"127 399 OFFCURVE",
"106 419 OFFCURVE",
"106 444 CURVE SMOOTH",
"106 471 LINE SMOOTH",
"106 497 OFFCURVE",
"127 518 OFFCURVE",
"152 518 CURVE SMOOTH",
"291 518 LINE SMOOTH",
"352 518 OFFCURVE",
"402 468 OFFCURVE",
"402 406 CURVE SMOOTH",
"402 112 LINE SMOOTH"
);
},
{
closed = 1;
nodes = (
"284 200 LINE SMOOTH",
"284 207 OFFCURVE",
"278 213 OFFCURVE",
"270 213 CURVE SMOOTH",
"173 213 LINE SMOOTH",
"166 213 OFFCURVE",
"159 207 OFFCURVE",
"159 200 CURVE SMOOTH",
"159 131 LINE SMOOTH",
"159 124 OFFCURVE",
"166 118 OFFCURVE",
"173 118 CURVE SMOOTH",
"270 118 LINE SMOOTH",
"278 118 OFFCURVE",
"284 124 OFFCURVE",
"284 131 CURVE SMOOTH"
);
}
);
width = 443;
}
);
unicode = 00E0;
},
{
glyphname = aring;
lastChange = "2020-11-04 22:21:30 +0000";
layers = (
{
layerId = master01;
paths = (
{
closed = 1;
nodes = (
"337 582 OFFCURVE",
"298 543 OFFCURVE",
"251 543 CURVE SMOOTH",
"215 543 LINE SMOOTH",
"168 543 OFFCURVE",
"129 582 OFFCURVE",
"129 629 CURVE",
"129 631 LINE",
"129 680 OFFCURVE",
"168 718 OFFCURVE",
"215 718 CURVE SMOOTH",
"251 718 LINE SMOOTH",
"298 718 OFFCURVE",
"337 680 OFFCURVE",
"337 631 CURVE",
"337 629 LINE"
);
},
{
closed = 1;
nodes = (
"402 49 OFFCURVE",
"352 0 OFFCURVE",
"291 0 CURVE SMOOTH",
"152 0 LINE SMOOTH",
"91 0 OFFCURVE",
"40 49 OFFCURVE",
"40 112 CURVE SMOOTH",
"40 221 LINE SMOOTH",
"40 282 OFFCURVE",
"91 331 OFFCURVE",
"152 331 CURVE SMOOTH",
"270 331 LINE SMOOTH",
"277 331 OFFCURVE",
"284 337 OFFCURVE",
"284 345 CURVE SMOOTH",
"284 385 LINE SMOOTH",
"284 393 OFFCURVE",
"277 399 OFFCURVE",
"270 399 CURVE SMOOTH",
"152 399 LINE SMOOTH",
"127 399 OFFCURVE",
"106 419 OFFCURVE",
"106 444 CURVE SMOOTH",
"106 471 LINE SMOOTH",
"106 497 OFFCURVE",
"127 518 OFFCURVE",
"152 518 CURVE SMOOTH",
"291 518 LINE SMOOTH",
"352 518 OFFCURVE",
"402 468 OFFCURVE",
"402 406 CURVE SMOOTH",
"402 112 LINE SMOOTH"
);
},
{
closed = 1;
nodes = (
"268 631 LINE",
"268 642 OFFCURVE",
"260 650 OFFCURVE",
"251 650 CURVE SMOOTH",
"215 650 LINE SMOOTH",
"206 650 OFFCURVE",
"197 642 OFFCURVE",
"197 631 CURVE",
"197 629 LINE",
"197 619 OFFCURVE",
"206 611 OFFCURVE",
"215 611 CURVE SMOOTH",
"251 611 LINE SMOOTH",
"260 611 OFFCURVE",
"268 619 OFFCURVE",
"268 629 CURVE"
);
},
{
closed = 1;
nodes = (
"284 200 LINE SMOOTH",
"284 207 OFFCURVE",
"277 213 OFFCURVE",
"270 213 CURVE SMOOTH",
"173 213 LINE SMOOTH",
"166 213 OFFCURVE",
"159 207 OFFCURVE",
"159 200 CURVE SMOOTH",
"159 131 LINE SMOOTH",
"159 124 OFFCURVE",
"166 118 OFFCURVE",
"173 118 CURVE SMOOTH",
"270 118 LINE SMOOTH",
"277 118 OFFCURVE",
"284 124 OFFCURVE",
"284 131 CURVE SMOOTH"
);
}
);
width = 443;
}
);
unicode = 00E5;
},
{
glyphname = atilde;
lastChange = "2020-11-04 22:21:30 +0000";
layers = (
{
layerId = master01;
paths = (
{
closed = 1;
nodes = (
"404 681 OFFCURVE",
"404 664 OFFCURVE",
"396 650 CURVE SMOOTH",
"354 580 LINE",
"346 565 OFFCURVE",
"331 557 OFFCURVE",
"315 557 CURVE SMOOTH",
"281 557 LINE SMOOTH",
"275 557 OFFCURVE",
"269 558 OFFCURVE",
"265 560 CURVE SMOOTH",
"200 585 LINE SMOOTH",
"193 588 OFFCURVE",
"185 585 OFFCURVE",
"181 578 CURVE SMOOTH",
"173 565 OFFCURVE",
"158 557 OFFCURVE",
"141 557 CURVE SMOOTH",
"110 557 LINE SMOOTH",
"94 557 OFFCURVE",
"78 565 OFFCURVE",
"70 580 CURVE SMOOTH",
"62 593 OFFCURVE",
"62 611 OFFCURVE",
"70 624 CURVE SMOOTH",
"112 696 LINE SMOOTH",
"120 710 OFFCURVE",
"135 718 OFFCURVE",
"151 718 CURVE SMOOTH",
"184 718 LINE SMOOTH",
"190 718 OFFCURVE",
"195 718 OFFCURVE",
"200 715 CURVE SMOOTH",
"266 689 LINE SMOOTH",
"273 687 OFFCURVE",
"281 689 OFFCURVE",
"284 696 CURVE SMOOTH",
"292 710 OFFCURVE",
"308 718 OFFCURVE",
"324 718 CURVE SMOOTH",
"355 718 LINE SMOOTH",
"371 718 OFFCURVE",
"388 710 OFFCURVE",
"396 696 CURVE SMOOTH"
);
},
{
closed = 1;
nodes = (
"402 49 OFFCURVE",
"352 0 OFFCURVE",
"291 0 CURVE SMOOTH",
"152 0 LINE SMOOTH",
"91 0 OFFCURVE",
"40 49 OFFCURVE",
"40 112 CURVE SMOOTH",
"40 221 LINE SMOOTH",
"40 282 OFFCURVE",
"91 331 OFFCURVE",
"152 331 CURVE SMOOTH",
"270 331 LINE SMOOTH",
"277 331 OFFCURVE",
"284 337 OFFCURVE",
"284 345 CURVE SMOOTH",
"284 385 LINE SMOOTH",
"284 393 OFFCURVE",
"277 399 OFFCURVE",
"270 399 CURVE SMOOTH",
"152 399 LINE SMOOTH",
"127 399 OFFCURVE",
"106 419 OFFCURVE",
"106 444 CURVE SMOOTH",
"106 471 LINE SMOOTH",
"106 497 OFFCURVE",
"127 518 OFFCURVE",
"152 518 CURVE SMOOTH",
"291 518 LINE SMOOTH",
"352 518 OFFCURVE",
"402 468 OFFCURVE",
"402 406 CURVE SMOOTH",
"402 112 LINE SMOOTH"
);
},
{
closed = 1;
nodes = (
"284 200 LINE SMOOTH",
"284 207 OFFCURVE",
"277 213 OFFCURVE",
"270 213 CURVE SMOOTH",
"173 213 LINE SMOOTH",
"166 213 OFFCURVE",
"159 207 OFFCURVE",
"159 200 CURVE SMOOTH",
"159 131 LINE SMOOTH",
"159 124 OFFCURVE",
"166 118 OFFCURVE",
"173 118 CURVE SMOOTH",
"270 118 LINE SMOOTH",
"277 118 OFFCURVE",
"284 124 OFFCURVE",
"284 131 CURVE SMOOTH"
);
}
);
width = 443;
}
);
unicode = 00E3;
},
{
glyphname = ae;
lastChange = "2020-11-04 22:21:30 +0000";
layers = (
{
layerId = master01;
paths = (
{
closed = 1;
nodes = (
"644 236 OFFCURVE",
"595 185 OFFCURVE",
"534 185 CURVE SMOOTH",
"414 185 LINE SMOOTH",
"407 185 OFFCURVE",
"401 179 OFFCURVE",
"401 173 CURVE SMOOTH",
"401 131 LINE SMOOTH",
"401 124 OFFCURVE",
"407 118 OFFCURVE",
"414 118 CURVE SMOOTH",
"534 118 LINE SMOOTH",
"559 118 OFFCURVE",
"580 98 OFFCURVE",
"580 72 CURVE SMOOTH",
"580 46 LINE SMOOTH",
"580 21 OFFCURVE",
"559 0 OFFCURVE",
"534 0 CURVE SMOOTH",
"394 0 LINE SMOOTH",
"379 0 OFFCURVE",
"367 2 OFFCURVE",
"354 7 CURVE SMOOTH",
"346 10 OFFCURVE",
"338 10 OFFCURVE",
"330 7 CURVE SMOOTH",
"317 2 OFFCURVE",
"305 0 OFFCURVE",
"290 0 CURVE SMOOTH",
"151 0 LINE SMOOTH",
"90 0 OFFCURVE",
"40 49 OFFCURVE",
"40 112 CURVE SMOOTH",
"40 221 LINE SMOOTH",
"40 282 OFFCURVE",
"90 331 OFFCURVE",
"151 331 CURVE SMOOTH",
"270 331 LINE SMOOTH",
"277 331 OFFCURVE",
"283 337 OFFCURVE",
"283 345 CURVE SMOOTH",
"283 385 LINE SMOOTH",
"283 393 OFFCURVE",
"277 399 OFFCURVE",
"270 399 CURVE SMOOTH",
"151 399 LINE SMOOTH",
"125 399 OFFCURVE",
"106 419 OFFCURVE",
"106 444 CURVE SMOOTH",
"106 471 LINE SMOOTH",
"106 497 OFFCURVE",
"125 518 OFFCURVE",
"151 518 CURVE SMOOTH",
"290 518 LINE SMOOTH",
"305 518 OFFCURVE",
"317 515 OFFCURVE",
"330 509 CURVE",
"338 507 OFFCURVE",
"346 507 OFFCURVE",
"354 509 CURVE",
"367 515 OFFCURVE",
"379 518 OFFCURVE",
"394 518 CURVE SMOOTH",
"534 518 LINE SMOOTH",
"595 518 OFFCURVE",
"644 467 OFFCURVE",
"644 406 CURVE SMOOTH",
"644 297 LINE SMOOTH"
);
},
{
closed = 1;
nodes = (
"526 385 LINE SMOOTH",
"526 393 OFFCURVE",
"520 399 OFFCURVE",
"513 399 CURVE SMOOTH",
"414 399 LINE SMOOTH",
"407 399 OFFCURVE",
"401 393 OFFCURVE",
"401 385 CURVE SMOOTH",
"401 317 LINE SMOOTH",
"401 311 OFFCURVE",
"407 305 OFFCURVE",
"414 305 CURVE SMOOTH",
"513 305 LINE SMOOTH",
"520 305 OFFCURVE",
"526 311 OFFCURVE",
"526 317 CURVE SMOOTH"
);
},
{
closed = 1;
nodes = (
"283 200 LINE SMOOTH",
"283 207 OFFCURVE",
"277 213 OFFCURVE",
"270 213 CURVE SMOOTH",
"171 213 LINE SMOOTH",
"164 213 OFFCURVE",
"159 207 OFFCURVE",
"159 200 CURVE SMOOTH",
"159 131 LINE SMOOTH",
"159 124 OFFCURVE",
"164 118 OFFCURVE",
"171 118 CURVE SMOOTH",
"270 118 LINE SMOOTH",
"277 118 OFFCURVE",
"283 124 OFFCURVE",
"283 131 CURVE SMOOTH"
);
}
);
width = 684;
}
);
unicode = 00E6;
},
{
glyphname = b;
lastChange = "2020-11-04 22:21:30 +0000";
layers = (
{
layerId = master01;
paths = (
{
closed = 1;
nodes = (
"402 49 OFFCURVE",
"352 0 OFFCURVE",
"291 0 CURVE SMOOTH",
"152 0 LINE SMOOTH",
"91 0 OFFCURVE",
"40 49 OFFCURVE",
"40 112 CURVE SMOOTH",
"40 630 LINE SMOOTH",
"40 656 OFFCURVE",
"61 676 OFFCURVE",
"86 676 CURVE SMOOTH",
"114 676 LINE SMOOTH",
"139 676 OFFCURVE",
"159 656 OFFCURVE",
"159 630 CURVE SMOOTH",
"159 530 LINE SMOOTH",
"159 523 OFFCURVE",
"166 518 OFFCURVE",
"173 518 CURVE SMOOTH",
"291 518 LINE SMOOTH",
"352 518 OFFCURVE",
"402 468 OFFCURVE",
"402 406 CURVE SMOOTH",
"402 112 LINE SMOOTH"
);
},
{
closed = 1;
nodes = (
"284 385 LINE SMOOTH",
"284 393 OFFCURVE",
"278 399 OFFCURVE",
"270 399 CURVE SMOOTH",
"173 399 LINE SMOOTH",
"166 399 OFFCURVE",
"159 393 OFFCURVE",
"159 385 CURVE SMOOTH",
"159 131 LINE SMOOTH",
"159 124 OFFCURVE",
"166 118 OFFCURVE",
"173 118 CURVE SMOOTH",
"270 118 LINE SMOOTH",
"278 118 OFFCURVE",
"284 124 OFFCURVE",
"284 131 CURVE SMOOTH"
);
}
);
width = 443;
}
);
unicode = 0062;
},
{
glyphname = c;
lastChange = "2020-11-04 22:21:30 +0000";
layers = (
{
layerId = master01;
paths = (
{
closed = 1;
nodes = (
"402 49 OFFCURVE",
"352 0 OFFCURVE",
"291 0 CURVE SMOOTH",
"152 0 LINE SMOOTH",
"91 0 OFFCURVE",
"40 49 OFFCURVE",
"40 112 CURVE SMOOTH",
"40 406 LINE SMOOTH",
"40 468 OFFCURVE",
"91 518 OFFCURVE",
"152 518 CURVE SMOOTH",
"291 518 LINE SMOOTH",
"352 518 OFFCURVE",
"402 468 OFFCURVE",
"402 406 CURVE SMOOTH",
"402 354 LINE SMOOTH",
"402 329 OFFCURVE",
"382 308 OFFCURVE",
"357 308 CURVE SMOOTH",
"329 308 LINE SMOOTH",
"304 308 OFFCURVE",
"284 329 OFFCURVE",
"284 354 CURVE SMOOTH",
"284 385 LINE SMOOTH",
"284 393 OFFCURVE",
"277 399 OFFCURVE",
"270 399 CURVE SMOOTH",
"173 399 LINE SMOOTH",
"166 399 OFFCURVE",
"159 393 OFFCURVE",
"159 385 CURVE SMOOTH",
"159 131 LINE SMOOTH",
"159 124 OFFCURVE",
"166 118 OFFCURVE",
"173 118 CURVE SMOOTH",
"270 118 LINE SMOOTH",
"277 118 OFFCURVE",
"284 124 OFFCURVE",
"284 131 CURVE SMOOTH",
"284 162 LINE SMOOTH",
"284 187 OFFCURVE",
"304 208 OFFCURVE",
"329 208 CURVE SMOOTH",
"357 208 LINE SMOOTH",
"382 208 OFFCURVE",
"402 187 OFFCURVE",
"402 162 CURVE SMOOTH",
"402 112 LINE SMOOTH"
);
}
);
width = 443;
}
);
unicode = 0063;
},
{
glyphname = ccedilla;
lastChange = "2020-11-04 22:21:30 +0000";
layers = (
{
layerId = master01;
paths = (
{
closed = 1;
nodes = (
"402 -231 OFFCURVE",
"360 -274 OFFCURVE",
"307 -274 CURVE SMOOTH",
"207 -274 LINE SMOOTH",
"182 -274 OFFCURVE",
"161 -253 OFFCURVE",
"161 -228 CURVE SMOOTH",
"161 -201 LINE SMOOTH",
"161 -176 OFFCURVE",
"182 -155 OFFCURVE",
"207 -155 CURVE SMOOTH",
"275 -155 LINE SMOOTH",
"279 -155 OFFCURVE",
"284 -151 OFFCURVE",
"284 -146 CURVE SMOOTH",
"284 -140 OFFCURVE",
"279 -137 OFFCURVE",
"275 -137 CURVE SMOOTH",
"208 -137 LINE SMOOTH",
"183 -137 OFFCURVE",
"162 -116 OFFCURVE",
"162 -91 CURVE SMOOTH",
"162 -13 LINE SMOOTH",
"162 -6 OFFCURVE",
"156 0 OFFCURVE",
"150 0 CURVE SMOOTH",
"89 1 OFFCURVE",
"40 51 OFFCURVE",
"40 112 CURVE SMOOTH",
"40 406 LINE SMOOTH",
"40 468 OFFCURVE",
"91 518 OFFCURVE",
"152 518 CURVE SMOOTH",
"291 518 LINE SMOOTH",
"352 518 OFFCURVE",
"402 468 OFFCURVE",
"402 406 CURVE SMOOTH",
"402 352 LINE SMOOTH",
"402 327 OFFCURVE",
"382 306 OFFCURVE",
"357 306 CURVE SMOOTH",
"329 306 LINE SMOOTH",
"304 306 OFFCURVE",
"284 327 OFFCURVE",
"284 352 CURVE SMOOTH",
"284 385 LINE SMOOTH",
"284 393 OFFCURVE",
"277 399 OFFCURVE",
"270 399 CURVE SMOOTH",
"173 399 LINE SMOOTH",
"166 399 OFFCURVE",
"159 393 OFFCURVE",
"159 385 CURVE SMOOTH",
"159 132 LINE SMOOTH",
"159 124 OFFCURVE",
"166 118 OFFCURVE",
"173 118 CURVE SMOOTH",
"270 118 LINE SMOOTH",
"277 118 OFFCURVE",
"284 124 OFFCURVE",
"284 132 CURVE SMOOTH",
"284 179 LINE SMOOTH",
"284 205 OFFCURVE",
"304 225 OFFCURVE",
"329 225 CURVE SMOOTH",
"357 225 LINE SMOOTH",
"382 225 OFFCURVE",
"402 205 OFFCURVE",
"402 179 CURVE SMOOTH",
"402 112 LINE SMOOTH",
"402 49 OFFCURVE",
"352 0 OFFCURVE",
"291 0 CURVE",
"290 0 LINE",
"285 0 OFFCURVE",
"281 -3 OFFCURVE",
"281 -9 CURVE SMOOTH",
"281 -14 OFFCURVE",
"285 -18 OFFCURVE",
"290 -18 CURVE SMOOTH",
"307 -18 LINE SMOOTH",
"360 -18 OFFCURVE",
"402 -61 OFFCURVE",
"402 -114 CURVE SMOOTH",
"402 -178 LINE SMOOTH"
);
}
);
width = 443;
}
);
unicode = 00E7;
},
{
glyphname = d;
lastChange = "2020-11-04 22:21:30 +0000";
layers = (
{
layerId = master01;
paths = (
{
closed = 1;
nodes = (
"402 49 OFFCURVE",
"352 0 OFFCURVE",
"291 0 CURVE SMOOTH",
"152 0 LINE SMOOTH",
"91 0 OFFCURVE",
"40 49 OFFCURVE",
"40 112 CURVE SMOOTH",
"40 406 LINE SMOOTH",
"40 468 OFFCURVE",
"91 518 OFFCURVE",
"152 518 CURVE SMOOTH",
"270 518 LINE SMOOTH",
"278 518 OFFCURVE",
"284 523 OFFCURVE",
"284 530 CURVE SMOOTH",
"284 630 LINE SMOOTH",
"284 656 OFFCURVE",
"304 676 OFFCURVE",
"329 676 CURVE SMOOTH",
"357 676 LINE SMOOTH",
"382 676 OFFCURVE",
"402 656 OFFCURVE",
"402 630 CURVE SMOOTH",
"402 112 LINE SMOOTH"
);
},
{
closed = 1;
nodes = (
"284 385 LINE SMOOTH",
"284 393 OFFCURVE",
"278 399 OFFCURVE",
"270 399 CURVE SMOOTH",
"173 399 LINE SMOOTH",
"166 399 OFFCURVE",
"159 393 OFFCURVE",
"159 385 CURVE SMOOTH",
"159 131 LINE SMOOTH",
"159 124 OFFCURVE",
"166 118 OFFCURVE",
"173 118 CURVE SMOOTH",
"270 118 LINE SMOOTH",
"278 118 OFFCURVE",
"284 124 OFFCURVE",
"284 131 CURVE SMOOTH"
);
}
);
width = 443;
}
);
unicode = 0064;
},
{
glyphname = eth;
lastChange = "2020-11-04 22:21:30 +0000";
layers = (
{
layerId = master01;
paths = (
{
closed = 1;
nodes = (
"369 519 OFFCURVE",
"367 509 OFFCURVE",
"361 503 CURVE SMOOTH",
"357 496 OFFCURVE",
"355 488 OFFCURVE",
"358 481 CURVE SMOOTH",
"366 457 OFFCURVE",
"369 432 OFFCURVE",
"369 407 CURVE SMOOTH",
"369 164 LINE SMOOTH",
"369 74 OFFCURVE",
"296 0 OFFCURVE",
"205 0 CURVE SMOOTH",
"114 0 OFFCURVE",
"40 74 OFFCURVE",
"40 164 CURVE SMOOTH",
"40 285 LINE SMOOTH",
"40 376 OFFCURVE",
"114 450 OFFCURVE",
"205 450 CURVE SMOOTH",
"214 450 OFFCURVE",
"223 450 OFFCURVE",
"232 447 CURVE",
"238 447 OFFCURVE",
"243 452 OFFCURVE",
"240 458 CURVE SMOOTH",
"238 462 OFFCURVE",
"236 467 OFFCURVE",
"233 471 CURVE SMOOTH",
"229 478 OFFCURVE",
"222 483 OFFCURVE",
"214 483 CURVE SMOOTH",
"98 483 LINE SMOOTH",
"72 483 OFFCURVE",
"52 504 OFFCURVE",
"52 528 CURVE SMOOTH",
"52 555 LINE SMOOTH",
"52 581 OFFCURVE",
"71 600 OFFCURVE",
"97 601 CURVE",
"101 601 OFFCURVE",
"106 607 OFFCURVE",
"103 612 CURVE SMOOTH",
"99 623 OFFCURVE",
"98 636 OFFCURVE",
"103 647 CURVE",
"110 665 OFFCURVE",
"127 676 OFFCURVE",
"145 676 CURVE SMOOTH",
"184 676 LINE SMOOTH",
"195 676 OFFCURVE",
"208 670 OFFCURVE",
"216 662 CURVE SMOOTH",
"268 611 LINE SMOOTH",
"274 605 OFFCURVE",
"282 601 OFFCURVE",
"290 601 CURVE SMOOTH",
"324 601 LINE SMOOTH",
"350 601 OFFCURVE",
"369 581 OFFCURVE",
"369 555 CURVE SMOOTH",
"369 528 LINE SMOOTH"
);
},
{
closed = 1;
nodes = (
"251 285 LINE SMOOTH",
"251 311 OFFCURVE",
"230 331 OFFCURVE",
"205 331 CURVE SMOOTH",
"179 331 OFFCURVE",
"159 311 OFFCURVE",
"159 285 CURVE SMOOTH",
"159 164 LINE SMOOTH",
"159 139 OFFCURVE",
"179 118 OFFCURVE",
"205 118 CURVE SMOOTH",
"230 118 OFFCURVE",
"251 139 OFFCURVE",
"251 164 CURVE SMOOTH"
);
}
);
width = 409;
}
);
unicode = 00F0;
},
{
glyphname = e;
lastChange = "2020-11-04 22:21:30 +0000";
layers = (
{
layerId = master01;
paths = (
{
closed = 1;
nodes = (
"402 236 OFFCURVE",
"352 185 OFFCURVE",
"291 185 CURVE SMOOTH",
"173 185 LINE SMOOTH",
"166 185 OFFCURVE",
"159 179 OFFCURVE",
"159 173 CURVE SMOOTH",
"159 131 LINE SMOOTH",
"159 124 OFFCURVE",
"166 118 OFFCURVE",
"173 118 CURVE SMOOTH",
"291 118 LINE SMOOTH",
"316 118 OFFCURVE",
"337 98 OFFCURVE",
"337 72 CURVE SMOOTH",
"337 46 LINE SMOOTH",
"337 21 OFFCURVE",
"316 0 OFFCURVE",
"291 0 CURVE SMOOTH",
"152 0 LINE SMOOTH",
"91 0 OFFCURVE",
"40 49 OFFCURVE",
"40 112 CURVE SMOOTH",
"40 406 LINE SMOOTH",
"40 467 OFFCURVE",
"91 518 OFFCURVE",
"152 518 CURVE SMOOTH",
"291 518 LINE SMOOTH",
"352 518 OFFCURVE",
"402 467 OFFCURVE",
"402 406 CURVE SMOOTH",
"402 297 LINE SMOOTH"
);
},
{
closed = 1;
nodes = (
"284 385 LINE SMOOTH",
"284 393 OFFCURVE",
"277 399 OFFCURVE",
"270 399 CURVE SMOOTH",
"173 399 LINE SMOOTH",
"166 399 OFFCURVE",
"159 393 OFFCURVE",
"159 385 CURVE SMOOTH",
"159 317 LINE SMOOTH",
"159 311 OFFCURVE",
"166 305 OFFCURVE",
"173 305 CURVE SMOOTH",
"270 305 LINE SMOOTH",
"277 305 OFFCURVE",
"284 311 OFFCURVE",
"284 317 CURVE SMOOTH"
);
}
);
width = 443;
}
);
unicode = 0065;
},
{
glyphname = eacute;
lastChange = "2020-11-04 22:21:30 +0000";
layers = (
{
layerId = master01;
paths = (
{
closed = 1;
nodes = (
"268 588 LINE",
"261 569 OFFCURVE",
"244 557 OFFCURVE",
"224 557 CURVE SMOOTH",
"195 557 LINE SMOOTH",
"181 557 OFFCURVE",
"167 564 OFFCURVE",
"159 575 CURVE SMOOTH",
"150 588 OFFCURVE",
"147 603 OFFCURVE",
"152 616 CURVE SMOOTH",
"175 687 LINE",
"182 705 OFFCURVE",
"199 718 OFFCURVE",
"218 718 CURVE SMOOTH",
"247 718 LINE SMOOTH",
"262 718 OFFCURVE",
"276 711 OFFCURVE",
"284 699 CURVE SMOOTH",
"293 688 OFFCURVE",
"296 672 OFFCURVE",
"291 658 CURVE SMOOTH"
);
},
{
closed = 1;
nodes = (
"402 236 OFFCURVE",
"352 185 OFFCURVE",
"291 185 CURVE SMOOTH",
"173 185 LINE SMOOTH",
"166 185 OFFCURVE",
"159 179 OFFCURVE",
"159 173 CURVE SMOOTH",
"159 131 LINE SMOOTH",
"159 124 OFFCURVE",
"166 118 OFFCURVE",
"173 118 CURVE SMOOTH",
"291 118 LINE SMOOTH",
"316 118 OFFCURVE",
"337 98 OFFCURVE",
"337 72 CURVE SMOOTH",
"337 46 LINE SMOOTH",
"337 21 OFFCURVE",
"316 0 OFFCURVE",
"291 0 CURVE SMOOTH",
"152 0 LINE SMOOTH",
"91 0 OFFCURVE",
"40 49 OFFCURVE",
"40 112 CURVE SMOOTH",
"40 406 LINE SMOOTH",
"40 467 OFFCURVE",
"91 518 OFFCURVE",
"152 518 CURVE SMOOTH",
"291 518 LINE SMOOTH",
"352 518 OFFCURVE",
"402 467 OFFCURVE",
"402 406 CURVE SMOOTH",
"402 297 LINE SMOOTH"
);
},
{
closed = 1;
nodes = (
"284 385 LINE SMOOTH",
"284 393 OFFCURVE",
"278 399 OFFCURVE",
"270 399 CURVE SMOOTH",
"173 399 LINE SMOOTH",
"166 399 OFFCURVE",
"159 393 OFFCURVE",
"159 385 CURVE SMOOTH",
"159 317 LINE SMOOTH",
"159 311 OFFCURVE",
"166 305 OFFCURVE",
"173 305 CURVE SMOOTH",
"270 305 LINE SMOOTH",
"278 305 OFFCURVE",
"284 311 OFFCURVE",
"284 317 CURVE SMOOTH"
);
}
);
width = 443;
}
);
unicode = 00E9;
},
{
glyphname = ecircumflex;
lastChange = "2020-11-04 22:21:30 +0000";
layers = (
{
layerId = master01;
paths = (
{
closed = 1;
nodes = (
"357 565 OFFCURVE",
"342 557 OFFCURVE",
"325 557 CURVE SMOOTH",
"293 557 LINE SMOOTH",
"277 557 OFFCURVE",
"262 565 OFFCURVE",
"254 580 CURVE",
"248 589 LINE",
"245 596 OFFCURVE",
"238 599 OFFCURVE",
"230 599 CURVE SMOOTH",
"213 599 LINE SMOOTH",
"206 599 OFFCURVE",
"198 596 OFFCURVE",
"194 589 CURVE",
"189 580 LINE",
"181 565 OFFCURVE",
"166 557 OFFCURVE",
"150 557 CURVE SMOOTH",
"117 557 LINE SMOOTH",
"101 557 OFFCURVE",
"86 565 OFFCURVE",
"78 580 CURVE SMOOTH",
"70 593 OFFCURVE",
"70 611 OFFCURVE",
"78 624 CURVE SMOOTH",
"118 696 LINE SMOOTH",
"127 710 OFFCURVE",
"141 718 OFFCURVE",
"158 718 CURVE SMOOTH",
"285 718 LINE SMOOTH",
"301 718 OFFCURVE",
"316 710 OFFCURVE",
"324 696 CURVE SMOOTH",
"365 624 LINE SMOOTH",
"373 611 OFFCURVE",
"373 593 OFFCURVE",
"365 580 CURVE SMOOTH"
);
},
{
closed = 1;
nodes = (
"402 236 OFFCURVE",
"352 185 OFFCURVE",
"291 185 CURVE SMOOTH",
"173 185 LINE SMOOTH",
"166 185 OFFCURVE",
"159 179 OFFCURVE",
"159 173 CURVE SMOOTH",
"159 131 LINE SMOOTH",
"159 124 OFFCURVE",
"166 118 OFFCURVE",
"173 118 CURVE SMOOTH",
"291 118 LINE SMOOTH",
"316 118 OFFCURVE",
"337 98 OFFCURVE",
"337 72 CURVE SMOOTH",
"337 46 LINE SMOOTH",
"337 21 OFFCURVE",
"316 0 OFFCURVE",
"291 0 CURVE SMOOTH",
"152 0 LINE SMOOTH",
"91 0 OFFCURVE",
"40 49 OFFCURVE",
"40 112 CURVE SMOOTH",
"40 406 LINE SMOOTH",
"40 467 OFFCURVE",
"91 518 OFFCURVE",
"152 518 CURVE SMOOTH",
"291 518 LINE SMOOTH",
"352 518 OFFCURVE",
"402 467 OFFCURVE",
"402 406 CURVE SMOOTH",
"402 297 LINE SMOOTH"
);
},
{
closed = 1;
nodes = (
"284 385 LINE SMOOTH",
"284 393 OFFCURVE",
"277 399 OFFCURVE",
"270 399 CURVE SMOOTH",
"173 399 LINE SMOOTH",
"166 399 OFFCURVE",
"159 393 OFFCURVE",
"159 385 CURVE SMOOTH",
"159 317 LINE SMOOTH",
"159 311 OFFCURVE",
"166 305 OFFCURVE",
"173 305 CURVE SMOOTH",
"270 305 LINE SMOOTH",
"277 305 OFFCURVE",
"284 311 OFFCURVE",
"284 317 CURVE SMOOTH"
);
}
);
width = 443;
}
);
unicode = 00EA;
},
{
glyphname = edieresis;
lastChange = "2020-11-04 22:21:30 +0000";
layers = (
{
layerId = master01;
paths = (
{
closed = 1;
nodes = (
"383 589 OFFCURVE",
"350 555 OFFCURVE",
"308 555 CURVE SMOOTH",
"267 555 OFFCURVE",
"233 589 OFFCURVE",
"233 630 CURVE SMOOTH",
"233 672 OFFCURVE",
"267 705 OFFCURVE",
"308 705 CURVE SMOOTH",
"350 705 OFFCURVE",
"383 672 OFFCURVE",
"383 630 CURVE SMOOTH"
);
},
{
closed = 1;
nodes = (
"209 589 OFFCURVE",
"176 555 OFFCURVE",
"135 555 CURVE SMOOTH",
"93 555 OFFCURVE",
"60 589 OFFCURVE",
"60 630 CURVE SMOOTH",
"60 672 OFFCURVE",
"93 705 OFFCURVE",
"135 705 CURVE SMOOTH",
"176 705 OFFCURVE",
"209 672 OFFCURVE",
"209 630 CURVE SMOOTH"
);
},
{
closed = 1;
nodes = (
"402 236 OFFCURVE",
"352 185 OFFCURVE",
"291 185 CURVE SMOOTH",
"173 185 LINE SMOOTH",
"166 185 OFFCURVE",
"159 179 OFFCURVE",
"159 173 CURVE SMOOTH",
"159 131 LINE SMOOTH",
"159 124 OFFCURVE",
"166 118 OFFCURVE",
"173 118 CURVE SMOOTH",
"291 118 LINE SMOOTH",
"316 118 OFFCURVE",
"337 98 OFFCURVE",
"337 72 CURVE SMOOTH",
"337 46 LINE SMOOTH",
"337 21 OFFCURVE",
"316 0 OFFCURVE",
"291 0 CURVE SMOOTH",
"152 0 LINE SMOOTH",
"91 0 OFFCURVE",
"40 49 OFFCURVE",
"40 112 CURVE SMOOTH",
"40 406 LINE SMOOTH",
"40 467 OFFCURVE",
"91 518 OFFCURVE",
"152 518 CURVE SMOOTH",
"291 518 LINE SMOOTH",
"352 518 OFFCURVE",
"402 467 OFFCURVE",
"402 406 CURVE SMOOTH",
"402 297 LINE SMOOTH"
);
},
{
closed = 1;
nodes = (
"284 385 LINE SMOOTH",
"284 393 OFFCURVE",
"278 399 OFFCURVE",
"270 399 CURVE SMOOTH",
"173 399 LINE SMOOTH",
"166 399 OFFCURVE",
"159 393 OFFCURVE",
"159 385 CURVE SMOOTH",
"159 317 LINE SMOOTH",
"159 311 OFFCURVE",
"166 305 OFFCURVE",
"173 305 CURVE SMOOTH",
"270 305 LINE SMOOTH",
"278 305 OFFCURVE",
"284 311 OFFCURVE",
"284 317 CURVE SMOOTH"
);
}
);
width = 443;
}
);
unicode = 00EB;
},
{
glyphname = egrave;
lastChange = "2020-11-04 22:21:30 +0000";
layers = (
{
layerId = master01;
paths = (
{
closed = 1;
nodes = (
"296 603 OFFCURVE",
"293 588 OFFCURVE",
"284 575 CURVE SMOOTH",
"276 564 OFFCURVE",
"262 557 OFFCURVE",
"247 557 CURVE SMOOTH",
"218 557 LINE SMOOTH",
"199 557 OFFCURVE",
"182 569 OFFCURVE",
"175 588 CURVE",
"152 658 LINE SMOOTH",
"147 672 OFFCURVE",
"150 688 OFFCURVE",
"159 699 CURVE SMOOTH",
"167 711 OFFCURVE",
"181 718 OFFCURVE",
"195 718 CURVE SMOOTH",
"224 718 LINE SMOOTH",
"244 718 OFFCURVE",
"261 705 OFFCURVE",
"268 687 CURVE",
"291 616 LINE SMOOTH"
);
},
{
closed = 1;
nodes = (
"402 236 OFFCURVE",
"352 185 OFFCURVE",
"291 185 CURVE SMOOTH",
"173 185 LINE SMOOTH",
"166 185 OFFCURVE",
"159 179 OFFCURVE",
"159 173 CURVE SMOOTH",
"159 131 LINE SMOOTH",
"159 124 OFFCURVE",
"166 118 OFFCURVE",
"173 118 CURVE SMOOTH",
"291 118 LINE SMOOTH",
"316 118 OFFCURVE",
"337 98 OFFCURVE",
"337 72 CURVE SMOOTH",
"337 46 LINE SMOOTH",
"337 21 OFFCURVE",
"316 0 OFFCURVE",
"291 0 CURVE SMOOTH",
"152 0 LINE SMOOTH",
"91 0 OFFCURVE",
"40 49 OFFCURVE",
"40 112 CURVE SMOOTH",
"40 406 LINE SMOOTH",
"40 467 OFFCURVE",
"91 518 OFFCURVE",
"152 518 CURVE SMOOTH",
"291 518 LINE SMOOTH",
"352 518 OFFCURVE",
"402 467 OFFCURVE",
"402 406 CURVE SMOOTH",
"402 297 LINE SMOOTH"
);
},
{
closed = 1;
nodes = (
"284 385 LINE SMOOTH",
"284 393 OFFCURVE",
"277 399 OFFCURVE",
"270 399 CURVE SMOOTH",
"173 399 LINE SMOOTH",
"166 399 OFFCURVE",
"159 393 OFFCURVE",
"159 385 CURVE SMOOTH",
"159 317 LINE SMOOTH",
"159 311 OFFCURVE",
"166 305 OFFCURVE",
"173 305 CURVE SMOOTH",
"270 305 LINE SMOOTH",
"277 305 OFFCURVE",
"284 311 OFFCURVE",
"284 317 CURVE SMOOTH"
);
}
);
width = 443;
}
);
unicode = 00E8;
},
{
glyphname = f;
lastChange = "2020-11-04 22:21:30 +0000";
layers = (
{
layerId = master01;
paths = (
{
closed = 1;
nodes = (
"324 419 OFFCURVE",
"304 399 OFFCURVE",
"278 399 CURVE SMOOTH",
"173 399 LINE SMOOTH",
"166 399 OFFCURVE",
"160 393 OFFCURVE",
"160 385 CURVE SMOOTH",
"160 46 LINE SMOOTH",
"160 21 OFFCURVE",
"139 0 OFFCURVE",
"114 0 CURVE SMOOTH",
"86 0 LINE SMOOTH",
"61 0 OFFCURVE",
"40 21 OFFCURVE",
"40 46 CURVE SMOOTH",
"40 565 LINE SMOOTH",
"40 626 OFFCURVE",
"91 676 OFFCURVE",
"152 676 CURVE SMOOTH",
"278 676 LINE SMOOTH",
"304 676 OFFCURVE",
"324 656 OFFCURVE",
"324 630 CURVE SMOOTH",
"324 603 LINE SMOOTH",
"324 577 OFFCURVE",
"304 557 OFFCURVE",
"278 557 CURVE SMOOTH",
"173 557 LINE SMOOTH",
"166 557 OFFCURVE",
"160 551 OFFCURVE",
"160 544 CURVE SMOOTH",
"160 530 LINE SMOOTH",
"160 523 OFFCURVE",
"166 518 OFFCURVE",
"173 518 CURVE SMOOTH",
"278 518 LINE SMOOTH",
"304 518 OFFCURVE",
"324 497 OFFCURVE",
"324 471 CURVE SMOOTH",
"324 444 LINE SMOOTH"
);
}
);
width = 365;
}
);
unicode = 0066;
},
{
glyphname = g;
lastChange = "2020-11-04 22:21:30 +0000";
layers = (
{
layerId = master01;
paths = (
{
closed = 1;
nodes = (
"402 -109 OFFCURVE",
"352 -160 OFFCURVE",
"291 -160 CURVE SMOOTH",
"152 -160 LINE SMOOTH",
"127 -160 OFFCURVE",
"106 -139 OFFCURVE",
"106 -114 CURVE SMOOTH",
"106 -86 LINE SMOOTH",
"106 -61 OFFCURVE",
"127 -41 OFFCURVE",
"152 -41 CURVE SMOOTH",
"270 -41 LINE SMOOTH",
"277 -41 OFFCURVE",
"284 -35 OFFCURVE",
"284 -28 CURVE SMOOTH",
"284 -13 LINE SMOOTH",
"284 -6 OFFCURVE",
"277 0 OFFCURVE",
"270 0 CURVE SMOOTH",
"152 0 LINE SMOOTH",
"91 0 OFFCURVE",
"40 49 OFFCURVE",
"40 112 CURVE SMOOTH",
"40 406 LINE SMOOTH",
"40 468 OFFCURVE",
"91 518 OFFCURVE",
"152 518 CURVE SMOOTH",
"291 518 LINE SMOOTH",
"352 518 OFFCURVE",
"402 468 OFFCURVE",
"402 406 CURVE SMOOTH",
"402 -48 LINE SMOOTH"
);
},
{
closed = 1;
nodes = (
"284 385 LINE SMOOTH",
"284 393 OFFCURVE",
"277 399 OFFCURVE",
"270 399 CURVE SMOOTH",
"173 399 LINE SMOOTH",
"166 399 OFFCURVE",
"159 393 OFFCURVE",
"159 385 CURVE SMOOTH",
"159 131 LINE SMOOTH",
"159 124 OFFCURVE",
"166 118 OFFCURVE",
"173 118 CURVE SMOOTH",
"270 118 LINE SMOOTH",
"277 118 OFFCURVE",
"284 124 OFFCURVE",
"284 131 CURVE SMOOTH"
);
}
);
width = 443;
}
);
unicode = 0067;
},
{
glyphname = h;
lastChange = "2020-11-04 22:21:30 +0000";
layers = (
{
layerId = master01;
paths = (
{
closed = 1;
nodes = (
"402 21 OFFCURVE",
"382 0 OFFCURVE",
"357 0 CURVE SMOOTH",
"329 0 LINE SMOOTH",
"304 0 OFFCURVE",
"284 21 OFFCURVE",
"284 46 CURVE SMOOTH",
"284 385 LINE SMOOTH",
"284 393 OFFCURVE",
"277 399 OFFCURVE",
"270 399 CURVE SMOOTH",
"173 399 LINE SMOOTH",
"166 399 OFFCURVE",
"159 393 OFFCURVE",
"159 385 CURVE SMOOTH",
"159 46 LINE SMOOTH",
"159 21 OFFCURVE",
"139 0 OFFCURVE",
"114 0 CURVE SMOOTH",
"86 0 LINE SMOOTH",
"61 0 OFFCURVE",
"40 21 OFFCURVE",
"40 46 CURVE SMOOTH",
"40 630 LINE SMOOTH",
"40 656 OFFCURVE",
"61 676 OFFCURVE",
"86 676 CURVE SMOOTH",
"114 676 LINE SMOOTH",
"139 676 OFFCURVE",
"159 656 OFFCURVE",
"159 630 CURVE SMOOTH",
"159 530 LINE SMOOTH",
"159 523 OFFCURVE",
"166 518 OFFCURVE",
"173 518 CURVE SMOOTH",
"291 518 LINE SMOOTH",
"352 518 OFFCURVE",
"402 468 OFFCURVE",
"402 406 CURVE SMOOTH",
"402 46 LINE SMOOTH"
);
}
);
width = 443;
}
);
unicode = 0068;
},
{
glyphname = i;
lastChange = "2020-11-04 22:21:30 +0000";
layers = (
{
layerId = master01;
paths = (
{
closed = 1;
nodes = (
"191 570 OFFCURVE",
"156 536 OFFCURVE",
"116 536 CURVE SMOOTH",
"75 536 OFFCURVE",
"40 570 OFFCURVE",
"40 612 CURVE SMOOTH",
"40 652 OFFCURVE",
"75 687 OFFCURVE",
"116 687 CURVE SMOOTH",
"156 687 OFFCURVE",
"191 652 OFFCURVE",
"191 612 CURVE SMOOTH"
);
},
{
closed = 1;
nodes = (
"175 21 OFFCURVE",
"154 0 OFFCURVE",
"129 0 CURVE SMOOTH",
"102 0 LINE SMOOTH",
"77 0 OFFCURVE",
"56 21 OFFCURVE",
"56 46 CURVE SMOOTH",
"56 461 LINE SMOOTH",
"56 486 OFFCURVE",
"77 507 OFFCURVE",
"102 507 CURVE SMOOTH",
"129 507 LINE SMOOTH",
"154 507 OFFCURVE",
"175 486 OFFCURVE",
"175 461 CURVE SMOOTH",
"175 46 LINE SMOOTH"
);
}
);
width = 231;
}
);
unicode = 0069;
},
{
glyphname = idotless;
lastChange = "2020-11-04 22:21:30 +0000";
layers = (
{
layerId = master01;
paths = (
{
closed = 1;
nodes = (
"158 20 OFFCURVE",
"138 0 OFFCURVE",
"113 0 CURVE SMOOTH",
"85 0 LINE SMOOTH",
"60 0 OFFCURVE",
"40 20 OFFCURVE",
"40 46 CURVE SMOOTH",
"40 472 LINE SMOOTH",
"40 497 OFFCURVE",
"60 517 OFFCURVE",
"85 517 CURVE SMOOTH",
"113 517 LINE SMOOTH",
"138 517 OFFCURVE",
"158 497 OFFCURVE",
"158 472 CURVE SMOOTH",
"158 46 LINE SMOOTH"
);
}
);
width = 198;
}
);
unicode = 0131;
},
{
glyphname = iacute;
lastChange = "2020-11-04 22:21:30 +0000";
layers = (
{
layerId = master01;
paths = (
{
closed = 1;
nodes = (
"160 588 LINE SMOOTH",
"154 569 OFFCURVE",
"137 557 OFFCURVE",
"116 557 CURVE SMOOTH",
"87 557 LINE SMOOTH",
"74 557 OFFCURVE",
"60 564 OFFCURVE",
"51 575 CURVE",
"43 588 OFFCURVE",
"40 603 OFFCURVE",
"45 616 CURVE SMOOTH",
"68 687 LINE SMOOTH",
"74 705 OFFCURVE",
"91 718 OFFCURVE",
"112 718 CURVE SMOOTH",
"140 718 LINE SMOOTH",
"154 718 OFFCURVE",
"168 711 OFFCURVE",
"177 699 CURVE SMOOTH",
"185 688 OFFCURVE",
"187 672 OFFCURVE",
"183 658 CURVE SMOOTH"
);
},
{
closed = 1;
nodes = (
"161 21 OFFCURVE",
"140 0 OFFCURVE",
"115 0 CURVE SMOOTH",
"87 0 LINE SMOOTH",
"62 0 OFFCURVE",
"43 21 OFFCURVE",
"43 46 CURVE SMOOTH",
"43 471 LINE SMOOTH",
"43 497 OFFCURVE",
"62 518 OFFCURVE",
"87 518 CURVE SMOOTH",
"115 518 LINE SMOOTH",
"140 518 OFFCURVE",
"161 497 OFFCURVE",
"161 471 CURVE SMOOTH",
"161 46 LINE SMOOTH"
);
}
);
width = 232;
}
);
unicode = 00ED;
},
{
glyphname = icircumflex;
lastChange = "2020-11-04 22:21:30 +0000";
layers = (
{
layerId = master01;
paths = (
{
closed = 1;
nodes = (
"325 565 OFFCURVE",
"311 557 OFFCURVE",
"293 557 CURVE SMOOTH",
"262 557 LINE SMOOTH",
"246 557 OFFCURVE",
"231 565 OFFCURVE",
"223 580 CURVE",
"217 589 LINE SMOOTH",
"213 596 OFFCURVE",
"206 599 OFFCURVE",
"198 599 CURVE SMOOTH",
"182 599 LINE SMOOTH",
"174 599 OFFCURVE",
"167 596 OFFCURVE",
"162 589 CURVE SMOOTH",
"156 580 LINE",
"148 565 OFFCURVE",
"133 557 OFFCURVE",
"117 557 CURVE SMOOTH",
"86 557 LINE SMOOTH",
"69 557 OFFCURVE",
"54 565 OFFCURVE",
"46 580 CURVE SMOOTH",
"38 593 OFFCURVE",
"38 611 OFFCURVE",
"46 624 CURVE SMOOTH",
"87 696 LINE SMOOTH",
"95 710 OFFCURVE",
"110 718 OFFCURVE",
"127 718 CURVE SMOOTH",
"253 718 LINE SMOOTH",
"269 718 OFFCURVE",
"284 710 OFFCURVE",
"293 696 CURVE",
"334 624 LINE SMOOTH",
"342 611 OFFCURVE",
"342 593 OFFCURVE",
"334 580 CURVE SMOOTH"
);
},
{
closed = 1;
nodes = (
"250 21 OFFCURVE",
"229 0 OFFCURVE",
"204 0 CURVE SMOOTH",
"176 0 LINE SMOOTH",
"151 0 OFFCURVE",
"130 21 OFFCURVE",
"130 46 CURVE SMOOTH",
"130 471 LINE SMOOTH",
"130 497 OFFCURVE",
"151 518 OFFCURVE",
"176 518 CURVE SMOOTH",
"204 518 LINE SMOOTH",
"229 518 OFFCURVE",
"250 497 OFFCURVE",
"250 471 CURVE SMOOTH",
"250 46 LINE SMOOTH"
);
}
);
width = 380;
}
);
unicode = 00EE;
},
{
glyphname = idieresis;
lastChange = "2020-11-04 22:21:30 +0000";
layers = (
{
layerId = master01;
paths = (
{
closed = 1;
nodes = (
"362 589 OFFCURVE",
"329 555 OFFCURVE",
"287 555 CURVE SMOOTH",
"246 555 OFFCURVE",
"213 589 OFFCURVE",
"213 630 CURVE SMOOTH",
"213 672 OFFCURVE",
"246 705 OFFCURVE",
"287 705 CURVE SMOOTH",
"329 705 OFFCURVE",
"362 672 OFFCURVE",
"362 630 CURVE SMOOTH"
);
},
{
closed = 1;
nodes = (
"189 589 OFFCURVE",
"155 555 OFFCURVE",
"114 555 CURVE SMOOTH",
"72 555 OFFCURVE",
"39 589 OFFCURVE",
"39 630 CURVE SMOOTH",
"39 672 OFFCURVE",
"72 705 OFFCURVE",
"114 705 CURVE SMOOTH",
"155 705 OFFCURVE",
"189 672 OFFCURVE",
"189 630 CURVE SMOOTH"
);
},
{
closed = 1;
nodes = (
"260 21 OFFCURVE",
"239 0 OFFCURVE",
"214 0 CURVE SMOOTH",
"187 0 LINE SMOOTH",
"162 0 OFFCURVE",
"141 21 OFFCURVE",
"141 46 CURVE SMOOTH",
"141 471 LINE SMOOTH",
"141 497 OFFCURVE",
"162 518 OFFCURVE",
"187 518 CURVE SMOOTH",
"214 518 LINE SMOOTH",
"239 518 OFFCURVE",
"260 497 OFFCURVE",
"260 471 CURVE SMOOTH",
"260 46 LINE SMOOTH"
);
}
);
width = 401;
}
);
unicode = 00EF;
},
{
glyphname = igrave;
lastChange = "2020-11-04 22:21:30 +0000";
layers = (
{
layerId = master01;
paths = (
{
closed = 1;
nodes = (
"186 603 OFFCURVE",
"184 588 OFFCURVE",
"176 575 CURVE",
"167 564 OFFCURVE",
"153 557 OFFCURVE",
"139 557 CURVE SMOOTH",
"110 557 LINE SMOOTH",
"90 557 OFFCURVE",
"72 569 OFFCURVE",
"67 588 CURVE SMOOTH",
"44 658 LINE SMOOTH",
"39 672 OFFCURVE",
"41 688 OFFCURVE",
"49 699 CURVE SMOOTH",
"59 711 OFFCURVE",
"72 718 OFFCURVE",
"86 718 CURVE SMOOTH",
"115 718 LINE SMOOTH",
"136 718 OFFCURVE",
"153 705 OFFCURVE",
"159 687 CURVE SMOOTH",
"182 616 LINE SMOOTH"
);
},
{
closed = 1;
nodes = (
"184 21 OFFCURVE",
"164 0 OFFCURVE",
"139 0 CURVE SMOOTH",
"112 0 LINE SMOOTH",
"86 0 OFFCURVE",
"66 21 OFFCURVE",
"66 46 CURVE SMOOTH",
"66 471 LINE SMOOTH",
"66 497 OFFCURVE",
"86 518 OFFCURVE",
"112 518 CURVE SMOOTH",
"139 518 LINE SMOOTH",
"164 518 OFFCURVE",
"184 497 OFFCURVE",
"184 471 CURVE SMOOTH",
"184 46 LINE SMOOTH"
);
}
);
width = 232;
}
);
unicode = 00EC;
},
{
glyphname = j;
lastChange = "2020-11-04 22:21:30 +0000";
layers = (
{
layerId = master01;
paths = (
{
closed = 1;
nodes = (
"256 570 OFFCURVE",
"222 536 OFFCURVE",
"181 536 CURVE SMOOTH",
"139 536 OFFCURVE",
"106 570 OFFCURVE",
"106 612 CURVE SMOOTH",
"106 652 OFFCURVE",
"139 687 OFFCURVE",
"181 687 CURVE SMOOTH",
"222 687 OFFCURVE",
"256 652 OFFCURVE",
"256 612 CURVE SMOOTH"
);
},
{
closed = 1;
nodes = (
"240 -109 OFFCURVE",
"191 -160 OFFCURVE",
"129 -160 CURVE SMOOTH",
"86 -160 LINE SMOOTH",
"61 -160 OFFCURVE",
"40 -139 OFFCURVE",
"40 -114 CURVE SMOOTH",
"40 -86 LINE SMOOTH",
"40 -61 OFFCURVE",
"61 -41 OFFCURVE",
"86 -41 CURVE SMOOTH",
"109 -41 LINE SMOOTH",
"116 -41 OFFCURVE",
"122 -35 OFFCURVE",
"122 -28 CURVE SMOOTH",
"122 461 LINE SMOOTH",
"122 486 OFFCURVE",
"143 507 OFFCURVE",
"167 507 CURVE SMOOTH",
"194 507 LINE SMOOTH",
"220 507 OFFCURVE",
"240 486 OFFCURVE",
"240 461 CURVE SMOOTH",
"240 -48 LINE SMOOTH"
);
}
);
width = 297;
}
);
unicode = 006A;
},
{
glyphname = k;
lastChange = "2020-11-04 22:21:30 +0000";
layers = (
{
layerId = master01;
paths = (
{
closed = 1;
nodes = (
"391 10 OFFCURVE",
"375 0 OFFCURVE",
"357 0 CURVE SMOOTH",
"320 0 LINE SMOOTH",
"307 0 OFFCURVE",
"294 6 OFFCURVE",
"285 15 CURVE SMOOTH",
"168 144 LINE SMOOTH",
"166 147 OFFCURVE",
"160 145 OFFCURVE",
"160 140 CURVE SMOOTH",
"160 46 LINE SMOOTH",
"160 21 OFFCURVE",
"139 0 OFFCURVE",
"114 0 CURVE SMOOTH",
"86 0 LINE SMOOTH",
"61 0 OFFCURVE",
"40 21 OFFCURVE",
"40 46 CURVE SMOOTH",
"40 630 LINE SMOOTH",
"40 656 OFFCURVE",
"61 676 OFFCURVE",
"86 676 CURVE SMOOTH",
"114 676 LINE SMOOTH",
"139 676 OFFCURVE",
"160 656 OFFCURVE",
"160 630 CURVE SMOOTH",
"160 377 LINE SMOOTH",
"160 373 OFFCURVE",
"166 370 OFFCURVE",
"168 374 CURVE SMOOTH",
"274 489 LINE SMOOTH",
"282 498 OFFCURVE",
"294 504 OFFCURVE",
"307 504 CURVE SMOOTH",
"344 504 LINE SMOOTH",
"362 504 OFFCURVE",
"378 493 OFFCURVE",
"386 476 CURVE SMOOTH",
"393 460 OFFCURVE",
"390 440 OFFCURVE",
"378 428 CURVE SMOOTH",
"233 268 LINE",
"228 263 OFFCURVE",
"228 254 OFFCURVE",
"233 250 CURVE",
"390 77 LINE SMOOTH",
"402 63 OFFCURVE",
"406 44 OFFCURVE",
"398 28 CURVE"
);
}
);
width = 443;
}
);
unicode = 006B;
},
{
glyphname = l;
lastChange = "2020-11-04 22:21:30 +0000";
layers = (
{
layerId = master01;
paths = (
{
closed = 1;
nodes = (
"222 21 OFFCURVE",
"201 0 OFFCURVE",
"176 0 CURVE SMOOTH",
"151 0 LINE SMOOTH",
"90 0 OFFCURVE",
"39 49 OFFCURVE",
"39 112 CURVE SMOOTH",
"39 630 LINE SMOOTH",
"39 656 OFFCURVE",
"60 676 OFFCURVE",
"85 676 CURVE SMOOTH",
"113 676 LINE SMOOTH",
"138 676 OFFCURVE",
"159 656 OFFCURVE",
"159 630 CURVE SMOOTH",
"159 131 LINE SMOOTH",
"159 124 OFFCURVE",
"164 118 OFFCURVE",
"171 118 CURVE SMOOTH",
"176 118 LINE SMOOTH",
"201 118 OFFCURVE",
"222 98 OFFCURVE",
"222 72 CURVE SMOOTH",
"222 46 LINE SMOOTH"
);
}
);
width = 261;
}
);
unicode = 006C;
},
{
glyphname = lslash;
lastChange = "2020-11-04 22:21:30 +0000";
layers = (
{
layerId = master01;
paths = (
{
closed = 1;
nodes = (
"275 21 OFFCURVE",
"254 0 OFFCURVE",
"229 0 CURVE SMOOTH",
"204 0 LINE SMOOTH",
"143 0 OFFCURVE",
"93 50 OFFCURVE",
"93 111 CURVE SMOOTH",
"93 240 LINE SMOOTH",
"93 247 OFFCURVE",
"88 253 OFFCURVE",
"81 254 CURVE SMOOTH",
"73 255 OFFCURVE",
"66 258 OFFCURVE",
"60 262 CURVE SMOOTH",
"48 270 OFFCURVE",
"40 284 OFFCURVE",
"40 299 CURVE SMOOTH",
"40 329 LINE SMOOTH",
"40 348 OFFCURVE",
"52 365 OFFCURVE",
"70 371 CURVE SMOOTH",
"81 375 LINE SMOOTH",
"88 378 OFFCURVE",
"93 385 OFFCURVE",
"93 393 CURVE SMOOTH",
"93 630 LINE SMOOTH",
"93 656 OFFCURVE",
"113 676 OFFCURVE",
"138 676 CURVE SMOOTH",
"166 676 LINE SMOOTH",
"191 676 OFFCURVE",
"212 656 OFFCURVE",
"212 630 CURVE SMOOTH",
"212 436 LINE SMOOTH",
"212 429 OFFCURVE",
"217 424 OFFCURVE",
"224 423 CURVE SMOOTH",
"232 423 OFFCURVE",
"240 420 OFFCURVE",
"247 415 CURVE SMOOTH",
"259 407 OFFCURVE",
"267 393 OFFCURVE",
"267 378 CURVE SMOOTH",
"267 348 LINE SMOOTH",
"267 329 OFFCURVE",
"255 312 OFFCURVE",
"237 306 CURVE SMOOTH",
"224 301 LINE SMOOTH",
"216 298 OFFCURVE",
"212 291 OFFCURVE",
"212 284 CURVE SMOOTH",
"212 132 LINE SMOOTH",
"212 125 OFFCURVE",
"217 119 OFFCURVE",
"225 119 CURVE SMOOTH",
"229 119 LINE SMOOTH",
"254 119 OFFCURVE",
"275 98 OFFCURVE",
"275 73 CURVE SMOOTH",
"275 46 LINE SMOOTH"
);
}
);
width = 315;
}
);
unicode = 0142;
},
{
glyphname = m;
lastChange = "2020-11-04 22:21:30 +0000";
layers = (
{
layerId = master01;
paths = (
{
closed = 1;
nodes = (
"527 21 OFFCURVE",
"506 0 OFFCURVE",
"481 0 CURVE SMOOTH",
"453 0 LINE SMOOTH",
"428 0 OFFCURVE",
"407 21 OFFCURVE",
"407 46 CURVE SMOOTH",
"407 385 LINE SMOOTH",
"407 393 OFFCURVE",
"401 399 OFFCURVE",
"394 399 CURVE SMOOTH",
"355 399 LINE SMOOTH",
"348 399 OFFCURVE",
"343 393 OFFCURVE",
"343 385 CURVE SMOOTH",
"343 46 LINE SMOOTH",
"343 21 OFFCURVE",
"322 0 OFFCURVE",
"297 0 CURVE SMOOTH",
"270 0 LINE SMOOTH",
"245 0 OFFCURVE",
"224 21 OFFCURVE",
"224 46 CURVE SMOOTH",
"224 385 LINE SMOOTH",
"224 393 OFFCURVE",
"218 399 OFFCURVE",
"212 399 CURVE SMOOTH",
"173 399 LINE SMOOTH",
"166 399 OFFCURVE",
"160 393 OFFCURVE",
"160 385 CURVE SMOOTH",
"160 46 LINE SMOOTH",
"160 21 OFFCURVE",
"139 0 OFFCURVE",
"114 0 CURVE SMOOTH",
"86 0 LINE SMOOTH",
"61 0 OFFCURVE",
"40 21 OFFCURVE",
"40 46 CURVE SMOOTH",
"40 406 LINE SMOOTH",
"40 468 OFFCURVE",
"91 518 OFFCURVE",
"152 518 CURVE SMOOTH",
"231 518 LINE SMOOTH",
"246 518 OFFCURVE",
"259 515 OFFCURVE",
"271 509 CURVE",
"279 507 OFFCURVE",
"287 507 OFFCURVE",
"296 509 CURVE",
"308 515 OFFCURVE",
"322 518 OFFCURVE",
"336 518 CURVE SMOOTH",
"415 518 LINE SMOOTH",
"476 518 OFFCURVE",
"527 468 OFFCURVE",
"527 406 CURVE SMOOTH",
"527 46 LINE SMOOTH"
);
}
);
width = 567;
}
);
unicode = 006D;
},
{
glyphname = n;
lastChange = "2020-11-04 22:21:30 +0000";
layers = (
{
layerId = master01;
paths = (
{
closed = 1;
nodes = (
"402 21 OFFCURVE",
"382 0 OFFCURVE",
"357 0 CURVE SMOOTH",
"329 0 LINE SMOOTH",
"304 0 OFFCURVE",
"284 21 OFFCURVE",
"284 46 CURVE SMOOTH",
"284 385 LINE SMOOTH",
"284 393 OFFCURVE",
"277 399 OFFCURVE",
"270 399 CURVE SMOOTH",
"173 399 LINE SMOOTH",
"166 399 OFFCURVE",
"159 393 OFFCURVE",
"159 385 CURVE SMOOTH",
"159 46 LINE SMOOTH",
"159 21 OFFCURVE",
"139 0 OFFCURVE",
"114 0 CURVE SMOOTH",
"86 0 LINE SMOOTH",
"61 0 OFFCURVE",
"40 21 OFFCURVE",
"40 46 CURVE SMOOTH",
"40 406 LINE SMOOTH",
"40 468 OFFCURVE",
"91 518 OFFCURVE",
"152 518 CURVE SMOOTH",
"291 518 LINE SMOOTH",
"352 518 OFFCURVE",
"402 468 OFFCURVE",
"402 406 CURVE SMOOTH",
"402 46 LINE SMOOTH"
);
}
);
width = 443;
}
);
unicode = 006E;
},
{
glyphname = ntilde;
lastChange = "2020-11-04 22:21:30 +0000";
layers = (
{
layerId = master01;
paths = (
{
closed = 1;
nodes = (
"404 681 OFFCURVE",
"404 664 OFFCURVE",
"396 650 CURVE SMOOTH",
"354 580 LINE",
"346 565 OFFCURVE",
"331 557 OFFCURVE",
"315 557 CURVE SMOOTH",
"282 557 LINE SMOOTH",
"276 557 OFFCURVE",
"270 558 OFFCURVE",
"265 560 CURVE SMOOTH",
"200 585 LINE SMOOTH",
"193 588 OFFCURVE",
"185 585 OFFCURVE",
"182 578 CURVE SMOOTH",
"173 565 OFFCURVE",
"158 557 OFFCURVE",
"141 557 CURVE SMOOTH",
"110 557 LINE SMOOTH",
"94 557 OFFCURVE",
"79 565 OFFCURVE",
"71 580 CURVE",
"62 593 OFFCURVE",
"62 611 OFFCURVE",
"71 624 CURVE",
"112 696 LINE SMOOTH",
"120 710 OFFCURVE",
"135 718 OFFCURVE",
"151 718 CURVE SMOOTH",
"184 718 LINE SMOOTH",
"190 718 OFFCURVE",
"195 718 OFFCURVE",
"200 715 CURVE SMOOTH",
"266 689 LINE SMOOTH",
"273 687 OFFCURVE",
"281 689 OFFCURVE",
"284 696 CURVE SMOOTH",
"293 710 OFFCURVE",
"308 718 OFFCURVE",
"324 718 CURVE SMOOTH",
"355 718 LINE SMOOTH",
"373 718 OFFCURVE",
"388 710 OFFCURVE",
"396 696 CURVE SMOOTH"
);
},
{
closed = 1;
nodes = (
"402 21 OFFCURVE",
"382 0 OFFCURVE",
"357 0 CURVE SMOOTH",
"329 0 LINE SMOOTH",
"304 0 OFFCURVE",
"284 21 OFFCURVE",
"284 46 CURVE SMOOTH",
"284 385 LINE SMOOTH",
"284 393 OFFCURVE",
"277 399 OFFCURVE",
"270 399 CURVE SMOOTH",
"173 399 LINE SMOOTH",
"166 399 OFFCURVE",
"159 393 OFFCURVE",
"159 385 CURVE SMOOTH",
"159 46 LINE SMOOTH",
"159 21 OFFCURVE",
"139 0 OFFCURVE",
"114 0 CURVE SMOOTH",
"86 0 LINE SMOOTH",
"61 0 OFFCURVE",
"40 21 OFFCURVE",
"40 46 CURVE SMOOTH",
"40 406 LINE SMOOTH",
"40 468 OFFCURVE",
"91 518 OFFCURVE",
"152 518 CURVE SMOOTH",
"291 518 LINE SMOOTH",
"352 518 OFFCURVE",
"402 468 OFFCURVE",
"402 406 CURVE SMOOTH",
"402 46 LINE SMOOTH"
);
}
);
width = 443;
}
);
unicode = 00F1;
},
{
glyphname = o;
lastChange = "2020-11-04 22:21:30 +0000";
layers = (
{
layerId = master01;
paths = (
{
closed = 1;
nodes = (
"402 49 OFFCURVE",
"352 0 OFFCURVE",
"291 0 CURVE SMOOTH",
"152 0 LINE SMOOTH",
"91 0 OFFCURVE",
"40 49 OFFCURVE",
"40 112 CURVE SMOOTH",
"40 406 LINE SMOOTH",
"40 468 OFFCURVE",
"91 518 OFFCURVE",
"152 518 CURVE SMOOTH",
"291 518 LINE SMOOTH",
"352 518 OFFCURVE",
"402 468 OFFCURVE",
"402 406 CURVE SMOOTH",
"402 112 LINE SMOOTH"
);
},
{
closed = 1;
nodes = (
"284 385 LINE SMOOTH",
"284 393 OFFCURVE",
"277 399 OFFCURVE",
"270 399 CURVE SMOOTH",
"173 399 LINE SMOOTH",
"166 399 OFFCURVE",
"159 393 OFFCURVE",
"159 385 CURVE SMOOTH",
"159 131 LINE SMOOTH",
"159 124 OFFCURVE",
"166 118 OFFCURVE",
"173 118 CURVE SMOOTH",
"270 118 LINE SMOOTH",
"277 118 OFFCURVE",
"284 124 OFFCURVE",
"284 131 CURVE SMOOTH"
);
}
);
width = 443;
}
);
unicode = 006F;
},
{
glyphname = oacute;
lastChange = "2020-11-04 22:21:30 +0000";
layers = (
{
layerId = master01;
paths = (
{
closed = 1;
nodes = (
"263 588 LINE",
"256 569 OFFCURVE",
"239 557 OFFCURVE",
"220 557 CURVE SMOOTH",
"191 557 LINE SMOOTH",
"176 557 OFFCURVE",
"162 564 OFFCURVE",
"154 575 CURVE SMOOTH",
"145 588 OFFCURVE",
"143 603 OFFCURVE",
"147 616 CURVE SMOOTH",
"170 687 LINE",
"177 705 OFFCURVE",
"194 718 OFFCURVE",
"214 718 CURVE SMOOTH",
"243 718 LINE SMOOTH",
"258 718 OFFCURVE",
"271 711 OFFCURVE",
"279 699 CURVE SMOOTH",
"289 688 OFFCURVE",
"291 672 OFFCURVE",
"286 658 CURVE SMOOTH"
);
},
{
closed = 1;
nodes = (
"402 49 OFFCURVE",
"352 0 OFFCURVE",
"291 0 CURVE SMOOTH",
"152 0 LINE SMOOTH",
"91 0 OFFCURVE",
"40 49 OFFCURVE",
"40 112 CURVE SMOOTH",
"40 406 LINE SMOOTH",
"40 468 OFFCURVE",
"91 518 OFFCURVE",
"152 518 CURVE SMOOTH",
"291 518 LINE SMOOTH",
"352 518 OFFCURVE",
"402 468 OFFCURVE",
"402 406 CURVE SMOOTH",
"402 112 LINE SMOOTH"
);
},
{
closed = 1;
nodes = (
"284 385 LINE SMOOTH",
"284 393 OFFCURVE",
"277 399 OFFCURVE",
"270 399 CURVE SMOOTH",
"173 399 LINE SMOOTH",
"166 399 OFFCURVE",
"159 393 OFFCURVE",
"159 385 CURVE SMOOTH",
"159 131 LINE SMOOTH",
"159 124 OFFCURVE",
"166 118 OFFCURVE",
"173 118 CURVE SMOOTH",
"270 118 LINE SMOOTH",
"277 118 OFFCURVE",
"284 124 OFFCURVE",
"284 131 CURVE SMOOTH"
);
}
);
width = 443;
}
);
unicode = 00F3;
},
{
glyphname = ocircumflex;
lastChange = "2020-11-04 22:21:30 +0000";
layers = (
{
layerId = master01;
paths = (
{
closed = 1;
nodes = (
"357 565 OFFCURVE",
"342 557 OFFCURVE",
"325 557 CURVE SMOOTH",
"293 557 LINE SMOOTH",
"277 557 OFFCURVE",
"262 565 OFFCURVE",
"254 580 CURVE",
"248 589 LINE",
"245 596 OFFCURVE",
"238 599 OFFCURVE",
"230 599 CURVE SMOOTH",
"213 599 LINE SMOOTH",
"205 599 OFFCURVE",
"198 596 OFFCURVE",
"194 589 CURVE",
"189 580 LINE",
"181 565 OFFCURVE",
"166 557 OFFCURVE",
"150 557 CURVE SMOOTH",
"117 557 LINE SMOOTH",
"101 557 OFFCURVE",
"86 565 OFFCURVE",
"78 580 CURVE SMOOTH",
"70 593 OFFCURVE",
"70 611 OFFCURVE",
"78 624 CURVE SMOOTH",
"118 696 LINE SMOOTH",
"127 710 OFFCURVE",
"141 718 OFFCURVE",
"158 718 CURVE SMOOTH",
"285 718 LINE SMOOTH",
"301 718 OFFCURVE",
"316 710 OFFCURVE",
"324 696 CURVE SMOOTH",
"365 624 LINE SMOOTH",
"373 611 OFFCURVE",
"373 593 OFFCURVE",
"365 580 CURVE SMOOTH"
);
},
{
closed = 1;
nodes = (
"402 49 OFFCURVE",
"352 0 OFFCURVE",
"291 0 CURVE SMOOTH",
"152 0 LINE SMOOTH",
"91 0 OFFCURVE",
"40 49 OFFCURVE",
"40 112 CURVE SMOOTH",
"40 406 LINE SMOOTH",
"40 468 OFFCURVE",
"91 518 OFFCURVE",
"152 518 CURVE SMOOTH",
"291 518 LINE SMOOTH",
"352 518 OFFCURVE",
"402 468 OFFCURVE",
"402 406 CURVE SMOOTH",
"402 112 LINE SMOOTH"
);
},
{
closed = 1;
nodes = (
"284 385 LINE SMOOTH",
"284 393 OFFCURVE",
"278 399 OFFCURVE",
"270 399 CURVE SMOOTH",
"173 399 LINE SMOOTH",
"166 399 OFFCURVE",
"159 393 OFFCURVE",
"159 385 CURVE SMOOTH",
"159 131 LINE SMOOTH",
"159 124 OFFCURVE",
"166 118 OFFCURVE",
"173 118 CURVE SMOOTH",
"270 118 LINE SMOOTH",
"278 118 OFFCURVE",
"284 124 OFFCURVE",
"284 131 CURVE SMOOTH"
);
}
);
width = 443;
}
);
unicode = 00F4;
},
{
glyphname = odieresis;
lastChange = "2020-11-04 22:21:30 +0000";
layers = (
{
layerId = master01;
paths = (
{
closed = 1;
nodes = (
"383 589 OFFCURVE",
"350 555 OFFCURVE",
"308 555 CURVE SMOOTH",
"267 555 OFFCURVE",
"233 589 OFFCURVE",
"233 630 CURVE SMOOTH",
"233 672 OFFCURVE",
"267 705 OFFCURVE",
"308 705 CURVE SMOOTH",
"350 705 OFFCURVE",
"383 672 OFFCURVE",
"383 630 CURVE SMOOTH"
);
},
{
closed = 1;
nodes = (
"209 589 OFFCURVE",
"176 555 OFFCURVE",
"135 555 CURVE SMOOTH",
"93 555 OFFCURVE",
"60 589 OFFCURVE",
"60 630 CURVE SMOOTH",
"60 672 OFFCURVE",
"93 705 OFFCURVE",
"135 705 CURVE SMOOTH",
"176 705 OFFCURVE",
"209 672 OFFCURVE",
"209 630 CURVE SMOOTH"
);
},
{
closed = 1;
nodes = (
"402 49 OFFCURVE",
"352 0 OFFCURVE",
"291 0 CURVE SMOOTH",
"152 0 LINE SMOOTH",
"91 0 OFFCURVE",
"40 49 OFFCURVE",
"40 112 CURVE SMOOTH",
"40 406 LINE SMOOTH",
"40 468 OFFCURVE",
"91 518 OFFCURVE",
"152 518 CURVE SMOOTH",
"291 518 LINE SMOOTH",
"352 518 OFFCURVE",
"402 468 OFFCURVE",
"402 406 CURVE SMOOTH",
"402 112 LINE SMOOTH"
);
},
{
closed = 1;
nodes = (
"284 385 LINE SMOOTH",
"284 393 OFFCURVE",
"278 399 OFFCURVE",
"270 399 CURVE SMOOTH",
"173 399 LINE SMOOTH",
"166 399 OFFCURVE",
"159 393 OFFCURVE",
"159 385 CURVE SMOOTH",
"159 131 LINE SMOOTH",
"159 124 OFFCURVE",
"166 118 OFFCURVE",
"173 118 CURVE SMOOTH",
"270 118 LINE SMOOTH",
"278 118 OFFCURVE",
"284 124 OFFCURVE",
"284 131 CURVE SMOOTH"
);
}
);
width = 443;
}
);
unicode = 00F6;
},
{
glyphname = ograve;
lastChange = "2020-11-04 22:21:30 +0000";
layers = (
{
layerId = master01;
paths = (
{
closed = 1;
nodes = (
"284 603 OFFCURVE",
"282 588 OFFCURVE",
"273 575 CURVE SMOOTH",
"265 564 OFFCURVE",
"251 557 OFFCURVE",
"236 557 CURVE SMOOTH",
"207 557 LINE SMOOTH",
"187 557 OFFCURVE",
"170 569 OFFCURVE",
"163 588 CURVE",
"140 658 LINE SMOOTH",
"136 672 OFFCURVE",
"138 688 OFFCURVE",
"147 699 CURVE SMOOTH",
"155 711 OFFCURVE",
"169 718 OFFCURVE",
"184 718 CURVE SMOOTH",
"213 718 LINE SMOOTH",
"232 718 OFFCURVE",
"250 705 OFFCURVE",
"256 687 CURVE",
"279 616 LINE SMOOTH"
);
},
{
closed = 1;
nodes = (
"402 49 OFFCURVE",
"352 0 OFFCURVE",
"291 0 CURVE SMOOTH",
"152 0 LINE SMOOTH",
"91 0 OFFCURVE",
"40 49 OFFCURVE",
"40 112 CURVE SMOOTH",
"40 406 LINE SMOOTH",
"40 468 OFFCURVE",
"91 518 OFFCURVE",
"152 518 CURVE SMOOTH",
"291 518 LINE SMOOTH",
"352 518 OFFCURVE",
"402 468 OFFCURVE",
"402 406 CURVE SMOOTH",
"402 112 LINE SMOOTH"
);
},
{
closed = 1;
nodes = (
"284 385 LINE SMOOTH",
"284 393 OFFCURVE",
"277 399 OFFCURVE",
"270 399 CURVE SMOOTH",
"173 399 LINE SMOOTH",
"166 399 OFFCURVE",
"159 393 OFFCURVE",
"159 385 CURVE SMOOTH",
"159 131 LINE SMOOTH",
"159 124 OFFCURVE",
"166 118 OFFCURVE",
"173 118 CURVE SMOOTH",
"270 118 LINE SMOOTH",
"277 118 OFFCURVE",
"284 124 OFFCURVE",
"284 131 CURVE SMOOTH"
);
}
);
width = 443;
}
);
unicode = 00F2;
},
{
glyphname = oslash;
lastChange = "2020-11-04 22:21:30 +0000";
layers = (
{
layerId = master01;
paths = (
{
closed = 1;
nodes = (
"427 468 LINE SMOOTH",
"423 461 OFFCURVE",
"422 452 OFFCURVE",
"424 445 CURVE SMOOTH",
"429 432 OFFCURVE",
"431 420 OFFCURVE",
"431 406 CURVE SMOOTH",
"431 112 LINE SMOOTH",
"431 49 OFFCURVE",
"382 0 OFFCURVE",
"321 0 CURVE SMOOTH",
"190 0 LINE SMOOTH",
"182 0 OFFCURVE",
"175 -5 OFFCURVE",
"170 -12 CURVE",
"158 -37 LINE SMOOTH",
"150 -52 OFFCURVE",
"133 -61 OFFCURVE",
"117 -61 CURVE SMOOTH",
"86 -61 LINE SMOOTH",
"70 -61 OFFCURVE",
"55 -52 OFFCURVE",
"47 -38 CURVE SMOOTH",
"39 -24 OFFCURVE",
"38 -8 OFFCURVE",
"46 7 CURVE SMOOTH",
"72 56 LINE SMOOTH",
"76 63 OFFCURVE",
"77 72 OFFCURVE",
"75 79 CURVE SMOOTH",
"71 90 OFFCURVE",
"70 100 OFFCURVE",
"70 112 CURVE SMOOTH",
"70 406 LINE SMOOTH",
"70 467 OFFCURVE",
"120 518 OFFCURVE",
"182 518 CURVE SMOOTH",
"305 518 LINE SMOOTH",
"313 518 OFFCURVE",
"321 522 OFFCURVE",
"324 529 CURVE SMOOTH",
"335 549 LINE SMOOTH",
"343 564 OFFCURVE",
"359 573 OFFCURVE",
"375 573 CURVE SMOOTH",
"406 573 LINE SMOOTH",
"422 573 OFFCURVE",
"437 565 OFFCURVE",
"445 551 CURVE SMOOTH",
"453 537 OFFCURVE",
"454 520 OFFCURVE",
"446 506 CURVE"
);
},
{
closed = 1;
nodes = (
"252 392 OFFCURVE",
"247 399 OFFCURVE",
"241 399 CURVE SMOOTH",
"201 399 LINE SMOOTH",
"194 399 OFFCURVE",
"189 393 OFFCURVE",
"189 385 CURVE SMOOTH",
"189 296 LINE SMOOTH",
"189 290 OFFCURVE",
"195 289 OFFCURVE",
"199 293 CURVE",
"248 388 LINE"
);
},
{
closed = 1;
nodes = (
"313 235 LINE SMOOTH",
"313 240 OFFCURVE",
"306 241 OFFCURVE",
"304 237 CURVE SMOOTH",
"246 130 LINE SMOOTH",
"244 125 OFFCURVE",
"247 118 OFFCURVE",
"253 118 CURVE SMOOTH",
"300 118 LINE SMOOTH",
"307 118 OFFCURVE",
"313 124 OFFCURVE",
"313 131 CURVE SMOOTH"
);
}
);
width = 492;
}
);
unicode = 00F8;
},
{
glyphname = otilde;
lastChange = "2020-11-04 22:21:30 +0000";
layers = (
{
layerId = master01;
paths = (
{
closed = 1;
nodes = (
"392 681 OFFCURVE",
"392 664 OFFCURVE",
"384 650 CURVE SMOOTH",
"343 580 LINE",
"335 565 OFFCURVE",
"320 557 OFFCURVE",
"302 557 CURVE SMOOTH",
"269 557 LINE SMOOTH",
"263 557 OFFCURVE",
"258 558 OFFCURVE",
"253 560 CURVE SMOOTH",
"189 585 LINE SMOOTH",
"182 588 OFFCURVE",
"174 585 OFFCURVE",
"169 578 CURVE SMOOTH",
"161 565 OFFCURVE",
"146 557 OFFCURVE",
"130 557 CURVE SMOOTH",
"99 557 LINE SMOOTH",
"83 557 OFFCURVE",
"67 565 OFFCURVE",
"59 580 CURVE SMOOTH",
"51 593 OFFCURVE",
"51 611 OFFCURVE",
"59 624 CURVE SMOOTH",
"100 696 LINE SMOOTH",
"108 710 OFFCURVE",
"123 718 OFFCURVE",
"139 718 CURVE SMOOTH",
"173 718 LINE SMOOTH",
"178 718 OFFCURVE",
"184 718 OFFCURVE",
"189 715 CURVE SMOOTH",
"254 689 LINE SMOOTH",
"261 687 OFFCURVE",
"269 689 OFFCURVE",
"273 696 CURVE SMOOTH",
"281 710 OFFCURVE",
"296 718 OFFCURVE",
"313 718 CURVE SMOOTH",
"344 718 LINE SMOOTH",
"360 718 OFFCURVE",
"376 710 OFFCURVE",
"384 696 CURVE SMOOTH"
);
},
{
closed = 1;
nodes = (
"402 49 OFFCURVE",
"352 0 OFFCURVE",
"291 0 CURVE SMOOTH",
"152 0 LINE SMOOTH",
"91 0 OFFCURVE",
"40 49 OFFCURVE",
"40 112 CURVE SMOOTH",
"40 406 LINE SMOOTH",
"40 468 OFFCURVE",
"91 518 OFFCURVE",
"152 518 CURVE SMOOTH",
"291 518 LINE SMOOTH",
"352 518 OFFCURVE",
"402 468 OFFCURVE",
"402 406 CURVE SMOOTH",
"402 112 LINE SMOOTH"
);
},
{
closed = 1;
nodes = (
"284 385 LINE SMOOTH",
"284 393 OFFCURVE",
"278 399 OFFCURVE",
"270 399 CURVE SMOOTH",
"173 399 LINE SMOOTH",
"166 399 OFFCURVE",
"159 393 OFFCURVE",
"159 385 CURVE SMOOTH",
"159 131 LINE SMOOTH",
"159 124 OFFCURVE",
"166 118 OFFCURVE",
"173 118 CURVE SMOOTH",
"270 118 LINE SMOOTH",
"278 118 OFFCURVE",
"284 124 OFFCURVE",
"284 131 CURVE SMOOTH"
);
}
);
width = 443;
}
);
unicode = 00F5;
},
{
glyphname = oe;
lastChange = "2020-11-04 22:21:30 +0000";
layers = (
{
layerId = master01;
paths = (
{
closed = 1;
nodes = (
"645 236 OFFCURVE",
"596 185 OFFCURVE",
"534 185 CURVE SMOOTH",
"415 185 LINE SMOOTH",
"408 185 OFFCURVE",
"402 179 OFFCURVE",
"402 173 CURVE SMOOTH",
"402 131 LINE SMOOTH",
"402 124 OFFCURVE",
"408 118 OFFCURVE",
"415 118 CURVE SMOOTH",
"534 118 LINE SMOOTH",
"559 118 OFFCURVE",
"580 98 OFFCURVE",
"580 72 CURVE SMOOTH",
"580 46 LINE SMOOTH",
"580 21 OFFCURVE",
"559 0 OFFCURVE",
"534 0 CURVE SMOOTH",
"394 0 LINE SMOOTH",
"381 0 OFFCURVE",
"367 2 OFFCURVE",
"354 7 CURVE SMOOTH",
"347 10 OFFCURVE",
"338 10 OFFCURVE",
"331 7 CURVE SMOOTH",
"319 2 OFFCURVE",
"305 0 OFFCURVE",
"291 0 CURVE SMOOTH",
"152 0 LINE SMOOTH",
"90 0 OFFCURVE",
"40 49 OFFCURVE",
"40 112 CURVE SMOOTH",
"40 406 LINE SMOOTH",
"40 468 OFFCURVE",
"90 518 OFFCURVE",
"152 518 CURVE SMOOTH",
"291 518 LINE SMOOTH",
"305 518 OFFCURVE",
"319 515 OFFCURVE",
"331 509 CURVE SMOOTH",
"338 507 OFFCURVE",
"347 507 OFFCURVE",
"354 509 CURVE SMOOTH",
"367 515 OFFCURVE",
"381 518 OFFCURVE",
"394 518 CURVE SMOOTH",
"534 518 LINE SMOOTH",
"596 518 OFFCURVE",
"645 467 OFFCURVE",
"645 406 CURVE SMOOTH",
"645 297 LINE SMOOTH"
);
},
{
closed = 1;
nodes = (
"527 385 LINE SMOOTH",
"527 393 OFFCURVE",
"521 399 OFFCURVE",
"513 399 CURVE SMOOTH",
"415 399 LINE SMOOTH",
"408 399 OFFCURVE",
"402 393 OFFCURVE",
"402 385 CURVE SMOOTH",
"402 317 LINE SMOOTH",
"402 311 OFFCURVE",
"408 305 OFFCURVE",
"415 305 CURVE SMOOTH",
"513 305 LINE SMOOTH",
"521 305 OFFCURVE",
"527 311 OFFCURVE",
"527 317 CURVE SMOOTH"
);
},
{
closed = 1;
nodes = (
"283 385 LINE SMOOTH",
"283 393 OFFCURVE",
"277 399 OFFCURVE",
"270 399 CURVE SMOOTH",
"173 399 LINE SMOOTH",
"164 399 OFFCURVE",
"159 393 OFFCURVE",
"159 385 CURVE SMOOTH",
"159 131 LINE SMOOTH",
"159 124 OFFCURVE",
"164 118 OFFCURVE",
"173 118 CURVE SMOOTH",
"270 118 LINE SMOOTH",
"277 118 OFFCURVE",
"283 124 OFFCURVE",
"283 131 CURVE SMOOTH"
);
}
);
width = 685;
}
);
unicode = 0153;
},
{
glyphname = p;
lastChange = "2020-11-04 22:21:30 +0000";
layers = (
{
layerId = master01;
paths = (
{
closed = 1;
nodes = (
"402 49 OFFCURVE",
"352 0 OFFCURVE",
"291 0 CURVE SMOOTH",
"173 0 LINE SMOOTH",
"166 0 OFFCURVE",
"159 -6 OFFCURVE",
"159 -13 CURVE SMOOTH",
"159 -114 LINE SMOOTH",
"159 -139 OFFCURVE",
"139 -160 OFFCURVE",
"114 -160 CURVE SMOOTH",
"86 -160 LINE SMOOTH",
"61 -160 OFFCURVE",
"40 -139 OFFCURVE",
"40 -114 CURVE SMOOTH",
"40 406 LINE SMOOTH",
"40 468 OFFCURVE",
"91 518 OFFCURVE",
"152 518 CURVE SMOOTH",
"291 518 LINE SMOOTH",
"352 518 OFFCURVE",
"402 468 OFFCURVE",
"402 406 CURVE SMOOTH",
"402 112 LINE SMOOTH"
);
},
{
closed = 1;
nodes = (
"284 385 LINE SMOOTH",
"284 393 OFFCURVE",
"277 399 OFFCURVE",
"270 399 CURVE SMOOTH",
"173 399 LINE SMOOTH",
"166 399 OFFCURVE",
"159 393 OFFCURVE",
"159 385 CURVE SMOOTH",
"159 131 LINE SMOOTH",
"159 124 OFFCURVE",
"166 118 OFFCURVE",
"173 118 CURVE SMOOTH",
"270 118 LINE SMOOTH",
"277 118 OFFCURVE",
"284 124 OFFCURVE",
"284 131 CURVE SMOOTH"
);
}
);
width = 443;
}
);
unicode = 0070;
},
{
glyphname = thorn;
lastChange = "2020-11-04 22:21:30 +0000";
layers = (
{
background = {
paths = (
{
closed = 1;
nodes = (
"99 -139 LINE SMOOTH",
"121 -139 OFFCURVE",
"138 -121 OFFCURVE",
"138 -99 CURVE SMOOTH",
"138 -11 LINE SMOOTH",
"138 -5 OFFCURVE",
"144 0 OFFCURVE",
"150 0 CURVE SMOOTH",
"253 0 LINE SMOOTH",
"306 0 OFFCURVE",
"350 43 OFFCURVE",
"350 97 CURVE SMOOTH",
"350 354 LINE SMOOTH",
"350 408 OFFCURVE",
"306 451 OFFCURVE",
"253 451 CURVE SMOOTH",
"150 451 LINE SMOOTH",
"144 451 OFFCURVE",
"138 456 OFFCURVE",
"138 462 CURVE SMOOTH",
"138 550 LINE SMOOTH",
"138 572 OFFCURVE",
"121 590 OFFCURVE",
"99 590 CURVE SMOOTH",
"75 590 LINE SMOOTH",
"53 590 OFFCURVE",
"35 572 OFFCURVE",
"35 550 CURVE SMOOTH",
"35 -99 LINE SMOOTH",
"35 -121 OFFCURVE",
"53 -139 OFFCURVE",
"75 -139 CURVE SMOOTH"
);
},
{
closed = 1;
nodes = (
"144 104 OFFCURVE",
"138 109 OFFCURVE",
"138 116 CURVE SMOOTH",
"138 335 LINE SMOOTH",
"138 342 OFFCURVE",
"144 347 OFFCURVE",
"150 347 CURVE SMOOTH",
"235 347 LINE SMOOTH",
"241 347 OFFCURVE",
"247 342 OFFCURVE",
"247 335 CURVE SMOOTH",
"247 116 LINE SMOOTH",
"247 109 OFFCURVE",
"241 104 OFFCURVE",
"235 104 CURVE SMOOTH",
"150 104 LINE SMOOTH"
);
}
);
};
layerId = master01;
paths = (
{
closed = 1;
nodes = (
"114 -160 LINE SMOOTH",
"139 -160 OFFCURVE",
"159 -139 OFFCURVE",
"159 -114 CURVE SMOOTH",
"159 -13 LINE SMOOTH",
"159 -6 OFFCURVE",
"166 0 OFFCURVE",
"173 0 CURVE SMOOTH",
"291 0 LINE SMOOTH",
"352 0 OFFCURVE",
"402 49 OFFCURVE",
"402 112 CURVE SMOOTH",
"402 407 LINE SMOOTH",
"402 469 OFFCURVE",
"352 519 OFFCURVE",
"291 519 CURVE SMOOTH",
"173 519 LINE SMOOTH",
"166 519 OFFCURVE",
"159 524 OFFCURVE",
"159 531 CURVE SMOOTH",
"159 633 LINE SMOOTH",
"159 658 OFFCURVE",
"139 679 OFFCURVE",
"114 679 CURVE SMOOTH",
"86 679 LINE SMOOTH",
"61 679 OFFCURVE",
"40 658 OFFCURVE",
"40 633 CURVE SMOOTH",
"40 -114 LINE SMOOTH",
"40 -139 OFFCURVE",
"61 -160 OFFCURVE",
"86 -160 CURVE SMOOTH"
);
},
{
closed = 1;
nodes = (
"166 120 OFFCURVE",
"159 125 OFFCURVE",
"159 133 CURVE SMOOTH",
"159 385 LINE SMOOTH",
"159 393 OFFCURVE",
"166 399 OFFCURVE",
"173 399 CURVE SMOOTH",
"270 399 LINE SMOOTH",
"277 399 OFFCURVE",
"284 393 OFFCURVE",
"284 385 CURVE SMOOTH",
"284 133 LINE SMOOTH",
"284 125 OFFCURVE",
"277 120 OFFCURVE",
"270 120 CURVE SMOOTH",
"173 120 LINE SMOOTH"
);
}
);
width = 443;
}
);
unicode = 00FE;
},
{
glyphname = q;
lastChange = "2020-11-04 22:21:30 +0000";
layers = (
{
layerId = master01;
paths = (
{
closed = 1;
nodes = (
"402 -139 OFFCURVE",
"382 -160 OFFCURVE",
"357 -160 CURVE SMOOTH",
"329 -160 LINE SMOOTH",
"304 -160 OFFCURVE",
"284 -139 OFFCURVE",
"284 -114 CURVE SMOOTH",
"284 -13 LINE SMOOTH",
"284 -6 OFFCURVE",
"278 0 OFFCURVE",
"270 0 CURVE SMOOTH",
"152 0 LINE SMOOTH",
"91 0 OFFCURVE",
"40 49 OFFCURVE",
"40 112 CURVE SMOOTH",
"40 406 LINE SMOOTH",
"40 468 OFFCURVE",
"91 518 OFFCURVE",
"152 518 CURVE SMOOTH",
"291 518 LINE SMOOTH",
"352 518 OFFCURVE",
"402 468 OFFCURVE",
"402 406 CURVE SMOOTH",
"402 -114 LINE SMOOTH"
);
},
{
closed = 1;
nodes = (
"284 385 LINE SMOOTH",
"284 393 OFFCURVE",
"278 399 OFFCURVE",
"270 399 CURVE SMOOTH",
"173 399 LINE SMOOTH",
"164 399 OFFCURVE",
"159 393 OFFCURVE",
"159 385 CURVE SMOOTH",
"159 131 LINE SMOOTH",
"159 124 OFFCURVE",
"164 118 OFFCURVE",
"173 118 CURVE SMOOTH",
"270 118 LINE SMOOTH",
"278 118 OFFCURVE",
"284 124 OFFCURVE",
"284 131 CURVE SMOOTH"
);
}
);
width = 443;
}
);
unicode = 0071;
},
{
glyphname = r;
lastChange = "2020-11-04 22:21:30 +0000";
layers = (
{
layerId = master01;
paths = (
{
closed = 1;
nodes = (
"337 419 OFFCURVE",
"317 399 OFFCURVE",
"292 399 CURVE SMOOTH",
"173 399 LINE SMOOTH",
"166 399 OFFCURVE",
"160 393 OFFCURVE",
"160 385 CURVE SMOOTH",
"160 46 LINE SMOOTH",
"160 21 OFFCURVE",
"139 0 OFFCURVE",
"114 0 CURVE SMOOTH",
"86 0 LINE SMOOTH",
"61 0 OFFCURVE",
"41 21 OFFCURVE",
"41 46 CURVE SMOOTH",
"41 406 LINE SMOOTH",
"41 468 OFFCURVE",
"91 518 OFFCURVE",
"152 518 CURVE SMOOTH",
"292 518 LINE SMOOTH",
"317 518 OFFCURVE",
"337 497 OFFCURVE",
"337 471 CURVE SMOOTH",
"337 444 LINE SMOOTH"
);
}
);
width = 378;
}
);
unicode = 0072;
},
{
glyphname = s;
lastChange = "2020-11-04 22:21:30 +0000";
layers = (
{
layerId = master01;
paths = (
{
closed = 1;
nodes = (
"402 49 OFFCURVE",
"352 0 OFFCURVE",
"291 0 CURVE SMOOTH",
"152 0 LINE SMOOTH",
"91 0 OFFCURVE",
"40 49 OFFCURVE",
"40 112 CURVE SMOOTH",
"40 153 LINE SMOOTH",
"40 178 OFFCURVE",
"61 199 OFFCURVE",
"86 199 CURVE SMOOTH",
"114 199 LINE SMOOTH",
"139 199 OFFCURVE",
"159 178 OFFCURVE",
"159 153 CURVE SMOOTH",
"159 131 LINE SMOOTH",
"159 124 OFFCURVE",
"164 118 OFFCURVE",
"173 118 CURVE SMOOTH",
"270 118 LINE SMOOTH",
"277 118 OFFCURVE",
"284 124 OFFCURVE",
"284 131 CURVE SMOOTH",
"284 153 LINE",
"284 153 OFFCURVE",
"284 153 OFFCURVE",
"284 153 CURVE",
"284 153 OFFCURVE",
"284 153 OFFCURVE",
"284 153 CURVE",
"284 168 LINE SMOOTH",
"284 174 OFFCURVE",
"281 177 OFFCURVE",
"276 179 CURVE",
"131 225 LINE SMOOTH",
"77 243 OFFCURVE",
"40 292 OFFCURVE",
"40 350 CURVE SMOOTH",
"40 406 LINE SMOOTH",
"40 467 OFFCURVE",
"91 518 OFFCURVE",
"152 518 CURVE SMOOTH",
"291 518 LINE SMOOTH",
"352 518 OFFCURVE",
"402 467 OFFCURVE",
"402 406 CURVE SMOOTH",
"402 366 LINE SMOOTH",
"402 340 OFFCURVE",
"382 320 OFFCURVE",
"357 320 CURVE SMOOTH",
"329 320 LINE SMOOTH",
"304 320 OFFCURVE",
"284 340 OFFCURVE",
"284 366 CURVE SMOOTH",
"284 385 LINE SMOOTH",
"284 393 OFFCURVE",
"277 399 OFFCURVE",
"270 399 CURVE SMOOTH",
"173 399 LINE SMOOTH",
"164 399 OFFCURVE",
"159 393 OFFCURVE",
"159 385 CURVE SMOOTH",
"159 350 LINE SMOOTH",
"159 344 OFFCURVE",
"162 339 OFFCURVE",
"167 338 CURVE SMOOTH",
"312 292 LINE SMOOTH",
"366 275 OFFCURVE",
"402 225 OFFCURVE",
"402 168 CURVE SMOOTH",
"402 112 LINE SMOOTH"
);
}
);
width = 443;
}
);
unicode = 0073;
},
{
glyphname = scaron;
lastChange = "2020-11-04 22:21:30 +0000";
layers = (
{
layerId = master01;
paths = (
{
closed = 1;
nodes = (
"324 580 LINE SMOOTH",
"316 565 OFFCURVE",
"301 557 OFFCURVE",
"285 557 CURVE SMOOTH",
"158 557 LINE SMOOTH",
"141 557 OFFCURVE",
"127 565 OFFCURVE",
"118 580 CURVE SMOOTH",
"78 650 LINE SMOOTH",
"70 664 OFFCURVE",
"70 681 OFFCURVE",
"78 696 CURVE SMOOTH",
"86 710 OFFCURVE",
"101 718 OFFCURVE",
"117 718 CURVE SMOOTH",
"150 718 LINE SMOOTH",
"166 718 OFFCURVE",
"181 710 OFFCURVE",
"189 696 CURVE SMOOTH",
"194 687 LINE",
"198 680 OFFCURVE",
"205 675 OFFCURVE",
"213 675 CURVE SMOOTH",
"230 675 LINE SMOOTH",
"238 675 OFFCURVE",
"245 680 OFFCURVE",
"248 687 CURVE",
"254 696 LINE SMOOTH",
"262 710 OFFCURVE",
"277 718 OFFCURVE",
"293 718 CURVE SMOOTH",
"325 718 LINE SMOOTH",
"342 718 OFFCURVE",
"357 710 OFFCURVE",
"365 696 CURVE SMOOTH",
"373 681 OFFCURVE",
"373 664 OFFCURVE",
"365 650 CURVE SMOOTH"
);
},
{
closed = 1;
nodes = (
"402 49 OFFCURVE",
"352 0 OFFCURVE",
"291 0 CURVE SMOOTH",
"152 0 LINE SMOOTH",
"91 0 OFFCURVE",
"40 49 OFFCURVE",
"40 112 CURVE SMOOTH",
"40 153 LINE SMOOTH",
"40 178 OFFCURVE",
"61 199 OFFCURVE",
"86 199 CURVE SMOOTH",
"114 199 LINE SMOOTH",
"139 199 OFFCURVE",
"159 178 OFFCURVE",
"159 153 CURVE SMOOTH",
"159 131 LINE SMOOTH",
"159 124 OFFCURVE",
"166 118 OFFCURVE",
"173 118 CURVE SMOOTH",
"270 118 LINE SMOOTH",
"277 118 OFFCURVE",
"284 124 OFFCURVE",
"284 131 CURVE SMOOTH",
"284 168 LINE SMOOTH",
"284 174 OFFCURVE",
"281 177 OFFCURVE",
"276 179 CURVE",
"131 225 LINE SMOOTH",
"77 243 OFFCURVE",
"40 292 OFFCURVE",
"40 350 CURVE SMOOTH",
"40 406 LINE SMOOTH",
"40 467 OFFCURVE",
"91 518 OFFCURVE",
"152 518 CURVE SMOOTH",
"291 518 LINE SMOOTH",
"352 518 OFFCURVE",
"402 467 OFFCURVE",
"402 406 CURVE SMOOTH",
"402 366 LINE SMOOTH",
"402 340 OFFCURVE",
"382 320 OFFCURVE",
"357 320 CURVE SMOOTH",
"329 320 LINE SMOOTH",
"304 320 OFFCURVE",
"284 340 OFFCURVE",
"284 366 CURVE SMOOTH",
"284 385 LINE SMOOTH",
"284 393 OFFCURVE",
"277 399 OFFCURVE",
"270 399 CURVE SMOOTH",
"173 399 LINE SMOOTH",
"166 399 OFFCURVE",
"159 393 OFFCURVE",
"159 385 CURVE SMOOTH",
"159 350 LINE SMOOTH",
"159 344 OFFCURVE",
"162 339 OFFCURVE",
"167 338 CURVE SMOOTH",
"312 292 LINE SMOOTH",
"366 275 OFFCURVE",
"402 225 OFFCURVE",
"402 168 CURVE SMOOTH",
"402 112 LINE SMOOTH"
);
}
);
width = 443;
}
);
unicode = 0161;
},
{
glyphname = germandbls;
lastChange = "2020-11-04 22:21:30 +0000";
layers = (
{
layerId = master01;
paths = (
{
closed = 1;
nodes = (
"402 60 OFFCURVE",
"343 0 OFFCURVE",
"269 0 CURVE SMOOTH",
"238 0 LINE SMOOTH",
"213 0 OFFCURVE",
"192 21 OFFCURVE",
"192 46 CURVE SMOOTH",
"192 72 LINE SMOOTH",
"192 98 OFFCURVE",
"213 118 OFFCURVE",
"238 118 CURVE SMOOTH",
"269 118 LINE SMOOTH",
"277 118 OFFCURVE",
"283 124 OFFCURVE",
"283 132 CURVE SMOOTH",
"283 336 LINE SMOOTH",
"283 343 OFFCURVE",
"277 348 OFFCURVE",
"269 348 CURVE SMOOTH",
"238 348 LINE SMOOTH",
"213 348 OFFCURVE",
"192 369 OFFCURVE",
"192 394 CURVE SMOOTH",
"192 422 LINE SMOOTH",
"192 447 OFFCURVE",
"213 468 OFFCURVE",
"238 468 CURVE SMOOTH",
"254 468 LINE SMOOTH",
"262 468 OFFCURVE",
"269 475 OFFCURVE",
"269 483 CURVE SMOOTH",
"269 543 LINE SMOOTH",
"269 551 OFFCURVE",
"263 557 OFFCURVE",
"256 557 CURVE SMOOTH",
"173 557 LINE SMOOTH",
"166 557 OFFCURVE",
"160 551 OFFCURVE",
"160 544 CURVE SMOOTH",
"160 46 LINE SMOOTH",
"160 21 OFFCURVE",
"139 0 OFFCURVE",
"114 0 CURVE SMOOTH",
"86 0 LINE SMOOTH",
"61 0 OFFCURVE",
"40 21 OFFCURVE",
"40 46 CURVE SMOOTH",
"40 630 LINE SMOOTH",
"40 656 OFFCURVE",
"61 676 OFFCURVE",
"86 676 CURVE SMOOTH",
"256 676 LINE SMOOTH",
"329 676 OFFCURVE",
"389 616 OFFCURVE",
"389 543 CURVE SMOOTH",
"389 482 LINE SMOOTH",
"389 463 OFFCURVE",
"385 446 OFFCURVE",
"378 430 CURVE SMOOTH",
"375 423 OFFCURVE",
"376 415 OFFCURVE",
"379 408 CURVE",
"394 388 OFFCURVE",
"402 362 OFFCURVE",
"402 336 CURVE SMOOTH",
"402 132 LINE SMOOTH"
);
}
);
width = 443;
}
);
unicode = 00DF;
},
{
glyphname = t;
lastChange = "2020-11-04 22:21:30 +0000";
layers = (
{
layerId = master01;
paths = (
{
closed = 1;
nodes = (
"337 21 OFFCURVE",
"317 0 OFFCURVE",
"292 0 CURVE SMOOTH",
"152 0 LINE SMOOTH",
"91 0 OFFCURVE",
"41 49 OFFCURVE",
"41 112 CURVE SMOOTH",
"41 630 LINE SMOOTH",
"41 656 OFFCURVE",
"61 676 OFFCURVE",
"86 676 CURVE SMOOTH",
"114 676 LINE SMOOTH",
"139 676 OFFCURVE",
"160 656 OFFCURVE",
"160 630 CURVE SMOOTH",
"160 530 LINE SMOOTH",
"160 523 OFFCURVE",
"166 518 OFFCURVE",
"173 518 CURVE SMOOTH",
"292 518 LINE SMOOTH",
"317 518 OFFCURVE",
"337 497 OFFCURVE",
"337 471 CURVE SMOOTH",
"337 444 LINE SMOOTH",
"337 432 OFFCURVE",
"332 421 OFFCURVE",
"324 412 CURVE",
"315 404 OFFCURVE",
"304 399 OFFCURVE",
"292 399 CURVE SMOOTH",
"173 399 LINE SMOOTH",
"166 399 OFFCURVE",
"160 393 OFFCURVE",
"160 385 CURVE SMOOTH",
"160 131 LINE SMOOTH",
"160 124 OFFCURVE",
"166 118 OFFCURVE",
"173 118 CURVE SMOOTH",
"292 118 LINE SMOOTH",
"317 118 OFFCURVE",
"337 98 OFFCURVE",
"337 72 CURVE SMOOTH",
"337 46 LINE SMOOTH"
);
}
);
width = 378;
}
);
unicode = 0074;
},
{
glyphname = u;
lastChange = "2020-11-04 22:21:30 +0000";
layers = (
{
layerId = master01;
paths = (
{
closed = 1;
nodes = (
"402 49 OFFCURVE",
"352 0 OFFCURVE",
"291 0 CURVE SMOOTH",
"152 0 LINE SMOOTH",
"91 0 OFFCURVE",
"40 49 OFFCURVE",
"40 112 CURVE SMOOTH",
"40 471 LINE SMOOTH",
"40 497 OFFCURVE",
"61 518 OFFCURVE",
"86 518 CURVE SMOOTH",
"114 518 LINE SMOOTH",
"139 518 OFFCURVE",
"159 497 OFFCURVE",
"159 471 CURVE SMOOTH",
"159 131 LINE SMOOTH",
"159 124 OFFCURVE",
"166 118 OFFCURVE",
"173 118 CURVE SMOOTH",
"270 118 LINE SMOOTH",
"277 118 OFFCURVE",
"284 124 OFFCURVE",
"284 131 CURVE SMOOTH",
"284 471 LINE SMOOTH",
"284 497 OFFCURVE",
"304 518 OFFCURVE",
"329 518 CURVE SMOOTH",
"357 518 LINE SMOOTH",
"382 518 OFFCURVE",
"402 497 OFFCURVE",
"402 471 CURVE SMOOTH",
"402 112 LINE SMOOTH"
);
}
);
width = 443;
}
);
unicode = 0075;
},
{
glyphname = uacute;
lastChange = "2020-11-04 22:21:30 +0000";
layers = (
{
layerId = master01;
paths = (
{
closed = 1;
nodes = (
"268 588 LINE",
"261 569 OFFCURVE",
"244 557 OFFCURVE",
"224 557 CURVE SMOOTH",
"195 557 LINE SMOOTH",
"181 557 OFFCURVE",
"167 564 OFFCURVE",
"159 575 CURVE SMOOTH",
"150 588 OFFCURVE",
"147 603 OFFCURVE",
"152 616 CURVE SMOOTH",
"175 687 LINE",
"182 705 OFFCURVE",
"199 718 OFFCURVE",
"218 718 CURVE SMOOTH",
"247 718 LINE SMOOTH",
"262 718 OFFCURVE",
"276 711 OFFCURVE",
"284 699 CURVE SMOOTH",
"293 688 OFFCURVE",
"296 672 OFFCURVE",
"291 658 CURVE SMOOTH"
);
},
{
closed = 1;
nodes = (
"402 49 OFFCURVE",
"352 0 OFFCURVE",
"291 0 CURVE SMOOTH",
"152 0 LINE SMOOTH",
"91 0 OFFCURVE",
"40 49 OFFCURVE",
"40 112 CURVE SMOOTH",
"40 471 LINE SMOOTH",
"40 497 OFFCURVE",
"61 518 OFFCURVE",
"86 518 CURVE SMOOTH",
"114 518 LINE SMOOTH",
"139 518 OFFCURVE",
"159 497 OFFCURVE",
"159 471 CURVE SMOOTH",
"159 131 LINE SMOOTH",
"159 124 OFFCURVE",
"166 118 OFFCURVE",
"173 118 CURVE SMOOTH",
"270 118 LINE SMOOTH",
"278 118 OFFCURVE",
"284 124 OFFCURVE",
"284 131 CURVE SMOOTH",
"284 471 LINE SMOOTH",
"284 497 OFFCURVE",
"304 518 OFFCURVE",
"329 518 CURVE SMOOTH",
"357 518 LINE SMOOTH",
"382 518 OFFCURVE",
"402 497 OFFCURVE",
"402 471 CURVE SMOOTH",
"402 112 LINE SMOOTH"
);
}
);
width = 443;
}
);
unicode = 00FA;
},
{
glyphname = ucircumflex;
lastChange = "2020-11-04 22:21:30 +0000";
layers = (
{
layerId = master01;
paths = (
{
closed = 1;
nodes = (
"357 565 OFFCURVE",
"342 557 OFFCURVE",
"325 557 CURVE SMOOTH",
"293 557 LINE SMOOTH",
"277 557 OFFCURVE",
"262 565 OFFCURVE",
"254 580 CURVE",
"248 589 LINE",
"245 596 OFFCURVE",
"238 599 OFFCURVE",
"230 599 CURVE SMOOTH",
"213 599 LINE SMOOTH",
"205 599 OFFCURVE",
"198 596 OFFCURVE",
"194 589 CURVE",
"189 580 LINE",
"181 565 OFFCURVE",
"166 557 OFFCURVE",
"150 557 CURVE SMOOTH",
"117 557 LINE SMOOTH",
"101 557 OFFCURVE",
"86 565 OFFCURVE",
"78 580 CURVE SMOOTH",
"70 593 OFFCURVE",
"70 611 OFFCURVE",
"78 624 CURVE SMOOTH",
"118 696 LINE SMOOTH",
"127 710 OFFCURVE",
"141 718 OFFCURVE",
"158 718 CURVE SMOOTH",
"285 718 LINE SMOOTH",
"301 718 OFFCURVE",
"316 710 OFFCURVE",
"324 696 CURVE SMOOTH",
"365 624 LINE SMOOTH",
"373 611 OFFCURVE",
"373 593 OFFCURVE",
"365 580 CURVE SMOOTH"
);
},
{
closed = 1;
nodes = (
"402 49 OFFCURVE",
"352 0 OFFCURVE",
"291 0 CURVE SMOOTH",
"152 0 LINE SMOOTH",
"91 0 OFFCURVE",
"40 49 OFFCURVE",
"40 112 CURVE SMOOTH",
"40 471 LINE SMOOTH",
"40 497 OFFCURVE",
"61 518 OFFCURVE",
"86 518 CURVE SMOOTH",
"114 518 LINE SMOOTH",
"139 518 OFFCURVE",
"159 497 OFFCURVE",
"159 471 CURVE SMOOTH",
"159 131 LINE SMOOTH",
"159 124 OFFCURVE",
"166 118 OFFCURVE",
"173 118 CURVE SMOOTH",
"270 118 LINE SMOOTH",
"277 118 OFFCURVE",
"284 124 OFFCURVE",
"284 131 CURVE SMOOTH",
"284 471 LINE SMOOTH",
"284 497 OFFCURVE",
"304 518 OFFCURVE",
"329 518 CURVE SMOOTH",
"357 518 LINE SMOOTH",
"382 518 OFFCURVE",
"402 497 OFFCURVE",
"402 471 CURVE SMOOTH",
"402 112 LINE SMOOTH"
);
}
);
width = 443;
}
);
unicode = 00FB;
},
{
glyphname = udieresis;
lastChange = "2020-11-04 22:21:30 +0000";
layers = (
{
layerId = master01;
paths = (
{
closed = 1;
nodes = (
"383 589 OFFCURVE",
"350 555 OFFCURVE",
"308 555 CURVE SMOOTH",
"267 555 OFFCURVE",
"233 589 OFFCURVE",
"233 630 CURVE SMOOTH",
"233 672 OFFCURVE",
"267 705 OFFCURVE",
"308 705 CURVE SMOOTH",
"350 705 OFFCURVE",
"383 672 OFFCURVE",
"383 630 CURVE SMOOTH"
);
},
{
closed = 1;
nodes = (
"209 589 OFFCURVE",
"176 555 OFFCURVE",
"135 555 CURVE SMOOTH",
"93 555 OFFCURVE",
"60 589 OFFCURVE",
"60 630 CURVE SMOOTH",
"60 672 OFFCURVE",
"93 705 OFFCURVE",
"135 705 CURVE SMOOTH",
"176 705 OFFCURVE",
"209 672 OFFCURVE",
"209 630 CURVE SMOOTH"
);
},
{
closed = 1;
nodes = (
"402 49 OFFCURVE",
"352 0 OFFCURVE",
"291 0 CURVE SMOOTH",
"152 0 LINE SMOOTH",
"91 0 OFFCURVE",
"40 49 OFFCURVE",
"40 112 CURVE SMOOTH",
"40 471 LINE SMOOTH",
"40 497 OFFCURVE",
"61 518 OFFCURVE",
"86 518 CURVE SMOOTH",
"114 518 LINE SMOOTH",
"139 518 OFFCURVE",
"159 497 OFFCURVE",
"159 471 CURVE SMOOTH",
"159 131 LINE SMOOTH",
"159 124 OFFCURVE",
"166 118 OFFCURVE",
"173 118 CURVE SMOOTH",
"270 118 LINE SMOOTH",
"278 118 OFFCURVE",
"284 124 OFFCURVE",
"284 131 CURVE SMOOTH",
"284 471 LINE SMOOTH",
"284 497 OFFCURVE",
"304 518 OFFCURVE",
"329 518 CURVE SMOOTH",
"357 518 LINE SMOOTH",
"382 518 OFFCURVE",
"402 497 OFFCURVE",
"402 471 CURVE SMOOTH",
"402 112 LINE SMOOTH"
);
}
);
width = 443;
}
);
unicode = 00FC;
},
{
glyphname = ugrave;
lastChange = "2020-11-04 22:21:30 +0000";
layers = (
{
layerId = master01;
paths = (
{
closed = 1;
nodes = (
"296 603 OFFCURVE",
"293 588 OFFCURVE",
"284 575 CURVE SMOOTH",
"276 564 OFFCURVE",
"262 557 OFFCURVE",
"247 557 CURVE SMOOTH",
"218 557 LINE SMOOTH",
"199 557 OFFCURVE",
"182 569 OFFCURVE",
"175 588 CURVE",
"152 658 LINE SMOOTH",
"147 672 OFFCURVE",
"150 688 OFFCURVE",
"159 699 CURVE SMOOTH",
"167 711 OFFCURVE",
"181 718 OFFCURVE",
"195 718 CURVE SMOOTH",
"224 718 LINE SMOOTH",
"244 718 OFFCURVE",
"261 705 OFFCURVE",
"268 687 CURVE",
"291 616 LINE SMOOTH"
);
},
{
closed = 1;
nodes = (
"402 49 OFFCURVE",
"352 0 OFFCURVE",
"291 0 CURVE SMOOTH",
"152 0 LINE SMOOTH",
"91 0 OFFCURVE",
"40 49 OFFCURVE",
"40 112 CURVE SMOOTH",
"40 471 LINE SMOOTH",
"40 497 OFFCURVE",
"61 518 OFFCURVE",
"86 518 CURVE SMOOTH",
"114 518 LINE SMOOTH",
"139 518 OFFCURVE",
"159 497 OFFCURVE",
"159 471 CURVE SMOOTH",
"159 131 LINE SMOOTH",
"159 124 OFFCURVE",
"166 118 OFFCURVE",
"173 118 CURVE SMOOTH",
"270 118 LINE SMOOTH",
"277 118 OFFCURVE",
"284 124 OFFCURVE",
"284 131 CURVE SMOOTH",
"284 471 LINE SMOOTH",
"284 497 OFFCURVE",
"304 518 OFFCURVE",
"329 518 CURVE SMOOTH",
"357 518 LINE SMOOTH",
"382 518 OFFCURVE",
"402 497 OFFCURVE",
"402 471 CURVE SMOOTH",
"402 112 LINE SMOOTH"
);
}
);
width = 443;
}
);
unicode = 00F9;
},
{
glyphname = v;
lastChange = "2020-11-04 22:21:30 +0000";
layers = (
{
layerId = master01;
paths = (
{
closed = 1;
nodes = (
"284 33 LINE SMOOTH",
"278 14 OFFCURVE",
"260 0 OFFCURVE",
"239 0 CURVE SMOOTH",
"212 0 LINE SMOOTH",
"191 0 OFFCURVE",
"173 14 OFFCURVE",
"167 33 CURVE SMOOTH",
"43 459 LINE SMOOTH",
"39 473 OFFCURVE",
"41 488 OFFCURVE",
"49 499 CURVE SMOOTH",
"59 511 OFFCURVE",
"72 518 OFFCURVE",
"86 518 CURVE SMOOTH",
"115 518 LINE SMOOTH",
"136 518 OFFCURVE",
"153 504 OFFCURVE",
"159 484 CURVE SMOOTH",
"221 274 LINE SMOOTH",
"222 269 OFFCURVE",
"229 269 OFFCURVE",
"230 274 CURVE SMOOTH",
"292 484 LINE SMOOTH",
"298 504 OFFCURVE",
"315 518 OFFCURVE",
"336 518 CURVE SMOOTH",
"365 518 LINE SMOOTH",
"378 518 OFFCURVE",
"392 511 OFFCURVE",
"401 499 CURVE SMOOTH",
"409 488 OFFCURVE",
"412 473 OFFCURVE",
"408 459 CURVE SMOOTH"
);
}
);
width = 451;
}
);
unicode = 0076;
},
{
glyphname = w;
lastChange = "2020-11-04 22:21:30 +0000";
layers = (
{
layerId = master01;
paths = (
{
closed = 1;
nodes = (
"432 36 LINE SMOOTH",
"428 15 OFFCURVE",
"409 0 OFFCURVE",
"388 0 CURVE SMOOTH",
"360 0 LINE SMOOTH",
"338 0 OFFCURVE",
"320 15 OFFCURVE",
"315 36 CURVE SMOOTH",
"287 164 LINE SMOOTH",
"286 170 OFFCURVE",
"278 170 OFFCURVE",
"277 164 CURVE SMOOTH",
"250 36 LINE SMOOTH",
"245 15 OFFCURVE",
"227 0 OFFCURVE",
"205 0 CURVE SMOOTH",
"177 0 LINE SMOOTH",
"155 0 OFFCURVE",
"137 15 OFFCURVE",
"132 36 CURVE SMOOTH",
"41 462 LINE",
"38 475 OFFCURVE",
"41 490 OFFCURVE",
"49 500 CURVE SMOOTH",
"59 511 OFFCURVE",
"71 518 OFFCURVE",
"85 518 CURVE SMOOTH",
"114 518 LINE SMOOTH",
"135 518 OFFCURVE",
"154 503 OFFCURVE",
"159 481 CURVE SMOOTH",
"186 353 LINE SMOOTH",
"187 347 OFFCURVE",
"194 347 OFFCURVE",
"195 353 CURVE SMOOTH",
"224 481 LINE",
"228 503 OFFCURVE",
"247 518 OFFCURVE",
"268 518 CURVE SMOOTH",
"297 518 LINE SMOOTH",
"317 518 OFFCURVE",
"337 503 OFFCURVE",
"340 481 CURVE",
"369 352 LINE SMOOTH",
"370 346 OFFCURVE",
"377 346 OFFCURVE",
"378 352 CURVE SMOOTH",
"406 481 LINE SMOOTH",
"411 503 OFFCURVE",
"430 518 OFFCURVE",
"451 518 CURVE SMOOTH",
"480 518 LINE SMOOTH",
"493 518 OFFCURVE",
"506 511 OFFCURVE",
"515 500 CURVE SMOOTH",
"523 490 OFFCURVE",
"527 475 OFFCURVE",
"523 462 CURVE"
);
}
);
width = 565;
}
);
unicode = 0077;
},
{
glyphname = x;
lastChange = "2020-11-04 22:21:30 +0000";
layers = (
{
layerId = master01;
paths = (
{
closed = 1;
nodes = (
"281 269 LINE SMOOTH",
"277 262 OFFCURVE",
"277 253 OFFCURVE",
"281 246 CURVE SMOOTH",
"370 66 LINE SMOOTH",
"377 52 OFFCURVE",
"377 36 OFFCURVE",
"368 22 CURVE SMOOTH",
"360 8 OFFCURVE",
"345 0 OFFCURVE",
"330 0 CURVE SMOOTH",
"299 0 LINE SMOOTH",
"282 0 OFFCURVE",
"266 10 OFFCURVE",
"258 25 CURVE SMOOTH",
"214 114 LINE SMOOTH",
"212 118 OFFCURVE",
"205 118 OFFCURVE",
"202 114 CURVE SMOOTH",
"159 25 LINE SMOOTH",
"151 10 OFFCURVE",
"135 0 OFFCURVE",
"117 0 CURVE SMOOTH",
"86 0 LINE SMOOTH",
"71 0 OFFCURVE",
"56 8 OFFCURVE",
"48 22 CURVE SMOOTH",
"39 36 OFFCURVE",
"39 52 OFFCURVE",
"46 66 CURVE SMOOTH",
"136 246 LINE SMOOTH",
"139 254 OFFCURVE",
"139 262 OFFCURVE",
"136 270 CURVE SMOOTH",
"45 451 LINE SMOOTH",
"38 466 OFFCURVE",
"39 482 OFFCURVE",
"47 496 CURVE SMOOTH",
"55 509 OFFCURVE",
"70 518 OFFCURVE",
"86 518 CURVE SMOOTH",
"117 518 LINE SMOOTH",
"135 518 OFFCURVE",
"150 507 OFFCURVE",
"158 492 CURVE SMOOTH",
"202 402 LINE SMOOTH",
"205 398 OFFCURVE",
"212 398 OFFCURVE",
"214 402 CURVE SMOOTH",
"259 492 LINE SMOOTH",
"267 507 OFFCURVE",
"282 518 OFFCURVE",
"299 518 CURVE SMOOTH",
"330 518 LINE SMOOTH",
"346 518 OFFCURVE",
"360 509 OFFCURVE",
"369 496 CURVE SMOOTH",
"377 482 OFFCURVE",
"378 466 OFFCURVE",
"371 451 CURVE SMOOTH"
);
}
);
width = 416;
}
);
unicode = 0078;
},
{
glyphname = y;
lastChange = "2020-11-04 22:21:30 +0000";
layers = (
{
layerId = master01;
paths = (
{
closed = 1;
nodes = (
"238 -66 LINE SMOOTH",
"223 -121 OFFCURVE",
"173 -160 OFFCURVE",
"115 -160 CURVE SMOOTH",
"87 -160 LINE SMOOTH",
"62 -160 OFFCURVE",
"41 -139 OFFCURVE",
"41 -114 CURVE SMOOTH",
"41 -86 LINE SMOOTH",
"41 -61 OFFCURVE",
"62 -41 OFFCURVE",
"87 -41 CURVE SMOOTH",
"115 -41 LINE SMOOTH",
"118 -41 OFFCURVE",
"122 -38 OFFCURVE",
"123 -35 CURVE SMOOTH",
"145 51 LINE",
"147 56 OFFCURVE",
"147 62 OFFCURVE",
"145 68 CURVE",
"43 460 LINE",
"38 474 OFFCURVE",
"41 489 OFFCURVE",
"51 499 CURVE",
"59 511 OFFCURVE",
"72 518 OFFCURVE",
"86 518 CURVE SMOOTH",
"115 518 LINE SMOOTH",
"136 518 OFFCURVE",
"153 504 OFFCURVE",
"159 483 CURVE SMOOTH",
"204 312 LINE SMOOTH",
"205 307 OFFCURVE",
"213 307 OFFCURVE",
"214 312 CURVE SMOOTH",
"259 483 LINE SMOOTH",
"265 504 OFFCURVE",
"282 518 OFFCURVE",
"302 518 CURVE SMOOTH",
"331 518 LINE SMOOTH",
"345 518 OFFCURVE",
"359 511 OFFCURVE",
"367 499 CURVE",
"376 489 OFFCURVE",
"379 474 OFFCURVE",
"375 460 CURVE"
);
}
);
width = 417;
}
);
unicode = 0079;
},
{
glyphname = yacute;
lastChange = "2020-11-04 22:21:30 +0000";
layers = (
{
layerId = master01;
paths = (
{
closed = 1;
nodes = (
"240 588 LINE SMOOTH",
"235 569 OFFCURVE",
"217 557 OFFCURVE",
"198 557 CURVE SMOOTH",
"169 557 LINE SMOOTH",
"154 557 OFFCURVE",
"140 564 OFFCURVE",
"131 575 CURVE",
"123 588 OFFCURVE",
"121 603 OFFCURVE",
"125 616 CURVE SMOOTH",
"148 687 LINE",
"155 705 OFFCURVE",
"173 718 OFFCURVE",
"192 718 CURVE SMOOTH",
"221 718 LINE SMOOTH",
"236 718 OFFCURVE",
"250 711 OFFCURVE",
"258 699 CURVE SMOOTH",
"267 688 OFFCURVE",
"269 672 OFFCURVE",
"265 658 CURVE SMOOTH"
);
},
{
closed = 1;
nodes = (
"238 -66 LINE SMOOTH",
"223 -121 OFFCURVE",
"173 -160 OFFCURVE",
"115 -160 CURVE SMOOTH",
"87 -160 LINE SMOOTH",
"62 -160 OFFCURVE",
"41 -139 OFFCURVE",
"41 -114 CURVE SMOOTH",
"41 -86 LINE SMOOTH",
"41 -61 OFFCURVE",
"62 -41 OFFCURVE",
"87 -41 CURVE SMOOTH",
"115 -41 LINE SMOOTH",
"118 -41 OFFCURVE",
"122 -38 OFFCURVE",
"123 -35 CURVE SMOOTH",
"145 51 LINE",
"147 56 OFFCURVE",
"147 62 OFFCURVE",
"145 67 CURVE",
"43 460 LINE",
"38 474 OFFCURVE",
"41 489 OFFCURVE",
"51 499 CURVE",
"59 511 OFFCURVE",
"72 518 OFFCURVE",
"86 518 CURVE SMOOTH",
"115 518 LINE SMOOTH",
"136 518 OFFCURVE",
"153 504 OFFCURVE",
"159 483 CURVE SMOOTH",
"204 312 LINE SMOOTH",
"205 307 OFFCURVE",
"213 307 OFFCURVE",
"214 312 CURVE SMOOTH",
"259 483 LINE SMOOTH",
"265 504 OFFCURVE",
"282 518 OFFCURVE",
"302 518 CURVE SMOOTH",
"331 518 LINE SMOOTH",
"345 518 OFFCURVE",
"359 511 OFFCURVE",
"367 499 CURVE",
"376 489 OFFCURVE",
"379 474 OFFCURVE",
"375 460 CURVE"
);
}
);
width = 417;
}
);
unicode = 00FD;
},
{
glyphname = ydieresis;
lastChange = "2020-11-04 22:21:30 +0000";
layers = (
{
layerId = master01;
paths = (
{
closed = 1;
nodes = (
"370 589 OFFCURVE",
"337 555 OFFCURVE",
"296 555 CURVE SMOOTH",
"254 555 OFFCURVE",
"221 589 OFFCURVE",
"221 630 CURVE SMOOTH",
"221 672 OFFCURVE",
"254 705 OFFCURVE",
"296 705 CURVE SMOOTH",
"337 705 OFFCURVE",
"370 672 OFFCURVE",
"370 630 CURVE SMOOTH"
);
},
{
closed = 1;
nodes = (
"197 589 OFFCURVE",
"163 555 OFFCURVE",
"122 555 CURVE SMOOTH",
"81 555 OFFCURVE",
"47 589 OFFCURVE",
"47 630 CURVE SMOOTH",
"47 672 OFFCURVE",
"81 705 OFFCURVE",
"122 705 CURVE SMOOTH",
"163 705 OFFCURVE",
"197 672 OFFCURVE",
"197 630 CURVE SMOOTH"
);
},
{
closed = 1;
nodes = (
"237 -66 LINE SMOOTH",
"222 -121 OFFCURVE",
"173 -160 OFFCURVE",
"115 -160 CURVE SMOOTH",
"86 -160 LINE SMOOTH",
"61 -160 OFFCURVE",
"41 -139 OFFCURVE",
"41 -114 CURVE SMOOTH",
"41 -86 LINE SMOOTH",
"41 -61 OFFCURVE",
"61 -41 OFFCURVE",
"86 -41 CURVE SMOOTH",
"115 -41 LINE SMOOTH",
"118 -41 OFFCURVE",
"122 -38 OFFCURVE",
"122 -36 CURVE",
"145 52 LINE SMOOTH",
"146 56 OFFCURVE",
"146 62 OFFCURVE",
"145 68 CURVE SMOOTH",
"41 460 LINE SMOOTH",
"38 474 OFFCURVE",
"41 489 OFFCURVE",
"49 499 CURVE SMOOTH",
"59 511 OFFCURVE",
"71 518 OFFCURVE",
"86 518 CURVE SMOOTH",
"114 518 LINE SMOOTH",
"135 518 OFFCURVE",
"153 504 OFFCURVE",
"159 483 CURVE SMOOTH",
"204 313 LINE SMOOTH",
"205 307 OFFCURVE",
"212 307 OFFCURVE",
"214 313 CURVE",
"259 483 LINE",
"263 504 OFFCURVE",
"282 518 OFFCURVE",
"302 518 CURVE SMOOTH",
"330 518 LINE SMOOTH",
"345 518 OFFCURVE",
"358 511 OFFCURVE",
"367 499 CURVE SMOOTH",
"375 489 OFFCURVE",
"378 474 OFFCURVE",
"375 460 CURVE SMOOTH"
);
}
);
width = 416;
}
);
unicode = 00FF;
},
{
glyphname = z;
lastChange = "2020-11-04 22:21:30 +0000";
layers = (
{
layerId = master01;
paths = (
{
closed = 1;
nodes = (
"212 130 LINE",
"208 125 OFFCURVE",
"213 118 OFFCURVE",
"218 118 CURVE SMOOTH",
"324 118 LINE SMOOTH",
"348 118 OFFCURVE",
"369 98 OFFCURVE",
"369 72 CURVE SMOOTH",
"369 46 LINE SMOOTH",
"369 21 OFFCURVE",
"348 0 OFFCURVE",
"324 0 CURVE SMOOTH",
"87 0 LINE SMOOTH",
"71 0 OFFCURVE",
"56 8 OFFCURVE",
"48 22 CURVE SMOOTH",
"40 35 OFFCURVE",
"39 52 OFFCURVE",
"46 66 CURVE SMOOTH",
"206 388 LINE",
"209 392 OFFCURVE",
"205 399 OFFCURVE",
"199 399 CURVE SMOOTH",
"97 399 LINE SMOOTH",
"71 399 OFFCURVE",
"51 419 OFFCURVE",
"51 444 CURVE SMOOTH",
"51 471 LINE SMOOTH",
"51 497 OFFCURVE",
"71 518 OFFCURVE",
"97 518 CURVE SMOOTH",
"330 518 LINE SMOOTH",
"346 518 OFFCURVE",
"361 509 OFFCURVE",
"369 496 CURVE SMOOTH",
"377 482 OFFCURVE",
"378 466 OFFCURVE",
"371 451 CURVE SMOOTH"
);
}
);
width = 417;
}
);
unicode = 007A;
},
{
glyphname = zcaron;
lastChange = "2020-11-04 22:21:30 +0000";
layers = (
{
layerId = master01;
paths = (
{
closed = 1;
nodes = (
"310 579 LINE SMOOTH",
"302 565 OFFCURVE",
"287 556 OFFCURVE",
"270 556 CURVE SMOOTH",
"144 556 LINE SMOOTH",
"127 556 OFFCURVE",
"112 565 OFFCURVE",
"104 579 CURVE SMOOTH",
"63 650 LINE SMOOTH",
"55 664 OFFCURVE",
"55 681 OFFCURVE",
"63 695 CURVE SMOOTH",
"72 709 OFFCURVE",
"87 718 OFFCURVE",
"103 718 CURVE SMOOTH",
"135 718 LINE SMOOTH",
"151 718 OFFCURVE",
"166 709 OFFCURVE",
"174 695 CURVE SMOOTH",
"179 686 LINE SMOOTH",
"183 679 OFFCURVE",
"191 675 OFFCURVE",
"199 675 CURVE SMOOTH",
"215 675 LINE SMOOTH",
"223 675 OFFCURVE",
"231 679 OFFCURVE",
"235 686 CURVE SMOOTH",
"240 695 LINE SMOOTH",
"248 709 OFFCURVE",
"263 718 OFFCURVE",
"279 718 CURVE SMOOTH",
"311 718 LINE SMOOTH",
"327 718 OFFCURVE",
"342 709 OFFCURVE",
"351 695 CURVE SMOOTH",
"359 681 OFFCURVE",
"359 664 OFFCURVE",
"351 650 CURVE SMOOTH",
"351 650 LINE SMOOTH"
);
},
{
closed = 1;
nodes = (
"209 130 LINE SMOOTH",
"207 125 OFFCURVE",
"211 119 OFFCURVE",
"217 119 CURVE SMOOTH",
"322 119 LINE SMOOTH",
"347 119 OFFCURVE",
"368 98 OFFCURVE",
"368 73 CURVE SMOOTH",
"368 46 LINE SMOOTH",
"368 20 OFFCURVE",
"347 0 OFFCURVE",
"322 0 CURVE SMOOTH",
"86 0 LINE SMOOTH",
"70 0 OFFCURVE",
"55 8 OFFCURVE",
"47 22 CURVE SMOOTH",
"38 35 OFFCURVE",
"38 52 OFFCURVE",
"45 66 CURVE SMOOTH",
"205 387 LINE SMOOTH",
"207 392 OFFCURVE",
"203 399 OFFCURVE",
"197 399 CURVE SMOOTH",
"95 399 LINE SMOOTH",
"69 399 OFFCURVE",
"49 419 OFFCURVE",
"49 444 CURVE SMOOTH",
"49 472 LINE SMOOTH",
"49 497 OFFCURVE",
"69 517 OFFCURVE",
"95 517 CURVE SMOOTH",
"328 517 LINE SMOOTH",
"344 517 OFFCURVE",
"359 509 OFFCURVE",
"367 496 CURVE SMOOTH",
"376 482 OFFCURVE",
"376 465 OFFCURVE",
"369 451 CURVE SMOOTH",
"369 451 LINE SMOOTH"
);
}
);
width = 414;
}
);
unicode = 017E;
},
{
glyphname = fi;
lastChange = "2020-11-04 22:21:30 +0000";
layers = (
{
layerId = master01;
paths = (
{
closed = 1;
nodes = (
"465 574 OFFCURVE",
"432 541 OFFCURVE",
"390 541 CURVE SMOOTH",
"349 541 OFFCURVE",
"315 574 OFFCURVE",
"315 616 CURVE SMOOTH",
"315 657 OFFCURVE",
"349 691 OFFCURVE",
"390 691 CURVE SMOOTH",
"432 691 OFFCURVE",
"465 657 OFFCURVE",
"465 616 CURVE SMOOTH",
"465 616 LINE SMOOTH"
);
},
{
closed = 1;
nodes = (
"450 20 OFFCURVE",
"429 0 OFFCURVE",
"404 0 CURVE SMOOTH",
"377 0 LINE SMOOTH",
"351 0 OFFCURVE",
"331 20 OFFCURVE",
"331 46 CURVE SMOOTH",
"331 386 LINE SMOOTH",
"331 393 OFFCURVE",
"325 399 OFFCURVE",
"318 399 CURVE SMOOTH",
"173 399 LINE SMOOTH",
"165 399 OFFCURVE",
"160 393 OFFCURVE",
"160 386 CURVE SMOOTH",
"160 46 LINE SMOOTH",
"160 20 OFFCURVE",
"139 0 OFFCURVE",
"114 0 CURVE SMOOTH",
"87 0 LINE SMOOTH",
"61 0 OFFCURVE",
"41 20 OFFCURVE",
"41 46 CURVE SMOOTH",
"41 565 LINE SMOOTH",
"41 626 OFFCURVE",
"91 676 OFFCURVE",
"152 676 CURVE SMOOTH",
"235 676 LINE SMOOTH",
"260 676 OFFCURVE",
"280 655 OFFCURVE",
"280 630 CURVE SMOOTH",
"280 603 LINE SMOOTH",
"280 577 OFFCURVE",
"260 557 OFFCURVE",
"235 557 CURVE SMOOTH",
"173 557 LINE SMOOTH",
"165 557 OFFCURVE",
"160 551 OFFCURVE",
"160 544 CURVE SMOOTH",
"160 530 LINE SMOOTH",
"160 523 OFFCURVE",
"165 517 OFFCURVE",
"173 517 CURVE SMOOTH",
"404 517 LINE SMOOTH",
"429 517 OFFCURVE",
"450 497 OFFCURVE",
"450 472 CURVE SMOOTH",
"450 46 LINE SMOOTH"
);
}
);
width = 506;
}
);
unicode = FB01;
},
{
glyphname = fl;
lastChange = "2020-11-04 22:21:30 +0000";
layers = (
{
layerId = master01;
paths = (
{
closed = 1;
nodes = (
"521 20 OFFCURVE",
"501 0 OFFCURVE",
"475 0 CURVE SMOOTH",
"450 0 LINE SMOOTH",
"389 0 OFFCURVE",
"339 50 OFFCURVE",
"339 111 CURVE SMOOTH",
"339 386 LINE SMOOTH",
"339 393 OFFCURVE",
"333 399 OFFCURVE",
"326 399 CURVE SMOOTH",
"172 399 LINE SMOOTH",
"165 399 OFFCURVE",
"159 393 OFFCURVE",
"159 386 CURVE SMOOTH",
"159 46 LINE SMOOTH",
"159 20 OFFCURVE",
"138 0 OFFCURVE",
"113 0 CURVE SMOOTH",
"86 0 LINE SMOOTH",
"61 0 OFFCURVE",
"40 20 OFFCURVE",
"40 46 CURVE SMOOTH",
"40 565 LINE SMOOTH",
"40 626 OFFCURVE",
"90 676 OFFCURVE",
"151 676 CURVE SMOOTH",
"255 676 LINE SMOOTH",
"280 676 OFFCURVE",
"300 655 OFFCURVE",
"300 630 CURVE SMOOTH",
"300 603 LINE SMOOTH",
"300 577 OFFCURVE",
"280 557 OFFCURVE",
"255 557 CURVE SMOOTH",
"172 557 LINE SMOOTH",
"165 557 OFFCURVE",
"159 551 OFFCURVE",
"159 544 CURVE SMOOTH",
"159 530 LINE SMOOTH",
"159 523 OFFCURVE",
"165 517 OFFCURVE",
"172 517 CURVE SMOOTH",
"326 517 LINE SMOOTH",
"333 517 OFFCURVE",
"339 523 OFFCURVE",
"339 530 CURVE SMOOTH",
"339 630 LINE SMOOTH",
"339 655 OFFCURVE",
"359 676 OFFCURVE",
"385 676 CURVE SMOOTH",
"412 676 LINE SMOOTH",
"437 676 OFFCURVE",
"458 655 OFFCURVE",
"458 630 CURVE SMOOTH",
"458 132 LINE SMOOTH",
"458 124 OFFCURVE",
"464 119 OFFCURVE",
"471 119 CURVE SMOOTH",
"475 119 LINE SMOOTH",
"501 119 OFFCURVE",
"521 98 OFFCURVE",
"521 73 CURVE SMOOTH",
"521 46 LINE SMOOTH"
);
}
);
width = 561;
}
);
unicode = FB02;
},
{
glyphname = ordfeminine;
lastChange = "2020-11-04 22:21:30 +0000";
layers = (
{
layerId = master01;
paths = (
{
closed = 1;
nodes = (
"309 299 OFFCURVE",
"271 261 OFFCURVE",
"224 261 CURVE SMOOTH",
"125 261 LINE SMOOTH",
"78 261 OFFCURVE",
"40 299 OFFCURVE",
"40 346 CURVE SMOOTH",
"40 445 LINE SMOOTH",
"40 492 OFFCURVE",
"78 530 OFFCURVE",
"125 530 CURVE SMOOTH",
"177 530 LINE SMOOTH",
"185 530 OFFCURVE",
"191 536 OFFCURVE",
"191 544 CURVE SMOOTH",
"191 551 OFFCURVE",
"185 557 OFFCURVE",
"177 557 CURVE SMOOTH",
"125 557 LINE SMOOTH",
"100 557 OFFCURVE",
"81 577 OFFCURVE",
"81 603 CURVE SMOOTH",
"81 630 LINE SMOOTH",
"81 656 OFFCURVE",
"100 676 OFFCURVE",
"125 676 CURVE SMOOTH",
"224 676 LINE SMOOTH",
"271 676 OFFCURVE",
"309 637 OFFCURVE",
"309 590 CURVE SMOOTH",
"309 346 LINE SMOOTH"
);
},
{
closed = 1;
nodes = (
"191 399 LINE SMOOTH",
"191 406 OFFCURVE",
"185 412 OFFCURVE",
"177 412 CURVE SMOOTH",
"173 412 LINE SMOOTH",
"164 412 OFFCURVE",
"159 406 OFFCURVE",
"159 399 CURVE SMOOTH",
"159 392 LINE SMOOTH",
"159 385 OFFCURVE",
"164 379 OFFCURVE",
"173 379 CURVE SMOOTH",
"177 379 LINE SMOOTH",
"185 379 OFFCURVE",
"191 385 OFFCURVE",
"191 392 CURVE SMOOTH"
);
}
);
width = 350;
}
);
unicode = 00AA;
},
{
glyphname = ordmasculine;
lastChange = "2020-11-04 22:21:30 +0000";
layers = (
{
layerId = master01;
paths = (
{
closed = 1;
nodes = (
"325 299 OFFCURVE",
"287 261 OFFCURVE",
"240 261 CURVE SMOOTH",
"127 261 LINE SMOOTH",
"79 261 OFFCURVE",
"41 299 OFFCURVE",
"41 346 CURVE SMOOTH",
"41 590 LINE SMOOTH",
"41 637 OFFCURVE",
"79 676 OFFCURVE",
"127 676 CURVE SMOOTH",
"240 676 LINE SMOOTH",
"287 676 OFFCURVE",
"325 637 OFFCURVE",
"325 590 CURVE SMOOTH",
"325 346 LINE SMOOTH"
);
},
{
closed = 1;
nodes = (
"207 544 LINE SMOOTH",
"207 551 OFFCURVE",
"201 557 OFFCURVE",
"194 557 CURVE SMOOTH",
"173 557 LINE SMOOTH",
"166 557 OFFCURVE",
"160 551 OFFCURVE",
"160 544 CURVE SMOOTH",
"160 392 LINE SMOOTH",
"160 385 OFFCURVE",
"166 379 OFFCURVE",
"173 379 CURVE SMOOTH",
"194 379 LINE SMOOTH",
"201 379 OFFCURVE",
"207 385 OFFCURVE",
"207 392 CURVE SMOOTH"
);
}
);
width = 367;
}
);
unicode = 00BA;
},
{
glyphname = clickdental;
lastChange = "2020-11-04 22:21:30 +0000";
layers = (
{
layerId = master01;
paths = (
{
closed = 1;
nodes = (
"350 100 OFFCURVE",
"329 79 OFFCURVE",
"304 79 CURVE SMOOTH",
"277 79 LINE SMOOTH",
"251 79 OFFCURVE",
"231 100 OFFCURVE",
"231 125 CURVE SMOOTH",
"231 547 LINE SMOOTH",
"231 572 OFFCURVE",
"251 592 OFFCURVE",
"277 592 CURVE SMOOTH",
"304 592 LINE SMOOTH",
"329 592 OFFCURVE",
"350 572 OFFCURVE",
"350 547 CURVE SMOOTH",
"350 125 LINE SMOOTH"
);
}
);
width = 581;
}
);
unicode = 01C0;
},
{
export = 0;
glyphname = "A-cy";
lastChange = "2020-11-04 22:21:30 +0000";
layers = (
{
layerId = master01;
paths = (
{
closed = 1;
nodes = (
"561 46 OFFCURVE",
"559 31 OFFCURVE",
"550 19 CURVE SMOOTH",
"541 7 OFFCURVE",
"528 0 OFFCURVE",
"513 0 CURVE SMOOTH",
"484 0 LINE SMOOTH",
"464 0 OFFCURVE",
"447 13 OFFCURVE",
"441 31 CURVE SMOOTH",
"403 146 LINE SMOOTH",
"400 153 OFFCURVE",
"393 158 OFFCURVE",
"386 158 CURVE SMOOTH",
"213 158 LINE SMOOTH",
"206 158 OFFCURVE",
"199 153 OFFCURVE",
"196 146 CURVE SMOOTH",
"158 31 LINE SMOOTH",
"152 13 OFFCURVE",
"135 0 OFFCURVE",
"115 0 CURVE SMOOTH",
"86 0 LINE SMOOTH",
"71 0 OFFCURVE",
"58 7 OFFCURVE",
"49 19 CURVE SMOOTH",
"41 31 OFFCURVE",
"38 46 OFFCURVE",
"43 60 CURVE SMOOTH",
"236 645 LINE SMOOTH",
"243 663 OFFCURVE",
"260 676 OFFCURVE",
"280 676 CURVE SMOOTH",
"319 676 LINE SMOOTH",
"339 676 OFFCURVE",
"356 663 OFFCURVE",
"363 645 CURVE SMOOTH",
"556 60 LINE SMOOTH"
);
},
{
closed = 1;
nodes = (
"304 443 LINE SMOOTH",
"303 447 OFFCURVE",
"296 447 OFFCURVE",
"295 443 CURVE SMOOTH",
"244 289 LINE SMOOTH",
"242 283 OFFCURVE",
"246 277 OFFCURVE",
"253 277 CURVE SMOOTH",
"346 277 LINE SMOOTH",
"353 277 OFFCURVE",
"357 283 OFFCURVE",
"355 289 CURVE SMOOTH",
"355 289 LINE SMOOTH"
);
}
);
width = 599;
}
);
unicode = 0410;
},
{
export = 0;
glyphname = "Be-cy";
lastChange = "2020-11-04 22:21:30 +0000";
layers = (
{
layerId = master01;
paths = (
{
closed = 1;
nodes = (
"403 10 LINE SMOOTH",
"390 -3 OFFCURVE",
"368 -3 OFFCURVE",
"355 10 CURVE SMOOTH",
"51 314 LINE SMOOTH",
"38 327 OFFCURVE",
"38 349 OFFCURVE",
"51 362 CURVE SMOOTH",
"355 666 LINE SMOOTH",
"368 679 OFFCURVE",
"390 679 OFFCURVE",
"403 666 CURVE SMOOTH",
"707 362 LINE SMOOTH",
"720 349 OFFCURVE",
"720 327 OFFCURVE",
"707 314 CURVE SMOOTH",
"707 314 LINE SMOOTH"
);
},
{
closed = 1;
nodes = (
"493 419 LINE SMOOTH",
"493 455 OFFCURVE",
"463 485 OFFCURVE",
"427 485 CURVE SMOOTH",
"331 485 LINE SMOOTH",
"295 485 OFFCURVE",
"265 455 OFFCURVE",
"265 419 CURVE SMOOTH",
"265 383 LINE SMOOTH",
"265 370 OFFCURVE",
"275 360 OFFCURVE",
"288 360 CURVE SMOOTH",
"302 360 LINE SMOOTH",
"314 360 OFFCURVE",
"324 370 OFFCURVE",
"324 383 CURVE SMOOTH",
"324 419 LINE SMOOTH",
"324 422 OFFCURVE",
"327 425 OFFCURVE",
"331 425 CURVE SMOOTH",
"427 425 LINE SMOOTH",
"431 425 OFFCURVE",
"434 422 OFFCURVE",
"434 419 CURVE SMOOTH",
"434 373 LINE SMOOTH",
"434 370 OFFCURVE",
"432 367 OFFCURVE",
"429 366 CURVE SMOOTH",
"390 352 LINE SMOOTH",
"366 343 OFFCURVE",
"349 319 OFFCURVE",
"349 293 CURVE SMOOTH",
"349 262 LINE SMOOTH",
"349 250 OFFCURVE",
"360 240 OFFCURVE",
"372 240 CURVE SMOOTH",
"386 240 LINE SMOOTH",
"398 240 OFFCURVE",
"409 250 OFFCURVE",
"409 262 CURVE SMOOTH",
"409 292 LINE SMOOTH",
"409 293 OFFCURVE",
"409 294 OFFCURVE",
"409 295 CURVE SMOOTH",
"410 296 OFFCURVE",
"411 296 OFFCURVE",
"412 297 CURVE SMOOTH",
"449 311 LINE SMOOTH",
"475 320 OFFCURVE",
"493 346 OFFCURVE",
"493 373 CURVE SMOOTH",
"493 373 LINE SMOOTH"
);
},
{
closed = 1;
nodes = (
"416 206 OFFCURVE",
"400 222 OFFCURVE",
"379 222 CURVE SMOOTH",
"358 222 OFFCURVE",
"342 206 OFFCURVE",
"342 185 CURVE SMOOTH",
"342 164 OFFCURVE",
"358 148 OFFCURVE",
"379 148 CURVE SMOOTH",
"400 148 OFFCURVE",
"416 164 OFFCURVE",
"416 185 CURVE SMOOTH",
"416 185 LINE SMOOTH"
);
}
);
width = 758;
}
);
unicode = 0411;
},
{
export = 0;
glyphname = "Ve-cy";
lastChange = "2020-11-04 22:21:30 +0000";
layers = (
{
layerId = master01;
paths = (
{
closed = 1;
nodes = (
"485 59 OFFCURVE",
"426 0 OFFCURVE",
"353 0 CURVE SMOOTH",
"86 0 LINE SMOOTH",
"61 0 OFFCURVE",
"41 20 OFFCURVE",
"41 46 CURVE SMOOTH",
"41 630 LINE SMOOTH",
"41 655 OFFCURVE",
"61 676 OFFCURVE",
"86 676 CURVE SMOOTH",
"339 676 LINE SMOOTH",
"412 676 OFFCURVE",
"471 616 OFFCURVE",
"471 543 CURVE SMOOTH",
"471 425 LINE SMOOTH",
"471 407 OFFCURVE",
"468 390 OFFCURVE",
"461 374 CURVE SMOOTH",
"458 367 OFFCURVE",
"459 358 OFFCURVE",
"463 352 CURVE SMOOTH",
"477 331 OFFCURVE",
"485 306 OFFCURVE",
"485 279 CURVE SMOOTH",
"485 132 LINE SMOOTH"
);
},
{
closed = 1;
nodes = (
"352 543 LINE SMOOTH",
"352 551 OFFCURVE",
"346 557 OFFCURVE",
"339 557 CURVE SMOOTH",
"172 557 LINE SMOOTH",
"165 557 OFFCURVE",
"159 551 OFFCURVE",
"159 544 CURVE SMOOTH",
"159 424 LINE SMOOTH",
"159 417 OFFCURVE",
"165 411 OFFCURVE",
"172 411 CURVE SMOOTH",
"339 411 LINE SMOOTH",
"346 411 OFFCURVE",
"352 417 OFFCURVE",
"352 425 CURVE SMOOTH",
"352 425 LINE SMOOTH"
);
},
{
closed = 1;
nodes = (
"366 279 LINE SMOOTH",
"366 286 OFFCURVE",
"360 292 OFFCURVE",
"353 292 CURVE SMOOTH",
"172 292 LINE SMOOTH",
"165 292 OFFCURVE",
"159 287 OFFCURVE",
"159 279 CURVE SMOOTH",
"159 132 LINE SMOOTH",
"159 124 OFFCURVE",
"165 119 OFFCURVE",
"172 119 CURVE SMOOTH",
"353 119 LINE SMOOTH",
"360 119 OFFCURVE",
"366 125 OFFCURVE",
"366 132 CURVE SMOOTH",
"366 132 LINE SMOOTH"
);
}
);
width = 526;
}
);
unicode = 0412;
},
{
export = 0;
glyphname = "Ge-cy";
lastChange = "2020-11-04 22:21:30 +0000";
layers = (
{
layerId = master01;
paths = (
{
closed = 1;
nodes = (
"403 10 LINE SMOOTH",
"390 -3 OFFCURVE",
"368 -3 OFFCURVE",
"355 10 CURVE SMOOTH",
"51 314 LINE SMOOTH",
"38 327 OFFCURVE",
"38 349 OFFCURVE",
"51 362 CURVE SMOOTH",
"355 666 LINE SMOOTH",
"368 679 OFFCURVE",
"390 679 OFFCURVE",
"403 666 CURVE SMOOTH",
"707 362 LINE SMOOTH",
"720 349 OFFCURVE",
"720 327 OFFCURVE",
"707 314 CURVE SMOOTH",
"707 314 LINE SMOOTH"
);
},
{
closed = 1;
nodes = (
"493 419 LINE SMOOTH",
"493 455 OFFCURVE",
"463 485 OFFCURVE",
"427 485 CURVE SMOOTH",
"331 485 LINE SMOOTH",
"295 485 OFFCURVE",
"265 455 OFFCURVE",
"265 419 CURVE SMOOTH",
"265 383 LINE SMOOTH",
"265 370 OFFCURVE",
"275 360 OFFCURVE",
"288 360 CURVE SMOOTH",
"302 360 LINE SMOOTH",
"314 360 OFFCURVE",
"324 370 OFFCURVE",
"324 383 CURVE SMOOTH",
"324 419 LINE SMOOTH",
"324 422 OFFCURVE",
"327 425 OFFCURVE",
"331 425 CURVE SMOOTH",
"427 425 LINE SMOOTH",
"431 425 OFFCURVE",
"434 422 OFFCURVE",
"434 419 CURVE SMOOTH",
"434 373 LINE SMOOTH",
"434 370 OFFCURVE",
"432 367 OFFCURVE",
"429 366 CURVE SMOOTH",
"390 352 LINE SMOOTH",
"366 343 OFFCURVE",
"349 319 OFFCURVE",
"349 293 CURVE SMOOTH",
"349 262 LINE SMOOTH",
"349 250 OFFCURVE",
"360 240 OFFCURVE",
"372 240 CURVE SMOOTH",
"386 240 LINE SMOOTH",
"398 240 OFFCURVE",
"409 250 OFFCURVE",
"409 262 CURVE SMOOTH",
"409 292 LINE SMOOTH",
"409 293 OFFCURVE",
"409 294 OFFCURVE",
"409 295 CURVE SMOOTH",
"410 296 OFFCURVE",
"411 296 OFFCURVE",
"412 297 CURVE SMOOTH",
"449 311 LINE SMOOTH",
"475 320 OFFCURVE",
"493 346 OFFCURVE",
"493 373 CURVE SMOOTH",
"493 373 LINE SMOOTH"
);
},
{
closed = 1;
nodes = (
"416 206 OFFCURVE",
"400 222 OFFCURVE",
"379 222 CURVE SMOOTH",
"358 222 OFFCURVE",
"342 206 OFFCURVE",
"342 185 CURVE SMOOTH",
"342 164 OFFCURVE",
"358 148 OFFCURVE",
"379 148 CURVE SMOOTH",
"400 148 OFFCURVE",
"416 164 OFFCURVE",
"416 185 CURVE SMOOTH",
"416 185 LINE SMOOTH"
);
}
);
width = 758;
}
);
unicode = 0413;
},
{
export = 0;
glyphname = "De-cy";
lastChange = "2020-11-04 22:21:30 +0000";
layers = (
{
layerId = master01;
paths = (
{
closed = 1;
nodes = (
"403 10 LINE SMOOTH",
"390 -3 OFFCURVE",
"368 -3 OFFCURVE",
"355 10 CURVE SMOOTH",
"51 314 LINE SMOOTH",
"38 327 OFFCURVE",
"38 349 OFFCURVE",
"51 362 CURVE SMOOTH",
"355 666 LINE SMOOTH",
"368 679 OFFCURVE",
"390 679 OFFCURVE",
"403 666 CURVE SMOOTH",
"707 362 LINE SMOOTH",
"720 349 OFFCURVE",
"720 327 OFFCURVE",
"707 314 CURVE SMOOTH",
"707 314 LINE SMOOTH"
);
},
{
closed = 1;
nodes = (
"493 419 LINE SMOOTH",
"493 455 OFFCURVE",
"463 485 OFFCURVE",
"427 485 CURVE SMOOTH",
"331 485 LINE SMOOTH",
"295 485 OFFCURVE",
"265 455 OFFCURVE",
"265 419 CURVE SMOOTH",
"265 383 LINE SMOOTH",
"265 370 OFFCURVE",
"275 360 OFFCURVE",
"288 360 CURVE SMOOTH",
"302 360 LINE SMOOTH",
"314 360 OFFCURVE",
"324 370 OFFCURVE",
"324 383 CURVE SMOOTH",
"324 419 LINE SMOOTH",
"324 422 OFFCURVE",
"327 425 OFFCURVE",
"331 425 CURVE SMOOTH",
"427 425 LINE SMOOTH",
"431 425 OFFCURVE",
"434 422 OFFCURVE",
"434 419 CURVE SMOOTH",
"434 373 LINE SMOOTH",
"434 370 OFFCURVE",
"432 367 OFFCURVE",
"429 366 CURVE SMOOTH",
"390 352 LINE SMOOTH",
"366 343 OFFCURVE",
"349 319 OFFCURVE",
"349 293 CURVE SMOOTH",
"349 262 LINE SMOOTH",
"349 250 OFFCURVE",
"360 240 OFFCURVE",
"372 240 CURVE SMOOTH",
"386 240 LINE SMOOTH",
"398 240 OFFCURVE",
"409 250 OFFCURVE",
"409 262 CURVE SMOOTH",
"409 292 LINE SMOOTH",
"409 293 OFFCURVE",
"409 294 OFFCURVE",
"409 295 CURVE SMOOTH",
"410 296 OFFCURVE",
"411 296 OFFCURVE",
"412 297 CURVE SMOOTH",
"449 311 LINE SMOOTH",
"475 320 OFFCURVE",
"493 346 OFFCURVE",
"493 373 CURVE SMOOTH",
"493 373 LINE SMOOTH"
);
},
{
closed = 1;
nodes = (
"416 206 OFFCURVE",
"400 222 OFFCURVE",
"379 222 CURVE SMOOTH",
"358 222 OFFCURVE",
"342 206 OFFCURVE",
"342 185 CURVE SMOOTH",
"342 164 OFFCURVE",
"358 148 OFFCURVE",
"379 148 CURVE SMOOTH",
"400 148 OFFCURVE",
"416 164 OFFCURVE",
"416 185 CURVE SMOOTH",
"416 185 LINE SMOOTH"
);
}
);
width = 758;
}
);
unicode = 0414;
},
{
export = 0;
glyphname = "Ie-cy";
lastChange = "2020-11-04 22:21:30 +0000";
layers = (
{
layerId = master01;
paths = (
{
closed = 1;
nodes = (
"474 20 OFFCURVE",
"454 0 OFFCURVE",
"428 0 CURVE SMOOTH",
"86 0 LINE SMOOTH",
"60 0 OFFCURVE",
"40 20 OFFCURVE",
"40 46 CURVE SMOOTH",
"40 630 LINE SMOOTH",
"40 655 OFFCURVE",
"60 676 OFFCURVE",
"86 676 CURVE SMOOTH",
"428 676 LINE SMOOTH",
"454 676 OFFCURVE",
"474 655 OFFCURVE",
"474 630 CURVE SMOOTH",
"474 603 LINE SMOOTH",
"474 577 OFFCURVE",
"454 557 OFFCURVE",
"428 557 CURVE SMOOTH",
"172 557 LINE SMOOTH",
"165 557 OFFCURVE",
"159 551 OFFCURVE",
"159 544 CURVE SMOOTH",
"159 410 LINE SMOOTH",
"159 403 OFFCURVE",
"165 397 OFFCURVE",
"172 397 CURVE SMOOTH",
"393 397 LINE SMOOTH",
"418 397 OFFCURVE",
"439 377 OFFCURVE",
"439 352 CURVE SMOOTH",
"439 324 LINE SMOOTH",
"439 299 OFFCURVE",
"418 278 OFFCURVE",
"393 278 CURVE SMOOTH",
"172 278 LINE SMOOTH",
"165 278 OFFCURVE",
"159 273 OFFCURVE",
"159 266 CURVE SMOOTH",
"159 132 LINE SMOOTH",
"159 124 OFFCURVE",
"165 119 OFFCURVE",
"172 119 CURVE SMOOTH",
"428 119 LINE SMOOTH",
"454 119 OFFCURVE",
"474 98 OFFCURVE",
"474 73 CURVE SMOOTH",
"474 46 LINE SMOOTH"
);
}
);
width = 514;
}
);
unicode = 0415;
},
{
export = 0;
glyphname = "Io-cy";
lastChange = "2020-11-04 22:21:30 +0000";
layers = (
{
layerId = master01;
paths = (
{
closed = 1;
nodes = (
"420 747 OFFCURVE",
"386 714 OFFCURVE",
"345 714 CURVE SMOOTH",
"304 714 OFFCURVE",
"270 747 OFFCURVE",
"270 788 CURVE SMOOTH",
"270 830 OFFCURVE",
"304 863 OFFCURVE",
"345 863 CURVE SMOOTH",
"386 863 OFFCURVE",
"420 830 OFFCURVE",
"420 788 CURVE SMOOTH",
"420 788 LINE SMOOTH"
);
},
{
closed = 1;
nodes = (
"247 747 OFFCURVE",
"213 714 OFFCURVE",
"172 714 CURVE SMOOTH",
"130 714 OFFCURVE",
"97 747 OFFCURVE",
"97 788 CURVE SMOOTH",
"97 830 OFFCURVE",
"130 863 OFFCURVE",
"172 863 CURVE SMOOTH",
"213 863 OFFCURVE",
"247 830 OFFCURVE",
"247 788 CURVE SMOOTH",
"247 788 LINE SMOOTH"
);
},
{
closed = 1;
nodes = (
"476 20 OFFCURVE",
"455 0 OFFCURVE",
"430 0 CURVE SMOOTH",
"87 0 LINE SMOOTH",
"62 0 OFFCURVE",
"41 20 OFFCURVE",
"41 46 CURVE SMOOTH",
"41 630 LINE SMOOTH",
"41 655 OFFCURVE",
"62 676 OFFCURVE",
"87 676 CURVE SMOOTH",
"430 676 LINE SMOOTH",
"455 676 OFFCURVE",
"476 655 OFFCURVE",
"476 630 CURVE SMOOTH",
"476 603 LINE SMOOTH",
"476 578 OFFCURVE",
"455 557 OFFCURVE",
"430 557 CURVE SMOOTH",
"173 557 LINE SMOOTH",
"166 557 OFFCURVE",
"160 551 OFFCURVE",
"160 544 CURVE SMOOTH",
"160 410 LINE SMOOTH",
"160 403 OFFCURVE",
"166 397 OFFCURVE",
"173 397 CURVE SMOOTH",
"395 397 LINE SMOOTH",
"420 397 OFFCURVE",
"440 377 OFFCURVE",
"440 352 CURVE SMOOTH",
"440 324 LINE SMOOTH",
"440 299 OFFCURVE",
"420 279 OFFCURVE",
"395 279 CURVE SMOOTH",
"173 279 LINE SMOOTH",
"166 279 OFFCURVE",
"160 273 OFFCURVE",
"160 266 CURVE SMOOTH",
"160 132 LINE SMOOTH",
"160 124 OFFCURVE",
"166 119 OFFCURVE",
"173 119 CURVE SMOOTH",
"430 119 LINE SMOOTH",
"455 119 OFFCURVE",
"476 98 OFFCURVE",
"476 73 CURVE SMOOTH",
"476 46 LINE SMOOTH"
);
}
);
width = 514;
}
);
unicode = 0401;
},
{
export = 0;
glyphname = "Zhe-cy";
lastChange = "2020-11-04 22:21:30 +0000";
layers = (
{
layerId = master01;
paths = (
{
closed = 1;
nodes = (
"432 393 OFFCURVE",
"423 378 OFFCURVE",
"409 370 CURVE SMOOTH",
"372 348 LINE SMOOTH",
"367 345 OFFCURVE",
"367 338 OFFCURVE",
"372 335 CURVE SMOOTH",
"408 314 LINE SMOOTH",
"422 306 OFFCURVE",
"430 291 OFFCURVE",
"430 275 CURVE SMOOTH",
"430 243 LINE SMOOTH",
"430 227 OFFCURVE",
"422 212 OFFCURVE",
"407 203 CURVE SMOOTH",
"393 195 OFFCURVE",
"376 195 OFFCURVE",
"362 204 CURVE SMOOTH",
"313 232 LINE SMOOTH",
"308 235 OFFCURVE",
"302 231 OFFCURVE",
"302 225 CURVE SMOOTH",
"302 191 LINE SMOOTH",
"302 166 OFFCURVE",
"281 146 OFFCURVE",
"256 146 CURVE SMOOTH",
"229 146 LINE SMOOTH",
"204 146 OFFCURVE",
"183 166 OFFCURVE",
"183 191 CURVE SMOOTH",
"183 225 LINE SMOOTH",
"183 231 OFFCURVE",
"177 235 OFFCURVE",
"172 232 CURVE SMOOTH",
"124 204 LINE SMOOTH",
"109 195 OFFCURVE",
"92 195 OFFCURVE",
"78 203 CURVE SMOOTH",
"64 212 OFFCURVE",
"55 227 OFFCURVE",
"55 243 CURVE SMOOTH",
"55 275 LINE SMOOTH",
"55 291 OFFCURVE",
"64 306 OFFCURVE",
"78 314 CURVE SMOOTH",
"113 335 LINE SMOOTH",
"118 338 OFFCURVE",
"118 345 OFFCURVE",
"113 348 CURVE SMOOTH",
"76 370 LINE SMOOTH",
"62 378 OFFCURVE",
"53 393 OFFCURVE",
"53 409 CURVE SMOOTH",
"53 441 LINE SMOOTH",
"53 457 OFFCURVE",
"62 472 OFFCURVE",
"76 480 CURVE SMOOTH",
"90 489 OFFCURVE",
"108 489 OFFCURVE",
"122 480 CURVE SMOOTH",
"172 451 LINE SMOOTH",
"177 448 OFFCURVE",
"183 452 OFFCURVE",
"183 458 CURVE SMOOTH",
"183 492 LINE SMOOTH",
"183 517 OFFCURVE",
"204 537 OFFCURVE",
"229 537 CURVE SMOOTH",
"256 537 LINE SMOOTH",
"281 537 OFFCURVE",
"302 517 OFFCURVE",
"302 492 CURVE SMOOTH",
"302 458 LINE SMOOTH",
"302 452 OFFCURVE",
"308 448 OFFCURVE",
"313 451 CURVE SMOOTH",
"364 480 LINE SMOOTH",
"378 489 OFFCURVE",
"395 489 OFFCURVE",
"409 480 CURVE SMOOTH",
"423 472 OFFCURVE",
"432 457 OFFCURVE",
"432 441 CURVE SMOOTH",
"432 409 LINE SMOOTH"
);
}
);
width = 485;
}
);
unicode = 0416;
},
{
export = 0;
glyphname = "Ze-cy";
lastChange = "2020-11-04 22:21:30 +0000";
layers = (
{
layerId = master01;
paths = (
{
closed = 1;
nodes = (
"476 20 OFFCURVE",
"455 0 OFFCURVE",
"430 0 CURVE SMOOTH",
"87 0 LINE SMOOTH",
"62 0 OFFCURVE",
"41 20 OFFCURVE",
"41 46 CURVE SMOOTH",
"41 73 LINE SMOOTH",
"41 98 OFFCURVE",
"62 119 OFFCURVE",
"87 119 CURVE SMOOTH",
"344 119 LINE SMOOTH",
"351 119 OFFCURVE",
"357 125 OFFCURVE",
"357 132 CURVE SMOOTH",
"357 266 LINE SMOOTH",
"357 273 OFFCURVE",
"351 279 OFFCURVE",
"344 279 CURVE SMOOTH",
"122 279 LINE SMOOTH",
"97 279 OFFCURVE",
"77 299 OFFCURVE",
"77 324 CURVE SMOOTH",
"77 352 LINE SMOOTH",
"77 377 OFFCURVE",
"97 397 OFFCURVE",
"122 397 CURVE SMOOTH",
"344 397 LINE SMOOTH",
"351 397 OFFCURVE",
"357 403 OFFCURVE",
"357 410 CURVE SMOOTH",
"357 544 LINE SMOOTH",
"357 551 OFFCURVE",
"351 557 OFFCURVE",
"344 557 CURVE SMOOTH",
"87 557 LINE SMOOTH",
"62 557 OFFCURVE",
"41 578 OFFCURVE",
"41 603 CURVE SMOOTH",
"41 630 LINE SMOOTH",
"41 655 OFFCURVE",
"62 676 OFFCURVE",
"87 676 CURVE SMOOTH",
"430 676 LINE SMOOTH",
"455 676 OFFCURVE",
"476 655 OFFCURVE",
"476 630 CURVE SMOOTH",
"476 46 LINE SMOOTH"
);
}
);
width = 526;
}
);
unicode = 0417;
},
{
export = 0;
glyphname = "Ii-cy";
lastChange = "2020-11-04 22:21:30 +0000";
layers = (
{
layerId = master01;
paths = (
{
closed = 1;
nodes = (
"498 20 OFFCURVE",
"478 0 OFFCURVE",
"452 0 CURVE SMOOTH",
"425 0 LINE SMOOTH",
"400 0 OFFCURVE",
"379 20 OFFCURVE",
"379 46 CURVE SMOOTH",
"379 390 LINE SMOOTH",
"379 395 OFFCURVE",
"372 397 OFFCURVE",
"370 392 CURVE SMOOTH",
"156 23 LINE SMOOTH",
"148 9 OFFCURVE",
"133 0 OFFCURVE",
"117 0 CURVE SMOOTH",
"87 0 LINE SMOOTH",
"62 0 OFFCURVE",
"41 20 OFFCURVE",
"41 46 CURVE SMOOTH",
"41 630 LINE SMOOTH",
"41 655 OFFCURVE",
"62 676 OFFCURVE",
"87 676 CURVE SMOOTH",
"114 676 LINE SMOOTH",
"140 676 OFFCURVE",
"160 655 OFFCURVE",
"160 630 CURVE SMOOTH",
"160 286 LINE SMOOTH",
"160 281 OFFCURVE",
"167 279 OFFCURVE",
"170 284 CURVE SMOOTH",
"383 653 LINE SMOOTH",
"391 667 OFFCURVE",
"406 676 OFFCURVE",
"423 676 CURVE SMOOTH",
"452 676 LINE SMOOTH",
"478 676 OFFCURVE",
"498 655 OFFCURVE",
"498 630 CURVE SMOOTH",
"498 46 LINE SMOOTH"
);
}
);
width = 539;
}
);
unicode = 0418;
},
